<?xml version="1.0" encoding="utf-8"?><svg xmlns="http://www.w3.org/2000/svg" xmlns:xlink="http://www.w3.org/1999/xlink"><symbol viewBox="0 0 32 32" id="contacts-address"><path d="M15.999 17.96a2.91 2.91 0 0 1-2.914-2.907 2.91 2.91 0 0 1 2.914-2.906 2.91 2.91 0 0 1 2.914 2.906A2.91 2.91 0 0 1 16 17.96z"/><path fill-rule="evenodd" clip-rule="evenodd" d="M29 16c0 7.18-5.82 13-13 13S3 23.18 3 16 8.82 3 16 3s13 5.82 13 13zM15.786 9.004c-2.988.104-5.47 2.43-5.757 5.397a6.004 6.004 0 0 0 .08 1.72l.002.015.008.044c.007.03.016.074.03.128.092.412.231.812.404 1.187.601 1.421 1.992 3.799 5.113 6.385.191.16.472.16.666 0 3.12-2.583 4.512-4.96 5.116-6.388a5.735 5.735 0 0 0 .444-1.375c.071-.369.108-.747.108-1.134 0-3.377-2.803-6.1-6.214-5.98z"/><path fill-rule="evenodd" clip-rule="evenodd" d="M32 16c0 8.837-7.163 16-16 16S0 24.837 0 16 7.163 0 16 0s16 7.163 16 16zm-1 0c0 8.284-6.716 15-15 15-8.284 0-15-6.716-15-15C1 7.716 7.716 1 16 1c8.284 0 15 6.716 15 15z"/></symbol><symbol viewBox="0 0 32 32" id="contacts-clock"><path d="M16 16.387h2.605a.387.387 0 1 0 0-.775h-2.218v-3.361a.388.388 0 1 0-.775 0V16c0 .214.174.387.388.387z"/><path fill-rule="evenodd" clip-rule="evenodd" d="M9.322 16A6.686 6.686 0 0 0 16 22.678 6.686 6.686 0 0 0 22.678 16 6.686 6.686 0 0 0 16 9.322 6.686 6.686 0 0 0 9.322 16zm11.77 0c0 .214.174.387.388.387h.41a5.878 5.878 0 0 1-1.447 3.495l-.304-.305a.387.387 0 1 0-.548.548l.305.305a5.878 5.878 0 0 1-3.509 1.46v-.457a.388.388 0 1 0-.775 0v.457a5.88 5.88 0 0 1-3.519-1.469l.33-.33a.387.387 0 1 0-.549-.547l-.327.327a5.878 5.878 0 0 1-1.437-3.483h.457a.388.388 0 1 0 0-.776h-.457a5.88 5.88 0 0 1 1.46-3.508l.304.304a.386.386 0 0 0 .548 0 .387.387 0 0 0 0-.548l-.304-.304a5.88 5.88 0 0 1 3.494-1.446v.41a.388.388 0 0 0 .775 0v-.41a5.877 5.877 0 0 1 3.484 1.437l-.28.28a.387.387 0 1 0 .548.548l.282-.282a5.879 5.879 0 0 1 1.469 3.52h-.41a.388.388 0 0 0-.387.387z"/><path fill-rule="evenodd" clip-rule="evenodd" d="M29 16c0 7.18-5.82 13-13 13S3 23.18 3 16 8.82 3 16 3s13 5.82 13 13zM16 8c-4.411 0-8 3.589-8 8s3.589 8 8 8 8-3.589 8-8-3.589-8-8-8z"/><path fill-rule="evenodd" clip-rule="evenodd" d="M32 16c0 8.837-7.163 16-16 16S0 24.837 0 16 7.163 0 16 0s16 7.163 16 16zm-1 0c0 8.284-6.716 15-15 15-8.284 0-15-6.716-15-15C1 7.716 7.716 1 16 1c8.284 0 15 6.716 15 15z"/></symbol><symbol viewBox="0 0 32 32" id="contacts-email"><path fill-rule="evenodd" clip-rule="evenodd" d="M29 16c0 7.18-5.82 13-13 13S3 23.18 3 16 8.82 3 16 3s13 5.82 13 13zm-6.429-6H9.43c-.458 0-.81.148-1.058.443-.247.296-.37.665-.37 1.108 0 .358.163.746.49 1.164a4.34 4.34 0 0 0 1.045.984c.203.136.813.541 1.83 1.214a642.317 642.317 0 0 1 2.34 1.556l.133.09.246.17c.194.133.354.241.482.324l.079.05a8.475 8.475 0 0 0 .386.227 3.109 3.109 0 0 0 .513.23c.161.05.31.077.447.077h.017a1.648 1.648 0 0 0 .446-.077 2.78 2.78 0 0 0 .514-.23 9.575 9.575 0 0 0 .681-.42l.266-.181.246-.17.075-.05.058-.04 4.179-2.77c.434-.29.797-.64 1.089-1.048.291-.41.437-.838.437-1.287a1.28 1.28 0 0 0-.424-.964 1.415 1.415 0 0 0-1.005-.4zm-13.67 4.61A4.675 4.675 0 0 1 8 13.87v6.583l3.995-3.814a301.072 301.072 0 0 0-3.093-2.028zM22.572 22c.36 0 .671-.113.936-.337l-4.533-4.328-.112.077-.202.139c-.339.238-.614.425-.826.558a5.18 5.18 0 0 1-.843.41 2.684 2.684 0 0 1-.982.208h-.018c-.304 0-.631-.07-.982-.209a5.162 5.162 0 0 1-.844-.41l-.1-.062-.089-.059-.07-.047a19.35 19.35 0 0 1-.567-.39l-.313-.216-4.534 4.329c.265.224.577.337.937.337h13.14zm-2.565-5.36a295.76 295.76 0 0 1 3.1-2.03c.34-.22.637-.468.893-.74v6.583l-3.993-3.812z"/><path fill-rule="evenodd" clip-rule="evenodd" d="M32 16c0 8.837-7.163 16-16 16S0 24.837 0 16 7.163 0 16 0s16 7.163 16 16zm-1 0c0 8.284-6.716 15-15 15-8.284 0-15-6.716-15-15C1 7.716 7.716 1 16 1c8.284 0 15 6.716 15 15z"/></symbol><symbol viewBox="0 0 32 32" id="contacts-tel"><path fill-rule="evenodd" clip-rule="evenodd" d="M29 16c0 7.18-5.82 13-13 13S3 23.18 3 16 8.82 3 16 3s13 5.82 13 13zm-8.226 5.894c-.398.451-3.267 3.278-7.589-3.304-4.555-6.94-1.824-8.84-.639-9.31l.057-.021.094-.034.04-.013c.167-.054.273-.071.273-.071l-.001.008c.785-.135 1.521.17 1.662.843l.248 1.53c.168.803-.482 1.768-1.452 2.156l-.079.031c.514 1.744 1.55 3.752 3.582 5.579l.15-.127c.79-.674 1.963-.808 2.62-.3l1.155.983c.641.496.617 1.38-.12 2.05z"/><path fill-rule="evenodd" clip-rule="evenodd" d="M32 16c0 8.837-7.163 16-16 16S0 24.837 0 16 7.163 0 16 0s16 7.163 16 16zm-1 0c0 8.284-6.716 15-15 15-8.284 0-15-6.716-15-15C1 7.716 7.716 1 16 1c8.284 0 15 6.716 15 15z"/></symbol><symbol viewBox="0 0 139.4 44.7" id="dorohovdesign"><path d="M52.2 19.5V8.1H57c3.6 0 6.1 2.1 6.1 5.7 0 3.5-2.6 5.7-6.1 5.7h-4.8zm7.9-5.7c0-1.8-1.1-3.1-3.1-3.1h-1.9v6.2H57c2 0 3.1-1.4 3.1-3.1m4.1 0c0-3.4 2.6-5.9 6.1-5.9 3.5 0 6.1 2.4 6.1 5.9 0 3.5-2.6 5.9-6.1 5.9-3.5 0-6.1-2.4-6.1-5.9m9.2 0c0-1.9-1.2-3.3-3.1-3.3-1.9 0-3.1 1.4-3.1 3.3 0 1.8 1.2 3.3 3.1 3.3 1.9 0 3.1-1.4 3.1-3.3m11 5.7l-1.9-3.8H81v3.8h-2.9V8.1h5.7c2.5 0 3.9 1.7 3.9 3.8 0 2-1.2 3-2.3 3.4l2.3 4.2h-3.3zm.3-7.6c0-.8-.6-1.2-1.4-1.2H81v2.4h2.3c.8 0 1.4-.4 1.4-1.2m4.2 1.9c0-3.4 2.6-5.9 6.1-5.9 3.5 0 6.1 2.4 6.1 5.9 0 3.5-2.6 5.9-6.1 5.9-3.5 0-6.1-2.4-6.1-5.9m9.1 0c0-1.9-1.2-3.3-3.1-3.3-1.9 0-3.1 1.4-3.1 3.3 0 1.8 1.2 3.3 3.1 3.3 1.9 0 3.1-1.4 3.1-3.3m12.4 5.7v-4.6h-4.7v4.6h-3V8.1h3v4.3h4.7V8.1h2.9v11.4zm4.6-5.7c0-3.4 2.6-5.9 6.1-5.9 3.5 0 6.1 2.4 6.1 5.9 0 3.5-2.6 5.9-6.1 5.9-3.5 0-6.1-2.4-6.1-5.9m9.2 0c0-1.9-1.2-3.3-3.1-3.3-1.9 0-3.1 1.4-3.1 3.3 0 1.8 1.2 3.3 3.1 3.3 1.9 0 3.1-1.4 3.1-3.3m7.3 5.7l-4.3-11.4h3.3l2.8 8.2 2.8-8.2h3.3l-4.2 11.4zm-79.3 17V25.1H57c3.6 0 6.1 2.1 6.1 5.7 0 3.5-2.6 5.7-6.1 5.7h-4.8zm7.9-5.7c0-1.8-1.1-3.1-3.1-3.1h-1.9v6.2H57c2 0 3.1-1.4 3.1-3.1m4.7 5.7V25.1h8.3v2.6h-5.3v1.8H73V32h-5.2v1.9h5.3v2.6zm9.6-1.6l1.5-2.2c.8.8 2.1 1.5 3.6 1.5 1 0 1.6-.4 1.6-.9 0-1.5-6.4-.3-6.4-4.7 0-1.9 1.6-3.6 4.5-3.6 1.8 0 3.4.5 4.6 1.6l-1.6 2.1c-1-.8-2.2-1.2-3.3-1.2-.8 0-1.2.3-1.2.8 0 1.4 6.4.4 6.4 4.6 0 2.3-1.7 3.8-4.7 3.8-2.2 0-3.8-.7-5-1.8m11.5-9.8h2.9v11.3h-2.9zm4.7 5.7c0-3.6 2.8-5.9 6.1-5.9 2.5 0 4.1 1.3 4.8 2.8L99.1 29c-.4-.7-1.3-1.4-2.4-1.4-1.9 0-3.2 1.4-3.2 3.3s1.3 3.3 3.2 3.3c.8 0 1.7-.3 2.1-.7v-.9h-2.6V30h5.5v4.5c-1.2 1.3-2.9 2.2-5 2.2-3.4 0-6.1-2.3-6.1-5.9m20.9 5.7l-4.8-6.6v6.6h-2.9V25.1h3l4.6 6.3v-6.3h2.9v11.4zM17.7 0H0v44.7h17.8c15 0 24.6-8.8 24.6-22.4C42.4 8.7 32.7 0 17.7 0m-.4 35.7h-8V9.5h8c9.3 0 15.7 3.7 15.7 12.7.1 7.5-5.8 13.5-15.7 13.5"/><path d="M19.1 17H17v10.6h2c4 0 6.4-2.4 6.4-5.4 0-3.7-2.6-5.2-6.3-5.2"/></symbol><symbol viewBox="0 0 96.124 96.123" id="fb"><path d="M72.089.02L59.624 0C45.62 0 36.57 9.285 36.57 23.656v10.907H24.037a1.96 1.96 0 0 0-1.96 1.961v15.803a1.96 1.96 0 0 0 1.96 1.96H36.57v39.876a1.96 1.96 0 0 0 1.96 1.96h16.352a1.96 1.96 0 0 0 1.96-1.96V54.287h14.654a1.96 1.96 0 0 0 1.96-1.96l.006-15.803a1.963 1.963 0 0 0-1.961-1.961H56.842v-9.246c0-4.444 1.059-6.7 6.848-6.7l8.397-.003a1.96 1.96 0 0 0 1.959-1.96V1.98A1.96 1.96 0 0 0 72.089.02z"/></symbol><symbol viewBox="0 0 23 26" id="icon-bar"><path d="M13.065 22.917a.515.515 0 0 0-.522.508c0 .28.234.508.522.508a.515.515 0 0 0 .521-.508.515.515 0 0 0-.521-.508zM5.737 10.171a.515.515 0 0 0-.522.508v9.7c0 .28.234.507.522.507a.515.515 0 0 0 .521-.508v-9.7a.515.515 0 0 0-.521-.507zm4.173 0a.515.515 0 0 0-.522.508v9.7c0 .28.233.507.521.507a.515.515 0 0 0 .522-.508v-9.7a.515.515 0 0 0-.522-.507z"/><path d="M20.392 8.176h-2.607V6.639a2.505 2.505 0 0 0 .975-2.601c-.215-.934-1.007-1.696-1.97-1.896a2.704 2.704 0 0 0-1.496.104 2.63 2.63 0 0 0-2.203-1.18 2.63 2.63 0 0 0-.983.189A4.765 4.765 0 0 0 8.892 0 4.734 4.734 0 0 0 4.98 2.06C2.253 1.915 0 4.02 0 6.617v6.094c0 .84.714 1.523 1.59 1.523a1.6 1.6 0 0 0 .548-.096v9.324c0 1.4 1.17 2.539 2.608 2.539h10.43c1.439 0 2.609-1.139 2.609-2.54v-1.523h2.607c1.438 0 2.608-1.139 2.608-2.539v-8.683c0-1.4-1.17-2.54-2.608-2.54zm-3.65 14.777H15.15a.515.515 0 0 0-.521.508c0 .28.233.503.521.503h1.502a1.57 1.57 0 0 1-1.475 1.02H4.746c-.68 0-1.26-.424-1.475-1.015h7.708a.515.515 0 0 0 .522-.508.515.515 0 0 0-.522-.508H3.181V9.116a3.614 3.614 0 0 0 2.72-1.956c.109 0 .204.037.277.106a3.154 3.154 0 0 0 2.193.874c.855 0 1.654-.33 2.25-.93a.174.174 0 0 1 .123-.05c.812 0 1.343.169 1.579.502.194.274.194.656.194.962v2.055a1.53 1.53 0 0 0 1.043 1.436v8.263c0 .28.234.508.522.508a.515.515 0 0 0 .521-.508v-8.263a1.53 1.53 0 0 0 1.043-1.436V7.1a2.84 2.84 0 0 0 1.095 0v15.852zM15.361 5.94a.534.534 0 0 0-.51.02.505.505 0 0 0-.249.432v4.288c0 .28-.234.508-.521.508a.515.515 0 0 1-.522-.508V8.625c0-.4 0-1.005-.379-1.54-.442-.624-1.262-.94-2.437-.94-.328 0-.647.131-.874.36-.396.4-.929.62-1.5.62a2.1 2.1 0 0 1-1.461-.584A1.449 1.449 0 0 0 5.9 6.145a1.05 1.05 0 0 0-.936.568 2.591 2.591 0 0 1-2.31 1.427.515.515 0 0 0-.517.508v4.038a.556.556 0 0 1-.547.532c-.297 0-.548-.233-.548-.508V6.616c0-1.96 1.647-3.547 3.672-3.547.157 0 .316.01.474.03a.526.526 0 0 0 .52-.256 3.677 3.677 0 0 1 3.183-1.827c1.03 0 2.021.437 2.722 1.2.17.185.452.223.668.09a1.54 1.54 0 0 1 .809-.224c.664 0 1.257.41 1.476 1.019a.515.515 0 0 0 .328.313.53.53 0 0 0 .455-.06c.356-.232.79-.31 1.222-.22.563.118 1.044.581 1.17 1.127.297 1.283-1.053 2.335-2.38 1.678zm2.423 5.284h2.086v7.668h-2.086v-7.668zm4.172 8.175c0 .84-.702 1.524-1.565 1.524h-2.607v-1.016h2.607a.515.515 0 0 0 .522-.508v-8.683a.515.515 0 0 0-.522-.508h-2.607V9.191h2.607c.863 0 1.565.684 1.565 1.524v8.683z"/></symbol><symbol viewBox="0 0 26 26" id="icon-cafe"><path d="M24.7 0H1.3a1.3 1.3 0 1 0 0 2.6h5.633v3.595C1.976 9.545.674 16.278 4.025 21.233c3.35 4.956 10.085 6.258 15.042 2.908 4.957-3.35 6.259-10.082 2.908-15.038a10.832 10.832 0 0 0-2.908-2.908V2.6H24.7a1.3 1.3 0 1 0 0-2.6zm-1.733 15.163c0 5.503-4.463 9.964-9.967 9.964-5.504 0-9.967-4.461-9.967-9.964S7.496 5.199 13 5.199c5.502.006 9.96 4.463 9.967 9.964zM7.8 5.665V2.599h10.4v3.066a10.812 10.812 0 0 0-10.4 0zm16.9-3.932H1.3a.433.433 0 1 1 0-.867h23.4a.433.433 0 1 1 0 .867z"/><path d="M7.8 12.13v3.466a4.76 4.76 0 0 0 2.037 3.9H7.8a1.3 1.3 0 1 0 0 2.598h10.4a1.3 1.3 0 1 0 0-2.599h-2.034a4.762 4.762 0 0 0 2.012-3.466h.455a2.167 2.167 0 1 0 0-4.332h-.513a1.3 1.3 0 0 0-1.22-.866H9.1a1.3 1.3 0 0 0-1.3 1.3zm10.4.433h.433a1.3 1.3 0 1 1 0 2.6H18.2v-2.6zm0 7.798a.433.433 0 0 1 0 .867H7.8a.433.433 0 1 1 0-.867h10.4zm-.867-8.23v3.465a3.904 3.904 0 0 1-3.9 3.9h-.866a3.904 3.904 0 0 1-3.9-3.9V12.13c0-.239.194-.433.433-.433h7.8c.24 0 .433.194.433.433zm-3.692-5.633h-.867a.451.451 0 0 1-.126.324 1.337 1.337 0 0 0 0 1.662.48.48 0 0 1 0 .65 1.29 1.29 0 0 0-.29.83h.867a.45.45 0 0 1 .127-.324 1.338 1.338 0 0 0 0-1.663.479.479 0 0 1 0-.65c.19-.234.293-.527.29-.829zM9.759 9.964h.866a.45.45 0 0 1 .127-.324 1.338 1.338 0 0 0 0-1.663.479.479 0 0 1 0-.65c.19-.234.293-.527.29-.829h-.867a.451.451 0 0 1-.127.324 1.337 1.337 0 0 0 0 1.662.48.48 0 0 1 0 .65 1.29 1.29 0 0 0-.29.83zm5.2 0h.866a.45.45 0 0 1 .127-.324 1.338 1.338 0 0 0 0-1.663.479.479 0 0 1 0-.65c.19-.234.293-.527.29-.829h-.867a.451.451 0 0 1-.127.324 1.337 1.337 0 0 0 0 1.662.48.48 0 0 1 0 .65 1.29 1.29 0 0 0-.29.83z"/></symbol><symbol viewBox="0 0 25 27" id="icon-hall"><path d="M12.346 1.454L6.841.014a.462.462 0 0 0-.05-.01L6.778.003A.426.426 0 0 0 6.736 0H6.727a.433.433 0 0 0-.065.006l-.007.001a.434.434 0 0 0-.122.04l-.008.005a.426.426 0 0 0-.051.032L6.467.09a.418.418 0 0 0-.088.091l-.004.007a.409.409 0 0 0-.03.053L6.34.25a.412.412 0 0 0-.022.059l-.443 1.613a.416.416 0 0 0 .413.525.425.425 0 0 0 .413-.31L7.033.928l4.679 1.224-1.242 4.522H5.456l.802-2.924a.406.406 0 0 0-.042-.317.422.422 0 0 0-.37-.209.427.427 0 0 0-.413.31L4.497 6.94a.407.407 0 0 0-.023.085l-.516 1.881a3.111 3.111 0 0 0 .327 2.427c.366.618.92 1.088 1.584 1.356l-2.063 7.517-1.788 1.007-1.48-.387a.429.429 0 0 0-.523.295.416.416 0 0 0 .302.511l6.606 1.728a.426.426 0 0 0 .523-.295.416.416 0 0 0-.302-.511l-1.48-.387-1.032-1.745 2.063-7.517a3.318 3.318 0 0 0 2.067-.402 3.19 3.19 0 0 0 1.526-1.941l2.36-8.598a.416.416 0 0 0-.302-.511zM3.186 21.52l.83-.468.48.81-1.31-.342zm6.277-11.173a2.357 2.357 0 0 1-1.129 1.435c-.56.316-1.213.4-1.838.236a2.4 2.4 0 0 1-1.47-1.101 2.3 2.3 0 0 1-.243-1.794l.444-1.614h5.015l-.78 2.838zm15.522 14.4a.428.428 0 0 0-.523-.295l-1.48.387-1.788-1.007-2.064-7.518c1.497-.604 2.342-2.215 1.912-3.783L19.42 6.62a.426.426 0 0 0-.524-.295.423.423 0 0 0-.26.194.405.405 0 0 0-.042.317l.416 1.517h-5.014l-.708-2.577 4.68-1.224.184.672a.426.426 0 0 0 .523.295.416.416 0 0 0 .302-.511l-.295-1.075v-.002a.416.416 0 0 0-.022-.057l-.004-.01a.413.413 0 0 0-.03-.054l-.005-.006a.421.421 0 0 0-.09-.092l-.004-.003a.432.432 0 0 0-.054-.034l-.004-.003a.435.435 0 0 0-.126-.042h-.004a.433.433 0 0 0-.067-.006h-.006a.427.427 0 0 0-.045.003l-.012.001a.459.459 0 0 0-.041.008l-.01.002h-.003l-5.501 1.44a.416.416 0 0 0-.302.51l2.36 8.599c.392 1.427 1.72 2.37 3.166 2.37.141 0 .284-.009.427-.027l2.063 7.517-1.032 1.745-1.48.387a.416.416 0 0 0-.302.51.426.426 0 0 0 .523.296l4.952-1.296h.001l1.653-.432a.416.416 0 0 0 .302-.511zM15.537 13.97l-1.312-4.78h5.014l.977 3.559c.346 1.26-.423 2.558-1.712 2.895-1.29.338-2.62-.412-2.967-1.672zm4.967 11.516l.48-.81.83.467-1.31.343z"/></symbol><symbol viewBox="0 0 14 16" id="icon-next"><path fill-rule="evenodd" clip-rule="evenodd" d="M11 7.93L2 2.734v10.392l9-5.196zm2.5.866a1 1 0 0 0 0-1.732L1.5.135a1 1 0 0 0-1.5.866v13.857a1 1 0 0 0 1.5.866l12-6.928z"/></symbol><symbol viewBox="0 0 14 16" id="icon-prev"><path fill-rule="evenodd" clip-rule="evenodd" d="M3 8l9 5.196V2.804L3 8zM.5 7.134a1 1 0 0 0 0 1.732l12 6.928a1 1 0 0 0 1.5-.866V1.072a1 1 0 0 0-1.5-.866L.5 7.134z"/></symbol><symbol viewBox="0 0 26 26" id="icon-rest"><path d="M18.412 8.763l-.279-.916a1.99 1.99 0 0 0-3.766 0l-.279.916a5.143 5.143 0 0 0-.143 2.383c.128.67.552 1.244 1.155 1.562l-.312 6.965c-.042.39.084.777.347 1.067a1.514 1.514 0 0 0 2.234 0c.256-.282.382-.658.346-1.038l-.313-6.995a2.241 2.241 0 0 0 1.153-1.56c.14-.796.09-1.612-.143-2.384zm-.71 2.232a1.377 1.377 0 0 1-.9 1.036.433.433 0 0 0-.28.425l.329 7.315a.5.5 0 0 1-.13.392.67.67 0 0 1-.942 0 .52.52 0 0 1-.127-.42l.326-7.287a.433.433 0 0 0-.28-.425 1.374 1.374 0 0 1-.9-1.036 4.273 4.273 0 0 1 .12-1.978l.278-.916a1.124 1.124 0 0 1 2.108 0l.278.916a4.28 4.28 0 0 1 .12 1.978zM11.7 6.5a.433.433 0 0 0-.433.433v3.72l-1.173 1.174a.433.433 0 0 0-.127.328l.379 7.583a.59.59 0 0 1-.164.442.61.61 0 0 1-.863.004l-.004-.004a.59.59 0 0 1-.163-.442l.381-7.583a.433.433 0 0 0-.126-.328l-1.174-1.173v-3.72a.433.433 0 0 0-.866 0v3.9c0 .114.045.224.127.306l1.164 1.164-.37 7.392a1.464 1.464 0 1 0 2.924 0l-.37-7.392 1.164-1.164a.433.433 0 0 0 .127-.307v-3.9A.433.433 0 0 0 11.7 6.5z"/><path d="M9.1 6.5a.433.433 0 0 0-.433.433V10.4a.433.433 0 0 0 .866 0V6.933A.433.433 0 0 0 9.1 6.5zm1.3 0a.433.433 0 0 0-.433.433V10.4a.433.433 0 0 0 .866 0V6.933A.433.433 0 0 0 10.4 6.5z"/><path d="M13 0C5.82 0 0 5.82 0 13s5.82 13 13 13 13-5.82 13-13C25.992 5.824 20.176.008 13 0zm0 25.133C6.299 25.133.867 19.701.867 13 .867 6.299 6.299.867 13 .867 19.701.867 25.133 6.299 25.133 13 25.126 19.698 19.698 25.126 13 25.133z"/><path d="M14.407 21.134a.433.433 0 0 0-.474-.389l-.017.002h.002c-.61.07-1.226.07-1.836 0a.433.433 0 0 0-.101.86c.676.08 1.36.08 2.037 0a.433.433 0 0 0 .389-.473zM19.63 7.416a.433.433 0 0 0-.61-.054l-.002.002a.433.433 0 0 0-.052.61 7.8 7.8 0 0 1-.46 10.55.433.433 0 1 0 .612.615 8.667 8.667 0 0 0 .512-11.723zm-9.534-1.688zm4.948-1.153a8.743 8.743 0 0 0-5.1.314.433.433 0 0 0 .303.81 7.872 7.872 0 0 1 4.593-.281.433.433 0 1 0 .204-.843zM7.475 18.503A7.75 7.75 0 0 1 5.2 13a7.742 7.742 0 0 1 1.491-4.588.433.433 0 1 0-.7-.51 8.667 8.667 0 0 0 .87 11.215.434.434 0 1 0 .614-.614z"/></symbol><symbol viewBox="0 0 190 67" id="logotip"><path fill-rule="evenodd" clip-rule="evenodd" d="M102.226 43.147c-.011.085-.021.372-.032.447l-.032.19c-.097.33-.097.224-.15.298l-2.07 11.528h8.877c.386-.18 1.105-1.243 1.373-1.593.461-.606.825-1.063 1.233-1.594.836-1.073 1.629-2.104 2.476-3.177 1.351-1.7 3.399-4.516 4.696-6.046l.408-.35-2.423 12.728c.954.096 8.705.128 9.348-.042l5.35-30.249h-8.93c-.419.096-8.363 10.36-9.414 11.592-.107.244-.021.16-.268.265.011-.202-.032-.138.022-.36.139-.564 0-.118.171-.32-.085-1.36 1.609-8.755 1.78-11.177l-9.006-.01c-.289.18-.118-.117-.268.424-.043.139-.075.425-.096.585l-.633 3.442c-.343 1.88-2.358 12.484-2.412 13.42zm41.555-17.871l-9.016.032-5.329 30.302h8.942c.321-.202.246-.276.321-.743l.429-2.497c.504-2.88 1.147-7.246 1.716-9.743l7.215.01-2.252 12.973h9.403c.354-.106.772-3.39.825-3.718l3.978-22.493c.193-1.084.386-2.794.697-3.74l-9.606.01-1.544 8.99a.171.171 0 0 1-.086.031l-7.258.064 1.565-9.478zm46.219.67v-.266c-.236-.01-8.781-.117-9.402.032l-1.726 9.052-7.344-.01 1.565-9.478-9.017.032-5.328 30.302 9.124-.032 2.273-12.951 7.226.032-2.252 12.951 9.531-.042c.204-.457 1.18-6.407 1.362-7.416l2.616-14.854c.225-1.232 1.029-6.683 1.372-7.352z"/><path fill-rule="evenodd" clip-rule="evenodd" d="M84.107 40.959l1.244-7.99c1.33-.128 4.674-.191 5.618.34 2.283 1.264 2.37 6.024-1.19 7.363-1.244.467-4.117.297-5.672.287zm-1.34 7.182c2.638-.106 5.393.223 7.923-.276 14.238-2.773 13.434-20.092 3.602-22.344-2.015-.457-5.725-.234-7.976-.234-2.573 0-5.564-.138-8.073.01-.193.32-5.329 27.954-5.586 30.313l8.652-.032 1.458-7.437z"/><path fill-rule="evenodd" clip-rule="evenodd" d="M88.653 15.576l-23.586.021-7.162 40.013 10.678-.01 5.757-31.94 12.866-.02 1.447-8.065zM20.52 45.368c.558-.69 2.177-2.773 2.498-3.57H7.408c-.353.053-1.597 1.572-1.833 1.838A30.074 30.074 0 0 1 3.838 45.4L0 48.736l17.615.021c-.172.34-1.319 1.477-1.63 1.806-1.511 1.626-4.127 3.878-5.124 5.005 2.197.18 18.665.042 22.246.042 2.584 0 7.215-1.477 9.338-2.38a25.607 25.607 0 0 0 3.806-1.976c.665-.404 2.948-1.987 3.216-2.518l-31.702-.021 2.755-3.347zM6.025 28.655l21.85.01c.44-.084 1.03-2.4 1.169-2.879.31-1.052.59-2.199.836-3.325 1.04-4.77 1.565-10.126 1.415-15.056C31.285 6.8 30.909.67 30.373 0l-2.166 4.356c-2.927 5.302-6.893 11.21-11.139 15.31-3.056 2.954-3.699 3.73-7.055 6.301l-3.988 2.688zM55.74 38.982l.224-.669c.193-1.456.547-2.624.665-4.24a22.366 22.366 0 0 0-.193-4.727c-.654-4.43-2.166-6.45-2.337-7.448-.665.138-3.838 1.753-6.904 2.284.096.808.503 1.998.696 2.922a24.83 24.83 0 0 1 .45 3.155c.322 3.772-.246 4.686-.214 6.64.45.203 1.405.394 1.93.543l5.596 1.965.086-.425zM38.178 25.595c-.107.648.257 3.761.3 4.739.075 1.71.043 3.347 0 5.047 3.613.223 6.68 1.115 8.577 1.264.88-4.718.086-7.884-.89-12.144-.804-.021-2.937.488-3.892.627a64.372 64.372 0 0 1-4.095.467z"/><path fill-rule="evenodd" clip-rule="evenodd" d="M36.602 47.578h5.157c1.04.01 1.008-.361 1.436-1.03.333-.532.622-1.02.922-1.563.933-1.7 2.488-5.057 2.713-7.278-2.209-.616-6.015-1.168-8.427-1.296-.096 1.955-.343 3.963-.665 5.865l-1.136 5.302zm.697-11.241c-1.115-.287-6.947-.361-8.298-.266.203 2.54 1.833 9.456 2.766 11.507l3.688-.032c.675-1.87 2.133-9.382 1.844-11.21zm-13.026 3.602c.568-1.127 2.165-3.517 2.465-4.739H12.276c-.45 1.02-3.206 4.26-3.313 4.717l15.31.022zm7.011-14.079c-.257.553-.493 1.743-.675 2.38l-1.533 4.442c-.311.754-.644 1.456-.172 2.274l8.524.308c.096-3.283.053-5.313-.247-8.479-.01-.17-.021-.436-.054-.595l-.118-.393c-.021-.18-5.189.053-5.725.064zm4.868-11.495l-.258.117.097.329c0 .69.9 3.719 1.115 4.739.171.807.332 1.615.472 2.454.118.648.235 1.944.418 2.507 1.061.139 6.99-.69 7.74-1.115-.257-1.307-1.876-4.25-2.53-5.28-.89-1.414-3.356-4.42-3.366-4.431-1.04.032-2.38.637-3.688.68zm4.706-1.105c.193.382.547.67.858 1.041 2.037 2.529 4.095 5.684 5.06 8.85.74.022 2.745-.648 3.495-.892l3.174-1.35c-.622-1.455-3.152-4.377-4.181-5.29-1.062-.935-3.978-3.294-5.693-3.868-.472.266-.837.542-1.297.786-.397.213-1.04.478-1.416.723zm2.948 34.307c.687.022 6.551.128 6.97-.053.707-.297 3.912-5.015 4.47-7.15-1.372-.308-4.482-1.966-7.398-2.402-.246 1.668-.997 3.783-1.64 5.26-.729 1.657-2.305 4.111-2.401 4.345zM27.307 33.755c.407-.191.107.074.343-.361l.6-1.424c.215-.52.58-1.35.73-1.934l-13.724.032c-.536.383-.729 1.35-1.008 1.88-.246.468-.847 1.371-.954 1.807h14.013zm.75 2.635c-.14-.138-.075.223-.16-.308l-.354.085c-1.137 2.008-2.059 3.9-3.249 5.737-1.361 2.093-1.554 1.838-.986 2.89.525.967 1.158 1.902 1.747 2.784h5.532c-.096-.67-.59-1.88-.793-2.667-.46-1.753-1.812-7.278-1.737-8.521zm3.517-11.613c1.072.074 4.342.085 5.285-.149.14-1.296-1.587-9.126-2.165-10.072l-1.716.138c-.236.478-.482 4.303-.61 5.27-.119.86-.837 4.377-.794 4.813zm119.819-.659h6.658c.568 0 1.136-.01 1.705 0 1.479.01 1.168.043 1.275-.361.204-.68.301-2.008.483-2.826l-9.617.01-.504 3.177zM32.978 11.815l-.01 1.785c3.087-.021 7.483-.808 9.423-2.37-.814-.839-6.754-2.188-8.49-2.273l-.676-.043c-.268.765.096 2.157-.247 2.9zm134.39 45.782l-9.124.032-.515 3.145 9.178-.053.461-3.124zM152.165 19.39h9.692c-.043-.637.139-1.509.332-2.082l-9.691-.021-.333 2.103zm14.506 42.935h-9.199l-.279 2.093 9.156.01.322-2.103zM15.3 65.088c-.044.52 0 .127.074.297l.815-.021.943-5.685-1.533.011c-.61.733-1.179 2.911-1.8 3.75l-.537-3.76-1.469.02c-.182.628-.997 5.27-.943 5.738.975.01.654.149 1.104-2.327.075-.446.504-2.592.504-2.73l.697 5.046c.761.043.665-.329.954-.966l1.93-4.017-.74 4.644zm108.765-.192l-.064.457.707-.096.901-4.887.686 5.036c.815.117.847-.722 1.565-2.23.408-.84.794-1.988 1.298-2.668-.108 1.2-.847 4.006-.751 4.93 1.19 0 .847.393 1.362-2.529.139-.786.525-2.539.504-3.23l-1.534-.01c-.289.489-1.436 2.975-1.543 3.506l-.15.308c-.161-.17-.108.255-.172-.319l-.472-3.485c-1.2-.042-1.393-.159-1.544.298l-.793 4.92zm-83.796-.754l.514-3.092c.847-.032 1.147.818.965 1.721-.171.86-.59 1.212-1.48 1.37zm-.89-.361l-.097.382-.31-.149c-.655-.34-.89-.892-.612-1.87.204-.711.665-1.051 1.448-1.158l-.43 2.795zm1.63-3.538c-.076-.436.117-.66-.172-.744-.922-.255-.88.584-.912.67-1.404.36-2.208.647-2.551 1.997-.397 1.604.322 2.412 1.726 2.709l-.054.733c1.33 0 .815-.021 1.105-.67 1.383-.35 2.219-.669 2.54-1.997.386-1.572-.31-2.433-1.683-2.698zm66.621-44.338c0-.308.085-.17-.172-.287l-.622.011c-.161.765-.171.648-.579 1.169l-2.358 3.145c.107-.988.804-3.666.696-4.388l-.847.021-1.211 6.726c1.211.01.783-.011 1.115-.66.257-.499 2.423-3.155 2.777-3.814l-.794 4.463c.89.021.901.138 1.04-.701l.429-2.391c.15-.85.558-2.529.526-3.294zm39.024.149l.076-.435-.89.02-1.105 6.089-.042.531h.879c.128-.744.879-1.604 1.308-2.157.375-.489 1.265-1.615 1.49-2.104.032-.085.043-.212.096-.276.022.032.408-.127 0 .35l-.739 4.23h.932c.225-1.584 1.233-5.632 1.158-6.747l-.815.01c-.353.988-2.294 3.676-3.002 4.463l.654-3.974zm-5.66 3.783l-.108.318c-.085-.17-.118-.17.033-.372l.696-4.218c-1.136 0-.9-.17-1.211 1.605l-.911 5.131c1.211 0 .772-.01 1.104-.658l2.777-3.772-.783 4.43.901-.01 1.179-6.726-.815-.01c-.311.627-.107.542-.6 1.18l-1.533 2.082c-.258.35-.451.69-.729 1.02zm-24.959 2.018l-.054.404.944-.096c0-.637 1.04-1.795 1.404-2.305.493-.67 1.051-1.328 1.501-2.04l-.804 4.483c.933.011.901.117 1.04-.722.204-1.169 1.083-5.514 1.008-6.014l-.815.022c-.493 1.646-2.176 2.826-2.734 4.207l-.236.297c-.01-.02-.043.043-.075.064.043-.425-.043-.212.161-.467-.021-1.137.729-3.113.622-4.133l-.858.01-1.104 6.29zM59.567 60.158l.085-.447-.954.117-.954 5.61h3.945l-.085 1.2c.76.022.697.139.814-.637.054-.33.097-.627.15-.977l.033-.436c-.45 0-.322.053-.654-.117.043-.382-.022-.287.193-.53l.61-4.272-.932.032-.89 4.845-2.058-.011.697-4.377zm3.677 4.76l-.086.467c.483 0 .515.064.954-.128.258-.828 2.348-2.698 2.96-3.665l-.612 3.846c.9 0 .9.202 1.04-.69.172-1.052.75-3.794.697-4.463l.097-.531-.89.01c-.193.638-.247.595-.611 1.031l-2.327 2.678c.097-1.01.643-2.965.568-3.804-.922 0-.91-.191-1.05.712-.172 1.084-.74 3.846-.74 4.537zm46.744-3.188l.215-.255c-.065.542.01.18-.161.308l-.579 3.644h.9c.215-.595.933-4.717.901-5.28l-.054-.425-.793.064c-.139.765-.943 1.37-1.415 1.944-.504.616-1.008 1.158-1.512 1.806.064-.977.536-2.38.483-3.283l.096-.542-.943.107c-.172.903-.976 4.983-.901 5.62h.858c.386-.956.643-1.02 1.415-1.965l1.49-1.743zm-84.922-1.2c2.24-1.116 1.672 3.484.547 4.058-2.166 1.105-1.94-3.378-.547-4.058zm2.487 2.709c1.105-4.197-3.43-5.164-4.47-1.37-1.126 4.09 3.452 5.205 4.47 1.37zm43.389-2.752c2.187-.999 1.683 3.697.418 4.154-2.262.818-1.683-3.58-.418-4.154zm2.53 2.412c.729-4.186-3.849-4.622-4.61-.744-.815 4.165 3.924 4.696 4.61.744zm-39.507-2.327c1.114-.754 1.65.457 1.597 1.53-.172 3.39-2.755 3.379-2.648.903.043-.977.29-1.923 1.05-2.433zm2.594 2.327c.761-4.154-3.849-4.654-4.61-.723-.804 4.07 3.87 4.739 4.61.723zm84.333-2.38c2.112-1.084 1.844 3.336.546 4.059-2.101 1.168-2.037-3.294-.546-4.06zm2.476 2.72c1.126-4.24-3.527-5.153-4.481-1.296-1.008 4.026 3.463 5.12 4.481 1.296zM136.63 16.15l.107-.531-.89.02-1.093 6.142-.054.478h.879c.268-1.328.226-1.955 1.555-3.22.3.468.536 2.572.633 3.262h.964c-.128-1.264-.632-2.826-.707-3.984-.064-.935 1.458-1.965 1.683-2.752-.804-.02-.858-.106-1.265.457l-2.048 2.71c-.182.201-.043.053-.193.18l.429-2.762zm-37.074 2.443l.311-2.029c1.083-.096 1.973-.149 1.759 1.169-.172 1.01-1.062.903-2.07.86zm-1.715 3.709l.986-.011.483-2.667c1.093-.085 3.248.414 3.323-2.2.065-2.135-1.661-1.965-3.527-1.848l-1.265 6.726zM93.874 64.95l-.075.435.922-.021c.054-.298.322-2.061.397-2.2.182-.393 1.694-.244 2.176-.19l-.364 2.464.911-.021c.193-.701 1.008-5.206.954-5.738-.9-.01-.986-.51-1.319 2.349h-2.165l.364-2.338-.91-.021c-.205.616-.923 4.717-.89 5.28zm36.27-48.365c.118-.499.193-.563.129-1.03l-3.228.021-1.2 6.736 3.355-.042.172-1.02-2.412-.011.332-1.87c1.973 0 2.134.297 2.069-.999l-1.876-.01.3-1.743 2.359-.032zm-77.986 43.69l.097-.564-.944.107c-.525 2.773.193 2.22-2.54 2.199l.332-2.348c-1.062 0-.922-.16-1.083.882-.16 1.084-.826 4.239-.783 4.887l.922-.032.472-2.454h2.112l-.332 2.486c.89 0 .9.202 1.04-.69.171-1.074.729-3.815.707-4.474zm21.904 4.781l-.033.329.922-.032c.043-.297.311-2.03.386-2.189.183-.393 1.694-.233 2.177-.201l-.365 2.475.912-.021c.193-.638 1.007-5.249.954-5.748-.976 0-.9-.17-1.062.807-.085.553-.193 1.031-.246 1.552H75.54l.365-2.349-.955-.01-.89 5.387zm59.609-.096l-.064.425.922-.032.943-5.652-3.012-.032c-.14 0-.418-.01-.547.01l-.182.043c-.483.117-1.158 5.546-1.137 5.716l.933-.01.858-4.898 1.951-.011c-.064 1.328-.729 3.294-.665 4.441zM22.375 60.168l.075-.457-.933.096c-.503 2.752.161 2.231-2.54 2.22l.214-1.72.096-.574-.922.127c-.182.648-.964 5.058-.922 5.578 1.608 0 .644 0 1.394-2.497l2.112.011-.386 2.475.954.011.858-5.27zm126.542 5.259c0-.85-.74-2.486-.901-3.41-.086-.553.429-.84.761-1.2.365-.394.493-.638 1.008-1.127-.847-.042-.943-.149-1.362.319-.514.595-1.908 2.252-2.315 2.56l.429-2.9c-1.04 0-.912-.16-1.083.882a44.37 44.37 0 0 1-.279 1.636c-.129.765-.547 2.603-.504 3.251l.911-.032c.183-.67.108-1.18.483-1.657l1.115-1.105.804 2.794.933-.01zm-37.053-44.985l-.643-.35c-.525.584-.515 1.391-1.597 1.296-1.126-.68-.633-2.603-.247-3.75.547-1.669 2.026-1.818 2.144.286l.836-.16c.054-1.434-.793-2.89-2.401-2.252-.965.383-1.64 1.732-1.887 3.081-.847 4.707 2.991 4.92 3.795 1.85zm4.235 42.287l.15-.17.097.223.707 2.656h.944c.021-.807-.751-2.497-.879-3.357-.129-.882 1.351-1.573 1.661-2.39-.847-.054-.868-.128-1.275.318-.622.67-1.759 2.146-2.316 2.571l.429-2.9c-1.072-.022-.912-.15-1.083.87-.086.575-.182 1.085-.279 1.648-.129.722-.547 2.635-.504 3.25l.912-.042c.278-.956-.011-1.455 1.436-2.677zm-59.256 2.709c.022-.776-.75-2.497-.879-3.357-.096-.606.408-.935.783-1.328.096-.096.793-.872.868-1.063-.857-.053-.847-.127-1.265.33-.59.626-1.822 2.21-2.316 2.56.097-.776.483-2.231.43-2.911l-.923-.01-.943 5.78.9-.022c.204-.68.108-1.158.494-1.658.203-.276.847-.956 1.115-1.115l.793 2.783.944.011zm76.603-45.358c-.568 2.04-2.734 1.966-2.005-1.423.161-.786.472-1.88 1.019-2.146 1.275-.638 1.222.85 1.49 1.402l.75-.18c.032-1.424-.825-2.9-2.444-2.2-.911.404-1.608 1.754-1.844 3.103-.879 4.802 3.13 4.75 3.784 1.796l-.75-.351zM80.698 63.239c.16-.616.804-1.902 1.137-2.454l.364 2.454h-1.501zm-1.211 2.2c.386-.203.493-.734.825-1.382l1.984.01.235 1.35 1.019.106c.043-.605-.697-5.418-.912-5.716-.225-.191.15-.01-.225-.106-.128-.032-.171-.032-.3-.043-.16 0-.44.01-.654 0l-2.68 5.77.708.01zm10.635-.904c0-.202.171-1.456.236-1.594.14-.308.15-.223.61-.233 2.048-.022 1.598 1.827 0 1.838l-.846-.011zm.772-4.824c-1.201-.19-.933-.233-1.394 2.402-.118.711-.568 2.751-.525 3.314 1.758.054 3.591.287 4.18-1.158.301-.711.215-1.625-.267-2.029-.515-.457-1.523-.361-2.337-.361l.343-2.168zm53.702-.042l-3.42.032c-.193.722-.997 5.195-.943 5.737 3.709.021 3.516.35 3.666-.903l-2.573-.01.29-1.584 2.058-.085.118-.786h-1.994c-.097-2.157.686-1.424 2.723-1.509l.075-.892zm-42.885 4.813c-.31.138-.31.117-.729.117-.235 0-.461-.01-.696-.032-.011-.393-.065-.361.171-.616-.021-.585-.064-1.19.525-1.243.665-.064 1.062.063 1.426.34.215.743 0 1.306-.697 1.434zm-.643-4.813c-1.072 0-.922-.16-1.083.882-.171 1.062-.825 4.25-.782 4.876 1.608.043 3.527.287 4.149-1.083.343-.755.203-1.743-.311-2.146-.568-.436-1.512-.298-2.284-.33l.311-2.2zm51.687-43.785h9.499c.343-.085.225-.064.375-1.169-1.651-.031-8.566-.212-9.703.064l-.171 1.105zm-28.679 3.751l.096.223-.332 2.061-.032.34c.589 0 .579.096.986-.18-.129-1.53 1.169-5.058 1.051-6.524l-.826.021c-.225.701-.343 1.636-.482 2.444-.225 1.243-1.415 1.264-1.737.998-.611-.499.343-2.38.204-3.463l-.815.021c-.182.595-.633 2.911-.536 3.538.289 1.934 2.423.52 2.423.52zm29.086 43.923c-.429.425-.718 1.423-1.737 1.062-.739-.266-.761-1.35-.589-2.231.16-.808.45-1.7 1.029-1.913 1.029-.382 1.437.372 1.522 1.222l.89-.16c-.107-2.9-3.935-2.72-4.503.702-.664 3.942 3.152 4.314 4.106 1.626l-.718-.308zM93.928 21.76l-.054.499.622-.01c1.158-.139 1.812-2.03 2.327-3.082.353-.712 1.65-3.06 1.726-3.612l-.815.021-1.555 3.092c-.14.255.15.17-.182.223l-.043-.361-.6-2.975-.922.01c-.065 1.583 1.319 4.357.675 5.28-.6.883-1.061-.137-1.18.915zM156.689 67l9.242-.043.129-1.136-9.188.02-.183 1.159zm-70.084-6.152c.14-.191.011-.127.247-.17l.021.34.472 4.26 1.061.128-.042-.552-.654-5.175h-1.265c-.29.447-2.51 5.398-2.563 5.78l.89-.042 1.833-4.569zm51.987 4.484l1.04.064-.043-.457-.707-5.26-1.233-.02-2.509 5.78h.825c.622-.978 1.501-4.134 2.08-4.771l.547 4.664zm-95.568-.404l-.064.478.847-.053c1.05-.18 1.65-1.742 2.187-2.645.321-.563 1.533-2.593 1.63-3.029l-.848-.01c-.429.701-1.115 2.306-1.619 2.773-.45-.754-.503-1.998-.922-2.773l-.975.01c.043 1.148 1.394 3.666 1.072 4.304-.257.52-.611.52-1.255.584l-.053.361zm47.73-43.137l-.064.468c.525 0 .611.064.976-.128l1.008-5.503 1.275-.01.15-1.063-3.548.01-.15 1.052 1.265.021-.912 5.153zm25.581-5.174c.161-.425.139-.627.247-1.062l-3.624.021-.15 1.041h1.276l-1.008 5.684c.986 0 .922.107 1.061-.637l.912-5.047h1.286zM28.24 64.928l-.086.457.954-.096.858-4.717 2.015-.021.075-.882h-2.948l-.869 5.26zm75.712.51c1.051.01.922.149 1.083-.903.172-1.137.804-4.144.783-4.866l-.912.032c-.203.722-1.007 5.185-.954 5.737zM22.193 45.05c-.376.424-1.64 2.114-1.834 2.528l3.399-.01c-.107-.277-1.394-2.391-1.565-2.519zm127.185-31.44c-.965-.117-.279.479-1.115.595-.386.053-.408 0-.59-.233-.268-.351.139-.404-.536-.362-.568 1.467 1.79 2.008 2.241 0zm-40.977 44.37c-.3 1.71 2.327 1.391 2.348 0-1.029.02-.171.648-1.629.51-.418-.532.021-.5-.719-.51z"/><path fill-rule="evenodd" clip-rule="evenodd" d="M32.978 11.815c.343-.744-.021-2.136.247-2.9l.675.042c-.043-.022.022-.075-.321-.138-.386-.064-.193-.022-.472.02l-.129 2.976zM19.19 60.306c.119-.148.054.181.172-.329.054-.266 0-.149-.01-.33-.44-.02-.869-.159-.987.213l.922-.127-.096.573zm68.155 4.973c.172.244-.096.276 1.136.191.033-.414.022-.35-.117-.616l.042.552-1.06-.127zm-35.187-5.004c.075-.085.193.116.161-.638-.129-.01-.46-.053-.579-.043-.471.043-.31-.031-.429.224l.944-.107-.097.564zm55.815-.022c.246-.244.182-.223.171-.605-.139-.022-.461-.064-.579-.054-.514.054-.321-.031-.439.224l.943-.107-.096.542zm-6.262 4.229h-1.361l.107-.531c-.236.255-.182.223-.171.616.235.021.461.032.696.032.419 0 .419.021.729-.117zm-72.603.808l-.954.095.085-.457c-.214.298-.15.16-.128.553.118.01.472.032.568.02.472-.042.31.054.429-.212zm87.817-43.127l-.944.096.054-.404c-.182.213-.15.085-.118.5l.772.053.236-.245zM59.567 60.158c.225-.277.15-.15.139-.521-.129-.01-.461-.053-.568-.043-.526.054-.322-.031-.44.234l.954-.117-.085.447zm-37.192.01c.215-.255.16-.127.15-.52-.14-.022-.429-.064-.568-.054-.504.043-.322-.031-.44.213l.933-.096-.075.457zm88.889-.021c.193-.202.139-.074.139-.5l-.643-.031c-.611.032-.171-.022-.343.17l.793-.064.054.425zm-43.067.138c.118-.138.043.191.161-.308.064-.266.01-.149 0-.33-.665-.031-.75-.095-.954.117l.89-.01-.097.531zm70.395 5.047c.279.255.729.18 1.126.117.011-.415.011-.33-.129-.51l.043.457-1.04-.064zM91.666 22.131c-.365.192-.45.128-.976.128l.064-.468c-.214.298-.139.075-.171.479.29.127.954.287 1.083-.139zM64.112 65.257c-.44.192-.471.128-.954.128l.086-.468c-.204.298-.16.16-.129.564.107 0 .504.032.58.032.492-.064.32.042.417-.256zm60.596 0l-.707.096.064-.457c-.054.085-.043-.064-.118.255-.075.266-.021.128 0 .308.44.022.633.15.761-.202zM136.63 16.15c.247-.266.204-.234.161-.627-.386-.021-.654-.096-.944.117l.89-.022-.107.532zM43.807 65.353l-.847.053.064-.478c-.15.191 0-.191-.129.223-.096.287-.021.138-.021.33.557.085.61.106.933-.128zm90.722 0l-.922.032.064-.425c-.193.202-.15.053-.15.489.182.032.354.064.547.053.407-.01.3.053.461-.149zm-39.808.011l-.922.021.075-.436c-.118.128-.053-.02-.14.213-.063.223-.01.138-.01.297.172.022.375.053.558.043.386-.01.29.053.44-.138zm50.851-43.105h-.879l.042-.531c-.311.52-.16.531-.16.542.461.201.879.106.911.032.021-.032.064-.022.086-.043zm-20.778-.181c-.407.277-.397.181-.986.181l.032-.34c-.172.276-.129.064-.097.446l.804.043.247-.33zm10.785.181h-.879l.054-.478c-.3.425-.161.478-.161.489.3.138.579.223.986-.011zM74.951 65.353l-.922.032.033-.33c-.161.234-.108 0-.108.404.161.022.365.053.536.043.408-.021.3.053.461-.149zm-58.762.011l-.815.021c-.075-.17-.118.223-.075-.297-.15.17-.107-.054-.118.36.182.033.343.065.536.054.386-.01.3.053.472-.138zm46.38-.34c.021-.032.053-.075.064-.096.236-.542.064-.01.075-.393l-.675-.053.107-.542c-.215.244-.15.149-.193.531.332.17.203.117.654.117l-.032.436zm84.085-48.97c.215-.265.151-.138.129-.52a3.079 3.079 0 0 0-.45-.043l-.493.149.89-.022-.076.436zm-39.024-.149c.096-.095.128.138.128-.35l-.643-.043c-.225.043-.172.053-.279.117l.622-.01c.257.116.172-.022.172.286zm-13.134 6.343l-.622.011.054-.5c-.064.096-.054.032-.15.277-.172.478.01-.202-.022.234.376.159.43.18.74-.022zm18.44 14.631c-.118-.192-.118.244-.075-.415-.171.202-.032-.244-.171.32-.054.222-.011.158-.022.36.247-.106.161-.02.268-.265zm-10.924 7.203c.053-.074.053.032.15-.297l.032-.191c.011-.075.021-.362.032-.447-.043.075-.054.01-.129.277l-.043.19c-.01.096-.032.362-.042.468zm25.184 19.093l-.322-.01c.064.573.011.148.172.318l.15-.308zm21.174-45.177l.096.075c.408-.478.022-.319 0-.35-.053.063-.064.19-.096.275zm-30.845 1.796c-.161.053-.096.074-.15-.106-.204.255-.118.042-.161.467.032-.021.065-.085.075-.064l.236-.297zM28.057 36.39l-.182-.383c-.525.022-.193 0-.332.16l.353-.085c.086.531.022.17.161.308zm58.548 24.458c.108.064.118.022.268.17l-.021-.34c-.236.043-.107-.021-.247.17zm9.575-42.18l-.226-.138.043.36c.332-.052.043.033.182-.222zM38.971 64.014l.311.15.097-.383c-.182.223-.086.16-.408.233zM35.99 14.811l-.096-.33.258-.116-.354.095c.118.542.064.223.193.351zm105.004 5.026l-.075-.054c-.151.202-.118.202-.033.372l.108-.319zM55.74 38.982c.16-.233-.012.255.181-.35.043-.138.022-.18.043-.319l-.225.67zm54.302 22.801c.171-.127.096.234.161-.308l-.215.255.054.053zm6.304.999l-.097-.223-.15.17.247.053z"/></symbol><symbol viewBox="0 0 45 45" id="view"><path d="M44.61 42.705L33.674 31.77a19.107 19.107 0 0 0 4.71-12.582C38.383 8.601 29.77 0 19.192 0 8.602 0 0 8.61 0 19.187c0 10.577 8.613 19.188 19.192 19.188 4.81 0 9.211-1.776 12.584-4.71l10.939 10.936c.26.26.608.399.948.399a1.349 1.349 0 0 0 .948-2.295zM2.686 19.187c0-9.1 7.405-16.493 16.497-16.493 9.101 0 16.497 7.404 16.497 16.493 0 9.09-7.396 16.504-16.497 16.504-9.092 0-16.497-7.404-16.497-16.504z"/></symbol></svg>