<svg version="1" xmlns="http://www.w3.org/2000/svg" width="933.333" height="933.333" viewBox="0 0 700.000000 700.000000"><path d="M375.5 10c.3.5-.1 1-1.1 1-1.4 0-1.4.3-.4 1.5 1.1 1.3 1 1.4-.4.9-1.3-.5-1.6 0-1.6 2.5 0 1.7-.5 3.1-1.1 3.1-.5 0-.7-.5-.3-1.2.4-.7.3-.8-.4-.4s-1.2 2.1-1.2 3.7-.6 3.2-1.4 3.5c-.8.3-1.3 1.4-1.1 2.5.2 1.1-.2 2.2-1 2.6-.8.3-1.5 1.6-1.5 2.8 0 1.3-.4 2.7-1 3-.6.4-.7-.1-.3-1.1.4-1.2.3-1.5-.5-1-.7.4-1.2 1.8-1.2 3.2 0 1.4-.7 3.2-1.5 4.1-.8.8-1.3 1.9-1 2.4.4.5-.2.9-1.2 1-1 0-1.3.3-.5.6.6.2 1.2.9 1.2 1.4 0 .4-.7.5-1.7.2-1-.4-1.4-.2-1 .4.4.5 0 1.9-.8 2.9s-1.5 3.1-1.5 4.5c0 1.5-.7 2.9-1.5 3.3-.8.3-1.5 1.5-1.5 2.6 0 1.2-.4 1.8-1 1.5-.9-.6-1.4 1.1-1.3 4.3.1.9-.3 1-1.1.3s-1.2-.3-1.4 1.6c-.1 1.5-.6 2.9-1.1 3.3-.5.3-1.1 1.2-1.3 2-.2.8-1.1 2.1-2.1 2.9-1 .7-1.6 2-1.3 2.8.4 1 .2 1.3-.7 1-.8-.3-1.4.3-1.4 1.6-.1 1.1-.9 2.5-1.8 2.9-.8.5-1.5 1.8-1.5 2.8 0 1.1-.5 2-1.1 2-.6 0-.9.7-.5 1.5.3.8.1 1.5-.4 1.5-.6 0-1 .7-1 1.6 0 .8-.4 1.2-1 .9-.8-.5-1.2 1.3-.9 4.2 0 .4-.7 1-1.6 1.3-.9.3-1.5.9-1.3 1.2.2.4-.6 1.4-1.7 2.3-1.1.9-1.4 1.3-.7 1 1.1-.6 1.1-.3.1 1.3-.7 1.2-1.8 2-2.3 1.9-.6-.1-1 .7-1.1 1.8 0 1.1-.5 1.9-1 1.8-.6-.1-1.2.8-1.2 1.9-.1 1.1-1 2.7-2 3.5-1.1.9-1.2 1.2-.3.8 1.2-.5 1.2-.4-.1.7-.9.7-1.4 1.9-1.2 2.6.3.8-.1 1-1.4.5-1-.3-1.5-.3-1.1.2.4.4-.1 1.9-1.2 3.3-1.1 1.3-1.7 2.8-1.4 3.3.3.5-.2.9-1 .9-.9 0-1.6.7-1.6 1.5 0 .7-.7 1.8-1.6 2.3-.9.5-1.7 1.3-1.7 1.8-.1.5-.5.8-.8.7-.4-.1-.6.3-.6 1 .1 3.7-.4 4.9-1.8 4.3-1.1-.4-1.5.2-1.5 2s-.4 2.5-1.4 2.1c-.9-.4-1.3 0-1.1 1.1.1.9-.6 2.5-1.7 3.5-1 1-1.6 2.2-1.3 2.8.4.5-.1.9-.9.9-.9 0-1.6.7-1.6 1.5 0 .7-.7 1.8-1.6 2.3-.9.5-1.7 1.3-1.7 1.8-.1.5-.5.8-.9.6-.8-.2-1.2 2.1-.9 4.7.2.7-.2 1.1-.7.8-1.1-.8-4.1 2.8-4.5 5.3-.4 2.3-1.7 3.9-1.7 2 0-.7-.3-1-.7-.6-.8.7-.9 1.1-1.2 3.7 0 .5-.5.7-1.1.4-.5-.3-1 .2-1 1.2s-.5 2.5-1.1 3.3c-.9 1.2-1 1.1-.5-.5.6-1.9.5-1.9-.7-.3-.8 1-1.8 1.4-2.3 1-.4-.4-.3 0 .4.9 1 1.4 1 1.8-.3 2.3-.9.3-1.3 1-1 1.6.3.5-.1 1-.9 1-.9 0-1.6.7-1.6 1.6 0 .8-.4 1.3-.9 1-.5-.3-1.4.8-2 2.4-.5 1.7-1.5 3-2 3-.6 0-1.1.7-1.1 1.5s-.4 1.5-1 1.5c-.5 0-1 .7-1 1.6 0 1.4-.2 1.5-1.7.3-1.3-1.1-1.5-1.1-.9-.1.5.8.1 2.2-1.1 3.4-1 1.2-1.2 1.8-.4 1.3 1-.5 1.2-.4.7.3-.4.7-1.7 1.2-2.9 1.2-1.6 0-1.8.3-.9.9 1 .6.8 1-1 1.5-1.9.5-2 .8-.8 1.6 1.3.8 1.2 1-.2 1-1 0-1.8.7-1.8 1.5s-.7 1.5-1.5 1.5-1.2.6-.9 1.4c.3.9-.1 1.3-1.2 1.3-1-.1-1.8.6-2 1.8-.1 1.1-1 2.5-1.8 3.1-.9.6-1.2 1.5-.8 2 .4.4-.2.2-1.2-.6-1.2-.9-1.7-1-1.3-.3.5.7-.1 2.1-1.3 3.3-1.1 1.1-2 2.6-2 3.2 0 .9-.4.8-1-.2-.9-1.3-1-1.3-1.1 0-.1.8-.1 2.1 0 2.7.1.8-.5 1-1.4.7-.9-.4-1.5-.1-1.5.9 0 .8-1.1 2.3-2.5 3.3s-2.5 2.7-2.5 3.7-.4 1.6-1 1.2c-1-.6-5 2.9-5 4.5 0 .5-.5 1-1.1 1-1.4 0-3.9 2.5-3.9 3.9 0 .6-.6 1-1.2.9-.7-.2-1.2.5-1.2 1.4.1 1-.2 1.5-.7 1.2-1.1-.6-7.9 5.8-7.9 7.5 0 .6-.8.7-1.7.4-1.2-.5-1.5-.2-1 1 .6 1.6-.8 2.3-3.5 1.8-1.3-.2-.9 1.7.5 2.2.6.3.2.6-1.1.6-1.3.1-2 .5-1.7 1.1.6.9-.7 1.4-2.7 1.1-.4 0-.4.7-.1 1.6.4.9.2 1.4-.3 1-.6-.3-1.6-.2-2.4.4-1 .6-1.1.9-.2.9.6 0 1.2.5 1.2 1.1 0 .6-.7.9-1.5.5-.8-.3-1.5-.1-1.5.5s-.4.7-1 .4c-.6-.4-.7.1-.3 1.1.4 1.2.3 1.5-.5 1-.7-.4-1.2-.1-1.2 1 0 1.3-.3 1.4-1.4.5-1.2-1-1.4-.8-1.2 1.3.3 2.7-.8 3.6-1.7 1.3-.3-.7-.6-.5-.6.6-.1.9-1.2 2.3-2.6 2.9-1.8.8-2.2 1.4-1.3 1.9.8.5.3 1-1.5 1.4-1.5.4-2.4 1.1-2.1 1.6.3.5-.4.9-1.5.9-1.5 0-2.1.7-2.1 2.2 0 1.9-.2 2-1 .8-.9-1.5-1.1-1.4-1.4 1.2-.1.7-.7 1.2-1.4 1.1-.7-.2-1.2.4-1.2 1.2 0 .8-.7 1.5-1.5 1.5s-1.5.7-1.5 1.5-.7 1.5-1.5 1.5-1.4.6-1.2 1.2c.1.7-.6 1.2-1.5 1-1.1-.2-1.8.3-1.8 1.3 0 .8-.7 1.5-1.5 1.5s-1.9.9-2.5 2c-.6 1.1-1.4 1.9-1.9 1.7-.5-.1-1.7.7-2.7 1.9-1.1 1.2-3 2.5-4.4 2.9-2.4.8-2.4.8-.5 1.6 1.6.6 1.3.8-1.5.9-1.9.1-2.9.4-2.2.7.6.2 1.2.9 1.2 1.4 0 .6-.4.8-.9.5-1.3-.8-4.2.4-3.5 1.5.3.5-.2.9-1 .9s-1.9.7-2.4 1.6c-.5.8-1.6 1.6-2.5 1.8-.9.1-2 .6-2.4 1.1-.5.4-.1.4.7 0 1.3-.8 1.3-.7.1.9-1 1.2-1.6 1.4-2.2.5-.4-.8-.9-.4-1.4 1-.4 1.5-1.2 2-2.2 1.7-1.1-.5-1.3-.2-.9 1 .6 1.5.4 1.5-1.1.3-1.1-.9-1.4-1-.9-.2.5.9 0 1.3-1.6 1.3-1.7 0-1.9.3-.9.9 1.1.7 1 1-.6 1.5-1.1.3-2.9 1.5-4.1 2.7-1.2 1.1-2.2 1.5-2.2.9s-.5-.8-1-.5c-.6.4-.8 1.1-.5 1.6.4.5-.3.9-1.3.9-1.1 0-2.2.7-2.6 1.5-.3.8-1.6 1.5-2.8 1.5-1.9 0-2 .2-.8 1s1.1 1-.7 1c-1.3 0-2.3.5-2.3 1.1 0 .5-1.3 1.5-3 2-1.6.6-3 1.5-3 2s-1 .9-2.2.9c-1.9 0-2 .2-.8 1s1.2 1-.5 1c-1.1 0-2.6.9-3.3 2.1-.8 1.2-1.9 1.8-2.8 1.5-1.8-.7-1.8.5.2 3 .8 1 1.3 1.4 1 .7-.9-1.7 101.2-1.7 103.3 0 1.1.9 1.3.9.8 0-1.1-1.7 21-1.7 23.2 0 .9.8 1.2.8.8.1-1-1.8 53.1-1.8 55.2-.1 1.2.9 1.3.9.7-.1-.4-.6-.3-1.2.3-1.2.5 0 1.3.4 1.6 1 .3.5 1.2 1 1.8 1 .7 0 .6-.4-.3-1.1-1.2-.8-1-.9 1-.7 1.4.2 2.8.7 3.2 1.3.5.6.8.5.8-.3 0-.6.5-1.2 1.1-1.2.5 0 .8.4.5.8-.2.4.5.9 1.7.9 1.7.2 1.9 0 .7-.7s-.9-1 1.3-1c1.5 0 2.7.4 2.7 1 0 .5.5 1 1.1 1 .5 0 .8-.4.5-.8-.3-.5.1-.9.9-.9s1.2.3 1 .7c-.2.4.2.7 1 .7s1.2-.4.9-.9c-.3-.4.2-.8 1-.8.9 0 1.6.4 1.6 1 0 .5.5 1 1.1 1 .5 0 .8-.4.5-.8-.3-.5.1-.9.9-.9s1.2.3 1 .7c-.2.4.2.7 1 .7s1.2-.4.9-.9c-.6-1 1-1.1 2-.1.3.4 1.7.8 2.9 1 1.8.2 1.9.1.7-.7-1.2-.9-1-1 1-.8 1.4.2 2.8.7 3.2 1.3.5.6.8.5.8-.3 0-.6.5-1.2 1.1-1.2.5 0 .8.4.5.8-.2.4.5.9 1.7.9 1.7.2 1.9 0 .7-.7s-.9-1 1.3-1c1.5 0 2.7.4 2.7 1 0 .5.5 1 1.1 1 .5 0 .8-.4.5-.8-.3-.5.1-.9.9-.9s1.2.3 1 .7c-.2.4.2.7 1 .7s1.2-.4.9-.9c-.3-.4.2-.8 1-.8.9 0 1.6.4 1.6 1 0 .5.5 1 1.1 1 .5 0 .8-.4.5-.8-.3-.5.1-.9.9-.9s1.2.3 1 .7c-.2.4.2.7 1 .7s1.2-.4.9-.9c-.6-1 1-1.1 2-.1.3.4 1.7.8 2.9 1 1.8.2 1.9.1.7-.7-1.2-.9-1-1 1-.8 1.4.2 2.8.7 3.2 1.3.5.6.8.5.8-.3 0-.6.5-1.2 1.1-1.2.5 0 .8.4.5.8-.2.4.5.9 1.7.9 1.7.2 1.9 0 .7-.7-1.1-.7-.5-1 2.3-1 2.2 0 3.8-.5 3.9-1.3 0-.6.2-1.7.3-2.2.2-.6.3-1.5.4-2 .1-.6.6-.3 1.1.5.7 1 1 1.1 1.1.2.1-.6.3-1.7.4-2.2.1-.6.3-2 .4-3.3.1-1.8.3-1.9 1.1-.7.7 1.1 1 .2 1-3.3 0-2.9.5-5 1.3-5.2.6-.3 1.3-2.1 1.4-4 .1-1.8.8-4.4 1.6-5.7.7-1.3 1.3-3 1.3-3.8-.1-.8.5-2.1 1.4-2.8.8-.8.9-1.1.3-.7-.7.3-1.3.1-1.3-.4 0-.6.4-1.1.8-1.1s.9-1.7 1-3.7c.2-2.1.8-4.2 1.4-4.8.8-.7.9-.6.3.5-.5.8-.4 1.2 0 .7.9-.7 1.8-6 1.9-10.9 0-1.5.3-2.5.7-2.2 1 .6 1.5-1.6 1.5-5.8-.1-2.6.3-3.8 1.3-3.8 1.1 0 1.1-.3 0-1.7-1-1.1-1-1.4-.1-.9.9.5 1.2-.4 1.2-3.3 0-2.6.5-4.1 1.3-4.1.7 0 .8-.3.2-.8-1.4-1-1.2-4.8.3-4.4.8.1 1.2-1.2 1.2-3.7 0-2.2.5-4.3 1-4.6.6-.3 1-1.2 1-1.8 0-.7-.4-.6-1 .3-.8 1.2-.9 1.1-.7-.7.2-1.1.8-2.7 1.4-3.5.6-.7 1-3.4.9-6.1-.1-3.2.3-4.6 1.1-4.3.7.3 1-.5.8-2-.1-1.3.1-2.4.4-2.4.3 0 .6-1.5.6-3.3-.1-1.7.4-3.5 1-3.9.6-.5.4-.8-.5-.8-1.3 0-1.3-.1 0-1 .9-.6 1.1-1 .3-1-.7 0-1-.7-.7-1.5.4-.8.9-1.3 1.3-1.1.4.3.8-.5.8-1.7.2-1.5 0-1.8-.6-.9-.7 1.1-.9 1.1-1.4-.2-.4-.9-.1-1.5.5-1.3 1.3.3 1.7-1.8 2-10.5.2-4.1.7-6.4 1.3-6 .5.3.4-.2-.4-1.1-1.2-1.5-1.1-1.7.5-1.8 1.1 0 1.4-.3.6-.6-.6-.2-.9-1-.5-1.6.4-.7.8-3.7.9-6.7.3-11.7.4-12.1 1.6-11.4.6.4.8.3.4-.4-.3-.5 0-1.3.6-1.6.7-.4.3-.4-.9-.2-1.3.2-2.3 0-2.3-.5s.6-.9 1.4-.9c1.8 0 2.9-2.7 1.4-3.6-.7-.4-.6-.9.3-1.5 1.1-.7.9-.9-.6-.9-1.6 0-1.7-.2-.6-.9s1.5-3.1 1.6-8.3c.1-4.1.5-8 1-8.8.5-.7.4-1.1-.1-.8-.5.4-.9-.7-1-2.3-.1-1.6.2-2.9.7-2.9.4 0 .4-1.2 0-2.8-.8-3-.4-6.5.8-5.8.4.3.7-.6.7-1.9 0-1.3-.4-2.1-.8-1.9-.5.3-.5 1-.2 1.6.4.7.2.8-.4.4-1.5-.9-1.5-1.1.4-3.1 1.4-1.3 1.4-1.8.2-3.2-1-1.4-1-1.5 0-.9s1.3.1 1-2c-.2-1.8-.8-2.8-1.6-2.6-.8.1-1.1-.2-.7-.8.3-.6 1.1-.8 1.6-.5 1.3.9 1.1-.9-.3-2.4-1-1.1-1-1.3 0-.7.6.4 1.2.3 1.2-.3 0-.5-.6-1.2-1.2-1.4-1-.4-1-.6 0-.6 1.7-.1 1.5-2.6-.4-5.9-1.5-2.6-1.5-2.6.1-.7l1.7 2-.5-2c-.2-1.1-.8-2.9-1.2-4-.6-1.7-.5-1.7.5-.5.9 1.3 1.1 1.2.7-.5-.2-1.1-.9-1.9-1.6-1.7-.7.1-1-.2-.6-.8.3-.6 1.1-.8 1.6-.5 1.3.9 1.1-.2-.7-3.3-1.5-2.6-1.5-2.6.1-.7l1.7 2-.5-2c-.2-1.1-.8-2.9-1.2-4-.6-1.7-.5-1.7.5-.5.9 1.3 1.1 1.2.7-.5-.2-1.1-.9-1.9-1.6-1.7-.7.1-1-.2-.6-.8.3-.6 1.1-.8 1.6-.5 1.3.9 1.1-.9-.3-2.4-.7-.8-.8-1.1-.3-.8.7.3 1.1-1 1.1-3.3s-.4-3.6-1-3.3c-.5.4-.7-.1-.3-1 .4-1 .1-1.7-.6-1.8-.7 0-.3-.4.8-.9s1.5-.9.9-.9c-1.4-.1-2.5-4.9-1.2-5.7.4-.3.5-1.1.1-1.7-.4-.7-.8-4.4-.9-8.2-.3-10.8-.3-10.7-1.6-10-.7.4-.4-.1.7-1.1 2-1.6 2-1.6-.5-1.1-2.2.5-2.3.4-.8-.7 1.6-1.2 2.2-6 .6-5-.8.5-1.2-4-.9-7.8.1-1-.3-2.6-.8-3.7-.7-1.2-.7-2.2-.2-2.6.6-.3.9-1.4.8-2.5-.1-1-.5-1.6-.9-1.4-.4.3-.8-.1-.9-.8 0-.7-.2-2.4-.5-3.8-.3-1.8-.2-2.1.5-1 .5.8.7 1.8.4 2.4-.3.5-.1.6.6.2.9-.6.8-1.4-.3-3.2-.9-1.3-1.6-4.3-1.6-6.6 0-2.4-.7-5.2-1.5-6.2-1-1.4-1.2-2.3-.4-3.2.7-.8.7-1.4-.1-1.9-.5-.3-1-1.5-1-2.6 0-1-.5-1.9-1.1-1.9-.5 0-.7.4-.4 1zm8.5 48c0 .5-.2 1-.4 1-.3 0-.8-.5-1.1-1-.3-.6-.1-1 .4-1 .6 0 1.1.4 1.1 1zm-47 27.4c0 .3-.4.8-1 1.1-.5.3-1 .1-1-.4 0-.6.5-1.1 1-1.1.6 0 1 .2 1 .4zm49.7 11.5c0 1.1-.5 1.8-.9 1.5-.4-.3-.5-1.1-.1-1.9.7-2.1 1.2-1.9 1 .4zm.3 31.1c0 .5-.5 1-1.1 1-.5 0-.7-.5-.4-1 .3-.6.8-1 1.1-1 .2 0 .4.4.4 1z"/><path d="M378.6 17.3c.3 1 .9 1.5 1.2 1.2.3-.3 0-1.1-.7-1.8-1-.9-1.1-.8-.5.6zM410 117.5c-.7.8-.9 2.3-.5 3.6.6 1.8.4 2.1-1.1 1.5-1.8-.6-1.8-.5 0 .9 1.2.9 1.5 1.5.7 1.5-1.1 0-1.1.3 0 1.7 1.2 1.5 1.2 1.6-.6 1-1.8-.6-1.8-.6-.3.6s1.5 1.4 0 2.5c-.9.7-1.1 1-.4.7.8-.4 1.2.2 1.2 1.7 0 1.3-.6 3-1.2 3.7-1 1.1-1 1.3 0 .7.6-.4 1.2-.2 1.2.3 0 .6-.6 1.1-1.2 1.1-1 0-.9.3.1.9 1.1.7 1.1.9 0 1.4-1 .4-1 .6-.1.6.6.1 1.2.6 1.2 1.2 0 .5-.6.7-1.2.3-.8-.5-.7 0 .2 1.1.9 1.1 1 1.6.3 1.1-.7-.4-1.3-.2-1.3.3 0 .6.5 1.1 1 1.1.6 0 1 .5 1 1.1 0 .5-.4.7-1 .4-1.4-.9-1.2.8.3 2.4.9 1.1.9 1.2 0 .7s-1.2.3-1.1 2.9c.1 1.9.6 3.5 1.2 3.5s.5.4-.3.9c-1.3.8-1.3 1.2 0 2.7.9 1.1.9 1.5.2 1-.7-.4-1.3-.3-1.3.1 0 .5.6 1.5 1.3 2.2 1 1.1 1 1.3 0 .7-.9-.5-1.3-.1-1.3 1.1 0 1.1.6 2.5 1.3 3.2 1 1.1 1 1.3 0 .7-1.9-1-1.7 3.2.2 5 1.2 1.2 1.5 1.2 1.5.2s.2-1 .9.1c.5.7 1.1.9 1.4.5.3-.5 4.6-.9 9.6-.9s9.1-.3 9.1-.7c0-.4 1-.4 2.2.1 1.6.6 2.7.3 3.8-.8.8-1 1.1-1.2.7-.5-.4.7-.4 1.5.1 1.8.6.3 1.3-.2 1.6-1.1.6-1.4.8-1.4 2.1.3 1.4 1.9 1.4 1.9 1.1-.1-.4-1.8.2-2 5.8-2 3.5 0 6.7-.5 7.4-1.3 1.1-1 9.7-1.7 16.2-1.3 1 0 1.1-.1.2-.5-2.2-1-.1-2.4 3.7-2.4 2 0 4.2-.5 4.8-1.1.5-.5 2.9-1.1 5.1-1.2 2.3-.1 4.4-.8 4.7-1.5.2-.7 2.2-1.2 4.5-1.2 2.9 0 4-.4 4-1.5 0-.9.9-1.5 2.4-1.5 1.3 0 2.7-.6 2.9-1.3.4-1 .6-1 .6 0 .1.7.5 1.3 1.1 1.3.5 0 .9-.5.7-1.2-.1-.7.5-1.2 1.3-1.3.8 0 1.5-.7 1.5-1.5 0-1.1 1.1-1.5 3.6-1.5 2.6 0 3.5-.3 3.2-1.2-.3-.7.2-1.3 1.1-1.3.9 0 2.6-1 3.8-2.2 1.9-1.9 2-2.2.5-3.3-.9-.7-1.4-1.5-1-1.8.3-.4-.6-.7-2.2-.7-1.5 0-3.4-.8-4.1-1.8-1-1.3-1.3-1.4-1.4-.3 0 1.1-.4 1-1.6-.5-.8-1-1.3-1.3-.9-.6.5 1 .1 1-1.9.1-1.4-.7-2.3-1.6-2-2.1.3-.5.2-.8-.3-.7-.4.1-2.1.1-3.6 0-2-.1-2.6-.5-2.1-1.4.5-.7 0-.6-1.1.3-1.1.9-1.6 1-1.1.2s-.2-1.2-2.6-1.3c-1.8-.1-3.6-.1-4 0-1.3.2-.9-1.7.5-2.2 1.1-.3-1.3-.6-8.5-.9-1.5-.1-2.5-.5-2.2-1 .3-.4.2-.8-.3-.9-1.3-.2-7.6-.7-10.3-.8-1.8-.1-2.1-.4-1.1-1 .8-.5-.4-.9-3.5-.9-2.6-.1-5.1-.7-5.5-1.3-.4-.8-3.8-1.4-8.1-1.7-4-.2-7.7-.7-8.2-1.2-.5-.5.1-.6 1.5-.3 1.3.3 2.1.2 1.7-.2-.4-.4-3.5-.8-7-1-3.7-.1-6.3-.6-6.6-1.3-.2-.7-.8-1.2-1.3-1.2-.6 0-.7.4-.4 1 .3.5.1 1-.4 1-.6 0-1.1-.4-1.1-.9s-1.8-1.1-3.9-1.3c-2.2-.2-3.7.1-3.4.6.4.5.1.6-.7.1-.7-.4-2.7-1-4.4-1.2-1.7-.2-3.2-.8-3.4-1.3-.5-1.5-3.8-1.2-5.2.5zm60 50.5c0 .5-.5 1-1.1 1-.5 0-.7-.5-.4-1 .3-.6.8-1 1.1-1 .2 0 .4.4.4 1zM537.3 153.9c-.6.3-1.3 1.3-1.6 2.1-.4 1.2-.6 1.1-.6-.3-.1-1.5-.4-1.4-2.5.7-1.3 1.5-3 2.6-3.9 2.6-.9 0-1.9.5-2.3 1.2-.5.7-.3.8.6.3.9-.5 1.1-.4.6.3-.4.7-1.8 1.2-3.2 1.2-1.4 0-2.3.4-2 .9.8 1.2-5 2.5-6.6 1.5-.9-.6-.9-.3.1.9 1.2 1.5 1.1 1.7-1.2 1.7-1.4 0-2.7.7-3.1 1.5-.3.8-1.7 1.5-3.1 1.5-2.1 0-2.6.4-2.3 2.2.2 1.3 1.1 3.2 2 4.2 1 1 1.4 2.4 1.1 3-.4.6.2.4 1.2-.4s1.6-1 1.2-.3c-.4.6-.3 1.4.3 1.8.6.4.8 1.1.4 1.6-.3.5 0 .8.7.7.7-.2 1.3.3 1.4.9 0 1.3 4 4.5 4.7 3.8.2-.2.5.6.5 1.8.1 1.2.9 2.7 1.8 3.3.8.6 1.5 2 1.5 3 0 1.6.2 1.7 1 .4.9-1.3 1-1.3 1.1 0 .1.8.1 1.8 0 2.2 0 .5.6.8 1.4.8.8 0 1.5.7 1.5 1.5s.7 1.5 1.5 1.5c.9 0 1.5.9 1.5 2.5 0 1.4.4 2.5.9 2.5.6 0 2 1.8 3.2 4 1.6 2.8 2.5 3.6 3.1 2.8.5-.8.8 0 .8 2s.4 3.1 1 2.7c.6-.3 1-.1 1 .6 0 .6.7 1.7 1.5 2.3.9.6 1.7 2.1 1.8 3.3.1 1.7.4 2 1.5 1.1.7-.6 1.2-.7 1.1-.2-.5 2.6.2 4.5 1.4 3.8.7-.5.7-.2-.2 1-1.2 1.5-1.2 1.7 0 1.4.9-.2 1.3.4 1.1 1.5-.2.9.1 1.7.5 1.6 2.1-.4 2.9.3 3 2.3.1 1.3.7 2.4 1.3 2.6.5.2 1 1.3 1 2.4 0 2.5 3.4 7 4.6 6 .5-.4.2.2-.6 1.2-.8 1.1-1 1.7-.3 1.3.7-.5 1.7.1 2.3 1.4.8 1.5.8 1.9.1 1.5-.7-.5-.9-.1-.5.8.3.9 1 1.3 1.5 1 .5-.3.9.7.9 2.1 0 1.5.4 2.4 1 2 .6-.4 1.3.7 1.6 2.4.4 1.7 1 2.8 1.5 2.5.5-.3.6.2.3 1-.3.9-.1 1.6.5 1.6.7 0 1.1.6 1 1.2-.1.7-.1 2.2 0 3.3.1 1.7.3 1.8 1.1.5.7-1.1 1-.5 1 2.2s.4 3.8 1.5 3.8c.8 0 1.5.9 1.5 2 0 1.2.7 3.2 1.6 4.5 1.3 2 1.4 2.5.3 2.5-.9 0-1 .3-.3.8.6.4 1 1.7.9 2.9-.1 1.9.1 2.1 1.3 1 1.3-1 1.4-.8.8 1.3-.4 1.4-.4 2 .1 1.5.4-.6 2.5-1.1 4.6-1.3 2.1-.1 4.7-.7 5.7-1.2 1-.6 3.5-1 5.4-1 2.2 0 3.9-.6 4.6-1.8 1.1-1.6 1.1-1.6.6 0-.6 2 1 2.5 1.7.5.2-.6 1.5-1.2 2.8-1.2 1.3-.1 2.3-.6 2.2-1.2-.1-.6.8-1 2.2-.8 1.4.1 2.5-.1 2.5-.5s1.2-.8 2.7-.8c1.5 0 2.9-.5 3.1-1.1.2-.6 2.1-1.1 4.3-1.1 3 0 3.9-.4 3.9-1.8s.2-1.5 1-.2c.7 1.2 1 1.2 1 .1 0-.7.6-1.1 1.4-.8.8.3 2-.2 2.8-1.1 1.1-1.3 1.1-1.5-.2-.7-.9.5-1.2.5-.7-.1.5-.5 1.7-1 2.8-1 3.7-.3 4-.4 3.3-1.7-.5-.7 0-.6 1.1.3 1.1.9 1.6 1 1.1.2s0-1.2 1.4-1.2c1.2 0 1.8-.5 1.5-1-.3-.6-.2-1 .4-1 .5 0 1.2.6 1.4 1.2.3.8.6.6.6-.5.1-1.1.9-1.7 2.4-1.7 1.3 0 3.2-.6 4.2-1.4 1.1-.8 2.6-1.1 3.4-.8 1.1.4 1.3.1.8-1.3-.6-1.5-.5-1.6.8-.5 1 .8 1.5.9 1.5.1 0-.6.7-1.1 1.5-1.1 1 0 1.4-.9 1.3-2.4-.1-1.4-.6-2.4-1.1-2.3-.5.1-1.1-.9-1.2-2.1-.1-1.3-.6-2.7-1.1-3-1.5-1.2-7.4-10.2-7.4-11.5 0-.8-.4-.7-1 .3-.8 1.2-1 1-1.1-1-.1-1.4-.1-2.9 0-3.4s-.5-.4-1.3.4c-1.3 1-1.6 1-1.7-.4-.3-3.5-.5-4.1-1.7-3.9-.7.2-1.2-.3-1.2-1.1s-.5-1.8-1.2-2.2c-.7-.5-.8-.3-.3.6.5.9.4 1.1-.3.6-.7-.4-1.2-1.4-1.2-2.2 0-.8-.5-1.4-1.1-1.4-.6 0-.9-.7-.5-1.5.4-1-.1-1.5-1.4-1.5-1.1 0-2-.7-2-1.6 0-.9-.5-1.2-1.2-.8-.8.5-.8.1.2-1.2.8-1 1.1-1.6.6-1.2-1 .9-3.6-1.4-2.8-2.6.3-.5 0-.6-.7-.2-.8.5-1.4 0-1.8-1.5-.6-2.2-.7-2.2-1.4-.3-.7 1.8-.8 1.7-.8-.3-.1-2.6-2.9-6.3-4.8-6.3-.7 0-1.3-.7-1.3-1.6 0-.8-.4-1.2-1-.9-.5.3-1-.4-1-1.5 0-1.6-.5-2-1.5-1.6-.9.3-1.5 0-1.5-.9 0-.8-.7-1.5-1.5-1.5s-1.5-.7-1.5-1.5-.4-1.5-1-1.5c-.5 0-1-.7-1-1.6 0-.8-.5-1.2-1-.9-.6.3-1.3-.1-1.6-1-.4-.9-1-1.2-1.3-.7-.3.5-1.5 0-2.6-1.1s-1.4-1.6-.6-1.2c.9.5 1.2.4.7-.3-.4-.7-1.4-1.2-2.2-1.2-.8 0-1.7-.7-2.1-1.6-.3-.8-1.1-1.3-1.9-1-.8.3-1.1-.2-.9-1.4.3-1.4-.1-1.8-1.5-1.5-1.3.3-1.7-.1-1.3-1.1.3-.9-.2-1.4-1.4-1.4-1.1 0-2.9-1.4-4.2-3.1-1.3-1.8-2.8-2.8-3.7-2.5-.8.3-1.4-.1-1.4-.9 0-1.4-1.4-1.9-4.8-1.8-1 .1-1-.2-.1-1.3s.7-1.4-1.1-1.4c-1.6 0-2-.4-1.6-1.6.4-1.2.1-1.4-1.4-.9-1.4.5-2 .2-2-.9 0-.9-.9-1.6-2-1.6s-2.3-.7-2.6-1.5c-.4-.8-1-1.5-1.6-1.5-.5 0-1.6-.7-2.5-1.5-.8-.8-2-1.2-2.6-.8-.6.4-.8.1-.5-.8.4-1-.2-1.5-2-1.7-1.4-.1-3.1-.7-3.7-1.4-.7-.8-.6-.9.4-.3.9.5 1.2.4.7-.3-.4-.7-2.1-1.2-3.7-1.2-1.7 0-3.2-.6-3.5-1.5-.4-.8-1.4-1.5-2.5-1.5-1 0-2.2-.6-2.6-1.3-.9-1.3-3.6-1.8-5-.8zm48.5 29.6c-.3.3-.9-.2-1.2-1.2-.6-1.4-.5-1.5.5-.6.7.7 1 1.5.7 1.8zm-28.4 61.1c.3.8.2 1.2-.4.9-.6-.3-1-1-1-1.6 0-1.4.7-1.1 1.4.7z"/><path d="M457.5 172c.4.6 1.1.8 1.6.5 1.4-.9 1.1-1.5-.7-1.5-.8 0-1.2.5-.9 1zM489.8 177.5c-.2.2-2.8.4-5.8.6-3.1.1-6.3.9-7.2 1.7-1.4 1.2-1.8 1.2-1.8.2 0-.9-.6-.8-2 .5-1.2 1.1-2 1.3-2 .6 0-.9-.4-.8-1.4.1-.8.7-1.1 1.7-.8 2.2.3.5 0 .6-.7.2-.9-.6-.9-1.1 0-2.2 1-1.2.9-1.3-.5-.8-.9.3-1.6 1.1-1.6 1.8s-1.4 1.1-3.2 1.1c-1.9-.1-3.9.6-4.6 1.4-.9 1.1-1.1 1.1-.6.2.5-1.1.3-1.3-1.1-.7-1.1.4-2.2.1-2.8-.6-.6-.9-.7-.8-.3.4.5 1.6-.2 1.8-4.7 1.9-2.9.1-5.5.1-5.9 0-.5 0-.4 2.3.2 3.9.1.3.2.9.1 1.3-.1.5.3.6.9.2.6-.4 1 1.2 1.1 4.2 0 3.6.3 4.3.9 2.8.7-1.6.9-1 1 2.5.2 2.5.2 4.8.1 5.2 0 .5.4.8 1 .8.8 0 .7.6-.2 1.7-1.2 1.5-1.2 1.6.3 1 1-.3 1.7-.3 1.7.1-.1.4-.1 3.4.1 6.7.1 4 .4 5.3.9 4 .7-1.6.9-1.5 1.4 1.2.3 1.7.4 4.1.2 5.2-.2 1.4.1 2.1 1.1 2.1.8 0 1.4.4 1.4 1 0 .5-.8.7-1.7.3-1.5-.5-1.5-.3.2 1.3 1.4 1.3 2 3.1 1.9 5.7-.1 2.1.3 4 .9 4.4.6.4.7.1.2-.8-.5-.8-.4-1.1.1-.6.8.8 1.1 2.4 1.6 10.4.1 1.3.9 2.3 1.8 2.4 1 0 1.1.2.2.6-.6.2-.9.9-.6 1.4.3.5.8 3.3 1.1 6.2.3 2.9 1.1 5.5 1.7 5.9.6.3 1.1 2.8 1.1 5.5-.1 2.6.4 5.1.9 5.5.9.6 1.3 4 1.9 19 .1 3.1.5 5.4.9 5.2.4-.3.5-1.3.3-2.4-.2-1.1 0-2.2.4-2.4 1-.7.8 4.6-.3 6.3-.6 1-.6 1.2.2.7s1.2.3 1.2 2.3c0 2.5.4 3 2.8 3.3 1.5.2 2.6.8 2.5 1.5-.2.7.4 1 1.3.6 1.3-.5 1.3-.7.2-1.4-2.1-1.3.9-1.2 3.4.2 1.5.8 1.9.8 1.3-.1-.5-.8 0-1.1 1.6-1 6.1.5 16-.1 15.4-.9-.3-.5-.1-1.3.5-1.6.6-.4.9-.1.8.7-.2.8.9 1.3 3.4 1.3 2 0 3.4-.3 3.1-.7-.2-.5-1.6-.6-3-.4-1.4.3-2.2.2-1.9-.2.8-.7 2.2-.8 13.4-1.3 5.3-.2 6.2-.5 5.7-1.8-.4-1.3-.3-1.3.8.1 1.5 1.9 4.4 1.8 5.8-.3.6-1 .9-1.1.9-.1 0 .9.6 1 1.8.5.9-.5 2.6-.8 3.7-.8s2.3-.4 2.7-.9c.4-.6 1.3-.4 2.4.5 1.6 1.2 1.7 1.2 1.2-.2-.5-1.3 0-1.6 2-1.6 8.1 0 9.4-.3 8.8-2.1-.6-1.6-.5-1.6.8 0 1.6 2.2 2.6 2.3 2.6.3 0-.8.3-1.4.8-1.4.4.1 2.6.1 5 0 3.5-.1 4.2-.4 4.2-2.1 0-1.1.5-2 1.1-2 .5 0 .7.4.4 1-.3.5-.1 1 .4 1 1.7 0 1.3-3-.4-3.6-.8-.4-1.5-1.9-1.5-3.4 0-1.6-.5-3.2-1.1-3.5-.6-.4-.8-1.3-.5-2.1.3-.8.1-1.4-.5-1.4s-.9-.7-.6-1.5c.4-.8.1-1.7-.5-2.1-.7-.5-.8-.2-.3.6s.4 1.1-.3.6c-.6-.4-.9-1.3-.5-2.1.3-.8 0-1.5-.7-1.5-.6 0-.8-.5-.5-1 .3-.6-.2-1-1.2-1.1-1 0-1.3-.3-.5-.6.6-.2 1.2-.9 1.2-1.4 0-.6-.4-.7-1-.4-.6.4-1-.7-1-2.7 0-2.5-.3-2.9-1-1.8-.8 1.2-1 1.1-1-.8 0-1.2 0-2.5.1-2.9 0-.4-.7-1-1.7-1.3-.9-.4-1.8-1.9-2-3.5-.2-1.7-.8-3.1-1.4-3.3-.5-.2-1-1.2-1-2.3 0-1.1-.5-1.6-1.3-1.3-1.3.5-1.5 0-1.8-5.2-.1-1.9-.4-2.2-1-1.3-.8 1.4-1 1-1.3-2.1-.1-.8-.8-1.4-1.4-1.2-.7.1-1.2-.3-1.1-1 .4-3.1-.2-4.8-1.6-4.8-.8 0-1.5-.9-1.5-1.9 0-1.1-.5-2.3-1.2-2.7-.7-.5-.8-.2-.3.7.5.8.4 1.1-.1.6-.9-.9-1-1.3-1.3-4.3 0-.8-.5-1.2-1.1-.9-.5.3-1-.4-1-1.5 0-1.6-.5-2-1.5-1.6-.8.3-1.4.2-1.4-.2.4-2.5-.3-4.2-1.7-4.2-1.2 0-1.5-.7-1.2-2.5.4-2 .3-2.3-.8-1.4-1.1.9-1.4.8-1.4-.1 0-.7-.8-1.9-1.7-2.7-1.1-.9-1.2-1.2-.3-.7.8.3.5-.4-.7-1.7-1.3-1.3-3.4-3.6-4.8-5.1-1.4-1.5-2.5-3.2-2.5-3.8 0-.5-.4-1-.9-1-.6 0-.8-.9-.6-2.1.4-1.7.2-1.9-1-.9-1.2 1-1.5.9-1.5-.3 0-.8-.7-1.7-1.5-2.1-.8-.3-1.2-1.2-.9-2 .3-.8 0-1.7-.7-2.2-.8-.4-1-.3-.5.4.4.7.4 1.2.1 1.2-.3 0-1.1-1.4-1.7-3.1-.8-2.3-1.3-2.7-1.9-1.7-.6.9-.9.7-.9-1 0-1.3-.6-2.2-1.5-2.2s-1.2-.6-.8-1.7c.4-1 .2-1.4-.4-1-1 .6-2.5-1.5-2.7-3.7-.1-.9-5.1-2.7-5.8-2.1zm-27.1 87.7c-.3.8-.6.5-.6-.6-.1-1.1.2-1.7.5-1.3.3.3.4 1.2.1 1.9zm61.7 39.6c.3.5-.1.9-.9.9s-1.2-.4-.9-.9c.3-.4.7-.8.9-.8.2 0 .6.4.9.8zM425.3 187.8c-.7.4-4.6.7-8.8.7-4.1-.1-7.5.3-7.5.8 0 .4.5.5 1.2.1s.8-.3.4.4c-.4.6-1.3.9-2.1.5-1.1-.4-1.5.3-1.6 2.8-.3 7.3-.5 8.8-1.1 9.4-.4.4-.5-.5-.4-1.9.2-1.5 0-2.8-.3-3.1-.4-.2-.8 1.5-.8 3.8-.2 11.5-.8 20.5-1.3 20.2-.3-.2-.7.6-.7 1.8-.2 1.7 0 1.9.7.7.6-.9 1-1 1-.3 0 .6-.4 1.5-1 1.8-.5.3-1 1.1-1 1.6 0 .6.4.8.8.5.5-.3.9.1.9.8 0 .8-.5 1.2-1.1 1-.7-.3-1.1 2.7-1.1 9.3 0 7.5-.4 10.1-1.5 11.1-.8.8-.9 1.1-.2.7.7-.4 1.2 0 1.2.9s-.5 1.6-1.1 1.6c-.5 0-.7.5-.4 1 .4.6 1.1.7 1.7.4.7-.4.8-.2.4.5-.4.6-1.2.9-1.7.6-.5-.4-.9-.2-.9.4 0 .5.6 1.2 1.3 1.4 1 .4 1 .6 0 .6-.9.1-1.3 1.9-1.3 5.3 0 3.8-.3 4.9-1 3.8-.5-.8-1-1.3-1-1-.1.3-.4 4.1-.7 8.4-.3 4.8-1.1 8.5-1.9 9.3-2 2-1.7 2.8.3 1.2 1.7-1.3 1.7-1.2.2 1.1-.8 1.4-1.5 4.8-1.4 7.7 0 3.6-.4 5.3-1.2 5.3-.7 0-1.3.3-1.4.7-.5 5.4-.3 13.6.3 14.6.6.9 1.2.9 2.9-.1 1.1-.8 1.8-.9 1.4-.3-.4.7.4 1.1 1.9 1.1 1.4 0 2.8-.5 3.1-1 .5-.8 1.1-.7 2.1 0 1.7 1.5 16.4 1.9 16.5.5.1-.6 0-1.4-.1-2-.1-.5.2-.6.7-.2.4.5.8 1.4.8 2 0 1.5 10.5.9 12.4-.6 1.1-.9 1.3-.9.8 0-.4.6-.3 1.4.3 1.8.5.3 1-.1 1-.9 0-.9.5-1.6 1.1-1.6.5 0 .8.4.4.9-.3.5 0 1.3.6 1.7.7.4.9.3.5-.4-.3-.6-.2-1.3.4-1.7.5-.3 1-.1 1 .4 0 .6.7 1.1 1.6 1.1 1.3 0 1.4-.3.5-1.4-1-1.2-.8-1.3.8-.9 1.2.3 1.8.9 1.5 1.4-.3.5 0 .9.5.9.6 0 1.1-.6 1.1-1.3 0-.8 1.5-1.2 5-1.1 2.8.1 5-.2 5-.8 0-.5.5-.6 1.2-.2.7.5.8.3.2-.7-.5-.8-.9-3.9-1-6.9-.3-10.4-.3-10.2-1.8-9.7-1 .4-1.3.1-.9-.8.3-.8.9-1.3 1.3-1 .5.3 1.2 0 1.6-.6.4-.7.3-.9-.2-.6-.6.3-1.6.2-2.4-.4-1.1-.6-1.1-.9-.2-.9.9 0 1-.5.4-1.8-.5-.9-.8-3.4-.7-5.5.1-2.4-.3-3.6-.9-3.4-.7.3-1.2-1-1.3-3.2-.4-10.5-.6-13.2-1.4-13.7-.5-.3-.6.3-.2 1.3.3 1 .3 1.5-.2 1.1-.4-.4-.9-3.3-1-6.5-.1-3.2-.7-5.7-1.2-5.6-.5.1-1-1.3-1.1-3-.4-4.7-.7-6-1.6-7.6-.6-.9-.5-1.2.1-.8.5.3.9-.4.8-1.5-.1-1.2-.7-2.4-1.3-2.6-.7-.2-1.2-2.1-1.2-4.3 0-2.4-.5-3.9-1.2-3.9-.9 0-.8-.4.2-1 1.3-.9 1.3-1-.1-1-1.1 0-1.6-1.2-1.8-4.7-.1-2.6-.7-5-1.3-5.4-.7-.4-.5-.8.3-1.2 1.1-.4 1.1-.6.1-.6-.7-.1-1-.6-.7-1.1.3-.6.1-1-.4-1-.6 0-1-.3-1-.8.1-.4 0-1.2-.1-1.7-.6-2.5-.4-4.1.5-4.7.6-.4.2-.8-.7-.8-1.4 0-1.8-.9-1.8-4 0-2.2-.5-4-1.1-4-.5 0-.7.5-.3 1.2.4.7.3.8-.4.4s-1.2-1.8-1.2-3c0-2.3-3-9.2-3-7.1 0 .5-.4.5-.8-.2s-1.3-.9-1.9-.5z"/><path d="M440.6 224.3c.3 1 .9 1.5 1.2 1.2.3-.3 0-1.1-.7-1.8-1-.9-1.1-.8-.5.6zM370.6 279.3c.3 1 .9 1.5 1.2 1.2.3-.3 0-1.1-.7-1.8-1-.9-1.1-.8-.5.6zM665.3 278.8c.1.4-.2.9-.8 1-.5.2-1.6.9-2.4 1.5-1.2 1-1.3.9-.6-.3.7-1.2.3-1.1-1.8.2-1.4 1-3.3 1.8-4.2 1.8-.8 0-1.5.6-1.5 1.2 0 .9-.4.8-1-.2-.8-1.3-1-1.3-1 .1 0 1.1-.9 1.6-2.6 1.6-1.4 0-3.1.6-3.7 1.3-.9 1-.9 1.1.3.5.9-.5 1.2-.4.7.1s-1.7 1-2.8 1c-3.7.3-4 .4-3.3 1.6.5.8 0 .7-1.1-.2-1.1-.9-1.6-1-1.1-.3.5.9-.1 1.3-1.9 1.3-1.8 0-2.4.4-1.9 1.2.6 1 .4 1-.7 0-1.6-1.5-2.9-1.6-2.9-.1 0 .5.5.7 1.2.3.6-.4.8-.3.4.4-.3.6-1.7.9-3 .6-1.4-.2-3.1.2-3.9 1-.8.8-1.7 1.2-2.1.9-.3-.4-.6-.1-.6.5s-.9.9-2 .7c-1.4-.3-2 .2-2 1.3 0 1.5-.2 1.5-1 .2-.6-1-1-1.1-1-.3s-1.5 1.3-4.1 1.3c-3 0-4 .4-3.6 1.3.3.8-.1 1.4-.9 1.4-.7 0-1-.5-.7-1.1.3-.6 0-.5-.8.1-.7.7-2.7 1.3-4.3 1.3-2.4 0-2.7.3-1.6 1 .9.6 1 1 .3 1-.6 0-1.5-.5-1.8-1-.3-.6-1.2-1-1.8-1-.8 0-.8.3.1.9 1.9 1.2-.1 1.8-5.5 1.6-2.3 0-4.1.4-4 1 .1.5-1 1.1-2.5 1.3-1.4.2-2.9 1-3.2 1.7-.3.8 0 1.4.6 1.2.6-.1 1.2 1.9 1.4 4.7.2 3.1.9 5.3 1.8 5.8.8.5 1.3 1.5.9 2.3-.3.9.1 2.3.8 3.2.8.9.9 1.4.3 1-.6-.3-1.1.1-1.1.9s.6 1.3 1.4 1c1.1-.5 1.1-.1.2 1.5-.8 1.5-.8 1.9 0 1.5 1-.7 1.7 3.5 1.2 7.3-.2.8.2 1 1.1.5 1-.6.9-.3-.1 1-1.1 1.3-1.1 1.6-.1 1.4.7-.2 1.3.7 1.5 1.9.1 1.3-.3 2.3-.9 2.3-.7 0-.7.3-.1.8 1.2.8 1.5 2.2 1.7 6.8.1 1.9.7 3.4 1.3 3.4.8 0 1.1 1.1.9 3-.2 1.6.1 3.2.6 3.5.6.4.7 1.1.3 1.8-.9 1.4-1 11.8-.1 12.3.4.3.5-.4.3-1.6-.2-1.1-.1-2.2.3-2.4.4-.2.9 7.5 1 17.2.3 14.8.6 18 2 19.7 1.6 1.9 1.6 1.9 0 .6-1.7-1.3-1.8-.7-1.8 9.7 0 7.9-.4 11.2-1.2 11.5-1 .4-.9.6.1.6 1.1.1 1.1.4 0 1.8-.8.9-.9 1.4-.2 1 1.3-.8 1.1 4.2-.3 5.2-1.3.9-1.6 3.9-.4 4.6.6.4.7 1.3.1 2.3-.4.9-.8 3.7-.7 6.2.1 2.9-.4 5-1.4 5.8-.8.8-1 1.1-.3.8.6-.4 1.4-.2 1.8.4.3.5 0 1-.7 1.1-.7 0-.1.5 1.5 1.1 1.5.5 2.4 1.4 2.1 2-.3.5 0 .9.7.7 3.3-.4 8 .2 7.5 1-.3.5.5 1.1 1.9 1.3 1.4.3 2.2.1 1.9-.4-.4-.5.7-.3 2.2.4 1.6.8 3.7 1.3 4.7 1.1 1-.3 1.7.1 1.7 1 0 1 .9 1.3 3 1.1 2.2-.3 3 .1 3 1.2 0 1 .8 1.5 2.3 1.4 4.3-.4 5.7 0 5.7 1.7.1 1.6.2 1.6 1.7-.2 1.2-1.5 1.4-1.6 1-.3-.5 1.3.1 1.7 2.6 2 1.8.2 3.1.8 3 1.4-.1.7.6 1 1.6.7 1.1-.3 3.2.3 4.7 1.4 2.1 1.3 2.6 1.4 1.9.3-.7-1.2-.6-1.3.7-.3.8.7 2.7 1.4 4.2 1.5 1.4.1 2.6.8 2.6 1.5 0 1.1 1.9 1.6 4.6 1.2.4 0 1.1.5 1.5 1.3.7 1 .9 1 .9-.2 0-1.1.2-1.2.8-.3.4.7 1.9 1.5 3.2 1.7 1.4.2 2.7.5 3 .6.3.2.9.2 1.4.1.5-.1.4.4-.2 1.1-.9 1.1-.4 1.3 2.5 1.3 1.9-.1 3.7.4 3.9 1 .3.7 1.9 1.2 3.6 1.3 1.7 0 3.5.7 3.9 1.4.7 1 .9.8.9-.6 0-1.1.5-1.6 1.3-1.3.9.3 1.3-.5 1.3-2.7 0-1.9.4-3 1.2-2.8 1 .2 1-.3.2-1.7-.7-1.5-.6-2.3.6-3.5 1.2-1.2 1.2-1.6.2-1.6-.8 0-.9-.3-.3-.8.6-.4 1.1-2.9 1.3-5.6.2-2.8.7-5.5 1.3-6.2.5-.7.9-1.6.8-2-.4-2.6.2-8.4.9-8 .5.3.9-.1.9-.9s-.3-1.2-.7-1c-.4.2-.7-.2-.7-1s.4-1.2.9-.9c.4.3.8-1.1.8-3 0-4.4 0-4.5 1.1-7.4.5-1.2.5-2.2.1-2.2s-.7-1.1-.7-2.5c0-2.1.2-2.3 1.1-1 1 1.3 1.2 1.1 1.2-1 0-1.3-.4-2.2-.9-1.9-.5.3-.9.1-.9-.5 0-.5.6-1.2 1.3-1.4.9-.4.8-.8-.3-1.6-.8-.6-1-1.1-.4-1.1.8 0 1.2-6.1 1.3-21.3 0-12.2-.3-20.6-.8-19.8-.6.9-.8.5-.8-1.4s.2-2.3.8-1.4c.6 1 .8.7.6-.8 0-1.2-.5-1.9-.9-1.7-.9.6-.9.9-1.2-7.6-.1-3.6-.5-7.1-.9-7.8-.5-.6-.4-1.2 0-1.2.5 0 .9-.9.9-1.9 0-1.1-.5-1.9-1.1-1.8-.6.1-1.1-2.3-1.3-5.7-.2-3.2-.9-6.4-1.6-7.1-.7-.7-1.1-3.4-1-6.4.1-4-.3-5.5-1.7-6.4-.9-.7-1.7-1.9-1.7-2.7.3-4.1-.3-7.1-1.2-6.5-.6.4-1-1-1-3.5s-.4-3.9-1-3.5c-.9.6-1.5-2.2-1-5.4.1-.9-.4-1.2-1.6-.7-1.4.5-1.5.4-.4-.9 1-1.2 1-1.5-.3-1.5-.8 0-1.5-.6-1.4-1.3 0-.6-.1-2.3-.2-3.7-.1-2-.3-2.2-1.1-1-.7 1.1-1 .8-1-1.6 0-1.9-.6-3.4-1.5-3.8-.8-.3-1.5-.9-1.4-1.3.4-2.6-.2-4.3-1.3-3.7-.8.5-.7 0 .2-1.1.9-1.1 1-1.6.3-1.1-.9.5-1.3 0-1.3-1.3 0-1.2-.6-2.1-1.2-2.1-.9 0-.8-.4.2-1 1.3-.8 1.2-1-.2-1-1.3 0-1.8-.9-1.9-3.3-.1-1.7-.1-3.6 0-4.1.1-.5-.6-.3-1.5.5-1.2.9-1.5.9-1 .1.4-.6.2-1.2-.3-1.2-.6 0-1.1-.5-1.1-1.1 0-.5.6-.7 1.3-.3.6.4.8.3.4-.1-.9-1.1-3.7-1.6-3.4-.7zm26 61.7c-.7 2.1-1.2 1.9-1-.4 0-1.1.5-1.8.9-1.5.4.3.5 1.1.1 1.9zm-96.6 12.7c-.3.8-.6.5-.6-.6-.1-1.1.2-1.7.5-1.3.3.3.4 1.2.1 1.9zM463.5 281.9c-.3.5-.2 1.2.3 1.5.5.3.9-.1.9-.9 0-1.7-.3-1.9-1.2-.6z"/><path d="M677.5 300c-.3.5-.1 1 .4 1 .6 0 1.1-.5 1.1-1 0-.6-.2-1-.4-1-.3 0-.8.4-1.1 1zM559.6 311.1c.2.4 0 1-.6 1.4-.5.3-1 .1-1-.5s-.5-.8-1.2-.3c-.7.4-3.2.8-5.6.9-2.3.1-4.5.4-4.9.8-.3.3-1.3 0-2.2-.6-1.3-1-1.4-1-.3.2 1.9 2.2 1.5 2.5-3.6 2.4-2.6 0-5.2.4-5.9.9-.7.5-4.1 1.1-7.5 1.4-3.5.3-6.6 1.1-7 1.7-.5.7-.8.7-.8.1 0-1.4-3.8-1.6-4.6-.3-.5.7-.2.8.6.3s1.1-.4.6.3c-.9 1.4-3.8.3-3-1.2.3-.6 0-.4-.8.4-.8 1-3.1 1.5-6 1.5-2.7 0-4.8.4-4.8 1 0 .5-.4.5-.8-.2-.6-1-1.3-.9-3.3.1-2.8 1.4-6.1 1.7-5.3.4.3-.4-.2-.8-1-.8-1.1 0-1.3.6-.9 1.7.7 1.7.6 1.7-2 0-1.8-1.1-2.5-1.3-2.1-.4.3 1-1 1.3-5.6 1.2-3.4 0-6.7.3-7.3.7-1.4.9-1.6 13-.2 14 .6.5.5.8-.4.8-1.1 0-1.1.3 0 1.7 1.2 1.5 1.2 1.6-.1.8-1.3-.7-1.3-.6-.2.7 1 1.3 1 1.7 0 2.1-1.1.4-1 .6 0 .6.7.1 1 .5.7 1.1-.3.5-.2 1 .3 1 .6 0 .9 1.1.8 2.4 0 1.3-.4 2.2-.7 2-.3-.1-.6.3-.6 1.1s.3 1.2.7 1c.5-.3 1 7.2 1.3 20.2.1 2.3.6 3.3 1.7 3.3 1.3 0 1.3.2 0 1-1.6 1-2.1 8-.5 7.4.6-.3 1.2.7 1.3 2.1.1 1.6-.2 2.4-.8 2-.6-.4-.7-1.1-.4-1.7.5-.7.2-.8-.5-.4-1 .6-.9 1.2.2 2.4 1.9 2.3 1.8 13.8-.1 13.4-.8-.1-1.1.2-.7.8.3.6 1 .8 1.4.6.4-.3.9 2 1 5 .1 4.3-.1 5.4-1.1 4.8-1-.6-1-.4-.2.7 1.5 2.1 1.8 9.3.3 8.3-.9-.5-.9-.3-.3.7 1.3 2.1 1.4 13.3.1 14.1-.6.4-1.2 1.8-1.3 3.2 0 1.4.3 2.3.7 2 .4-.2.6-1.3.4-2.4-.2-1.1 0-2 .5-2s.8 1.2.7 2.7c-.2 2.5.1 2.8 2.8 2.8 1.7 0 3.6.7 4.3 1.5.8.8 1.1.9.7.2-.4-.8.2-1.2 2-1.2s2.4.4 1.9 1.2c-.5.9-.2.9.9-.1 1.1-.9 1.7-1 1.7-.2 0 .6.3 1 .8 1 .4-.1 4.5-.1 9.1 0 6.3.1 8.2.4 7.8 1.4-.3.9.8 1.3 4.2 1.4 8.5.1 15 .6 14.9 1.2-.2 1.9.4 2.4 1.2 1.1.6-1 1.3-1.1 1.8-.5.4.6 2.4 1 4.5 1 2 0 3.7.3 3.7.7 0 .4.7.5 1.5.2.8-.4 1.5-.1 1.5.5s.5 1.1 1.1 1.1c.5 0 .7-.6.4-1.3-.4-.6-.1-.5.7.3.7.9 2.9 1.5 5.1 1.5 2-.1 3.7.3 3.7.8s.6.5 1.3-.1c.9-.8 1.7-.8 2.7 0 1.2.8 1.2.9-.2.4-1-.3-1.8-.2-1.8.3s3.5.9 7.8 1c4.3.1 7.9.6 8 1.1.3.7.9.7 1.9-.1 1.1-1 1.4-1 1.1.1-.4 1.6 2.4 2 3.4.5.5-.6.8-.5.8.3 0 .7.5 1 1 .7.6-.4.8-1.2.4-1.8-.3-.7.2-.3 1 .7 1.5 1.9 1.6 1.9 1.6-1 0-1.7.6-3.6 1.3-4.3 1-1.1.9-1.2-.1-.7-.9.6-1.2-.1-1-2.8.1-1.9.6-3.4 1.2-3.3.6.1 1-3.3 1-8.4.1-5.7.5-8.5 1.2-8.2.6.2 1-.9 1-2.7 0-1.6-.3-3-.8-3-1.4 0-.9-3 .7-3.6.8-.4 1.2-1.1.9-1.6-.4-.6-1-.5-1.5.3-.6 1-.8.7-.6-.8 0-1.2.5-1.9 1-1.6.5.3.7-.8.5-2.3-.2-1.6-.8-2.8-1.5-2.7-.8.2-1-.4-.6-1.4.4-1.1.8-1.3 1.1-.5.9 2.8 1.7.9 1.4-3.3-.2-2.5-.8-4.2-1.3-3.9-.5.3-.9-.2-.9-1.1 0-.9.4-1.4.9-1 .5.3 1.3 0 1.7-.6.4-.8.3-.9-.4-.5s-1.2.2-1.2-.4c0-.6-.5-.8-1.2-.4s-.8.3-.4-.5c.4-.6 1.2-.9 1.7-.5.5.3.8-.8.7-2.5-.1-1.6-.6-2.7-1-2.5-.4.3-.8-.5-.9-1.8 0-1.3-.2-6.4-.3-11.5-.2-5.1-.8-9.8-1.4-10.6-.6-.7-1.2-3.9-1.4-7-.2-3.7-.7-5.7-1.5-5.7-1.6 0-1.6-1.2 0-2.9 1-1.1 1-1.3 0-.7-1 .5-1.3-.4-1.3-3.4s-.3-3.9-1.2-3.4c-.9.5-.9.2.1-.9 1.1-1.3 1.1-2 .1-3.2-.6-.8-.9-1.9-.5-2.5.3-.5.1-1-.5-1s-.8-1.1-.6-2.4c.3-1.5-.1-2.7-1-3-1-.4-1.4-2.3-1.4-7 0-7-.7-9.9-2.1-9-.5.3-.9-.9-.9-2.5 0-1.8-.5-3.1-1.2-3.1-.9 0-.8-.4.2-1 1.2-.8.9-1-1.3-1-1.9 0-2.6.4-2.1 1.2.5.8.3.8-.7.2-1.7-1.1-7-1.3-6.3-.3zm23.7 60.4c.4.8.3 1.6-.1 1.9-.4.3-.9-.4-.9-1.5-.2-2.3.3-2.5 1-.4zm-106.6 9.4c0 1.1-.5 1.8-.9 1.5-.4-.3-.5-1.1-.1-1.9.7-2.1 1.2-1.9 1 .4zM586 396c0 .5-.2 1-.4 1-.3 0-.8-.5-1.1-1-.3-.6-.1-1 .4-1 .6 0 1.1.4 1.1 1zm0 32c0 .5-.2 1-.4 1-.3 0-.8-.5-1.1-1-.3-.6-.1-1 .4-1 .6 0 1.1.4 1.1 1zM434.6 325.7c-.1.1-6.5.3-14.3.4-8.4.1-14 .6-13.7 1.1.4.5-.3.4-1.4-.3-1.6-1-2.6-1-4.7-.1-1.4.7-2.4.8-2.1.4.3-.5-.8-.9-2.4-.9-1.7 0-2.7.5-2.3 1 .4.6.1.7-.7.2-1.9-1.2-6.1-1.5-5.4-.4.3.5-.1 1.2-.9 1.5-.8.3-1.4 1.3-1.3 2.2.2.9-.4 2.3-1.3 2.9-1.4 1.1-1.4 1.4-.1 2.3 1.3.8 1.3 1-.2 1-1.4 0-1.6.7-1.3 4 .2 2.2-.1 4.2-.7 4.6-.6.4-.8.3-.4-.4.3-.6.3-1.3-.2-1.6-.5-.3-.9 1.6-1.1 4.2-.2 6.7-.3 7.2-1.3 7.2-.4 0-.8.5-.8 1.1 0 .5.6.7 1.3.3.6-.4.4.2-.6 1.3-.9 1.1-1.5 2.2-1.2 2.5.3.3-.1 1.1-1 1.8-.8.7-1.5 2.5-1.5 4.1 0 1.6-.5 2.9-1.1 2.9-.8 0-.7.5.1 1.5 1.1 1.3 1 1.4-.4.9-1.9-.7-2.1.6-.3 2.5.8 1 .8 1.2 0 .7-.7-.4-1.3.4-1.5 2.1-.2 1.6-.8 2.7-1.5 2.6-.9-.2-1.3.9-1.3 3.2 0 2.1-.5 3.5-1.2 3.5-.9 0-.8.4.2 1 1.3.8 1.3 1-.1 1-1 0-1.5.8-1.4 2.2.1 1.3-.2 2.6-.8 2.9-.8.6-1.4 3.2-2 9.1-.1 1.3-.4 1.4-1.5.6-1.1-.9-1.3-.9-1.2.3.6 3.8-.1 7.1-1.3 6.6-.9-.3-1.2.6-1.1 3.5.1 3.1-.2 3.8-1.3 3.3-1.2-.4-1.4 0-1 1.5.3 1.1.1 2-.4 2s-.7 1.1-.5 2.5c.3 1.8 0 2.5-1.2 2.6-1.1 0-1.2.3-.4.6.6.2 1.2.9 1.2 1.4 0 .6-.4.8-.8.5-.5-.3-.9.1-.9.9s.4 1.2.9.9c.4-.3.9.2.9 1 .1.9.2 2.4.3 3.3.1 1 .5 2.4 1 3.2.7 1 .5 1.2-.5.6-1.1-.6-1.2-.5-.2.5.8.8 3.3 1.2 6.9 1.1 4.4-.1 5.9.2 7 1.6 1.3 1.7 1.4 1.7.8 0-.4-1.2-.1-1.7 1.1-1.7.9 0 1.4.4 1 .9-.3.5-.1 1.3.5 1.6.6.4 1 .3.9-.2-.4-2.2.2-2.5 1.6-.7 1.3 1.6 1.4 1.6.9.1-.7-1.9 1.1-2.4 1.9-.4.7 1.8 17.3 1.7 16.9-.1-.1-.8.2-1.1.8-.7.6.3.8 1 .5 1.5-.3.5 3 .8 7.2.9 32.6.1 36.3.2 35.7 1.4-.5.8-.3.8.7-.1.7-.6 2.1-1.2 3.1-1.2s1.8.6 1.8 1.2c0 .8.3.9.8.3 1-1.5 7.4-1.6 6.5-.1-.4.6.2.4 1.2-.4 1.7-1.4 1.8-1.3 1.2.2-.4 1.2-.2 1.5.8 1.1.8-.3 1.3-.9 1-1.3-.6-1 1.5-.8 3.3.3.6.5 1.6.6 2.1.3 1.2-.8 2-6.6.9-6.6-.5 0-.4-.9.2-2 .8-1.4.8-2 0-2-.6 0-.8-.5-.4-1.1.9-1.5 1.1-32.8.2-34.2-.4-.6-.4-1.5-.1-2.1.9-1.4.9-6.6 0-6.6-.4 0-.3-.9.3-2s.7-2 .3-2c-.5 0-.6-3.2-.3-7 .5-6.1.3-6.8-.9-5.3-.9 1.2-1.2 1.3-.9.3.3-.8.1-2.7-.3-4.3-.9-3.3-.2-3.6 1.1-.5.8 2 .8 1.9.7-.9-.1-1.7-.5-2.9-.9-2.7-.4.2-.9 0-1.3-.6-.3-.5-.2-1 .3-1 .6 0 .7-1.4.2-3.7-.6-2.4-.5-4.2.2-5 .7-.9.7-1.3-.1-1.3-.6 0-.9-1.3-.7-3 .2-1.7-.1-3-.6-3s-.6-.6-.1-1.3c1.3-2 1.2-3.8-.2-4.3-1.6-.7-1.4-5.6.3-7.7 1-1.2 1-1.7.1-2.3-.8-.4-.9-.3-.5.4s.2 1.2-.3 1.2c-1 0-1.6-2.8-1.2-5.8.1-.8-1.8-1.2-6.6-1.3-3.7 0-9-.1-11.6-.2-2.7-.1-5-.1-5.1 0zM390.4 440c-.8.7-11.4.7-11.4 0 0-.4 2.7-.6 5.9-.6 3.3.1 5.7.3 5.5.6zm3.6 0c0 .5-.5 1-1.1 1-.5 0-.7-.5-.4-1 .3-.6.8-1 1.1-1 .2 0 .4.4.4 1zm68 2c0 .5-.5 1-1.1 1-.5 0-.7-.5-.4-1 .3-.6.8-1 1.1-1 .2 0 .4.4.4 1z"/><path d="M575 331.6c0 .8.5 1.2 1 .9.6-.4.8-1.1.5-1.6-.9-1.4-1.5-1.1-1.5.7zM357 334.1c0 .5.5.7 1 .4.6-.3 1-.8 1-1.1 0-.2-.4-.4-1-.4-.5 0-1 .5-1 1.1zM459.3 338.5c0 .8.4 1.2.9.9.5-.3.6-1 .3-1.5-.9-1.3-1.2-1.1-1.2.6zM693.5 347.9c-.3.5-.2 1.2.3 1.5.5.3.9-.1.9-.9 0-1.7-.3-1.9-1.2-.6zM191.2 378.2c.2.8-.8 1.4-2.5 1.6-1.5.2-2.5.8-2.2 1.3.4.5.1.9-.5.9-.7 0-.9.7-.6 1.6.3.8.2 1.3-.3 1-.5-.3-1.5.2-2.2 1.1-1.2 1.4-1.2 1.5-.1.9 1.1-.7 1.2-.4.3 1.3-.7 1.1-1.6 2.1-2.2 2.1-.6 0-.8.4-.4.9.3.5 0 1.3-.6 1.6-.5.4-.8 1.3-.5 2.1.3.8.1 1.4-.4 1.4s-1 1.2-1.2 2.7c-.2 1.6-.8 2.7-1.4 2.6-.6-.1-1 .8-.9 2 .3 2.9-.5 4.2-1.6 2.6-.8-1.3-1.3.8-1.2 4.9.1 1-.2 1-1.4.1-.8-.7-1.3-.8-1.2-.3.4 2.5-.3 4.4-1.6 4.4-.9 0-1.5.9-1.5 2.4 0 1.4-.4 2.8-1 3.1-.5.3-1 1.5-1 2.6 0 1.5.7 1.9 3.3 1.9 1.8 0 3.9-.6 4.6-1.3.9-.7 1.1-.7.8-.1-.4.7 0 1.5.9 1.8 1.2.5 1.5.2 1-1.1-.6-1.4-.4-1.4 1.5.3 2.2 1.8 2.2 1.8 1.5 0-.5-1.6-.4-1.7.9-.6 2 1.6 7.1 1.5 9.3-.2 1.2-.9 1.4-1 .8-.1-.4.7-.4 1.3.1 1.3 12.5.7 17.3.4 16.8-1-.5-1.2-.4-1.3.6-.3.7.7 2.1 1.3 3.1 1.3s1.8-.6 1.8-1.3c0-.9.2-.9.8.1.6.9 4.5 1.3 13.5 1.5 11 .2 12.6 0 12.2-1.3-.5-1.2-.4-1.3.6-.3.7.7 2.1 1.3 3.1 1.3s1.8-.6 1.8-1.3c0-.8.3-.8.9.2.7 1 3.1 1.3 9.7 1.2 4.9-.1 9.3-.6 9.9-1.1.7-.6 1.5-.6 2.1-.1.5.5 5.3 1.1 10.7 1.3 8.3.3 9.6.1 9.2-1.2-.5-1.2-.4-1.3.6-.3.7.7 2.1 1.3 3.1 1.3s1.8-.6 1.8-1.3c0-.8.3-.8.9.2 1.1 1.6 17.7 1.6 19.7 0 .8-.7 1.4-.6 1.9.1.3.5 3.5 1 7 1s6.7-.5 7-1c.4-.7 1.1-.7 1.8-.2.7.5 2.6 1.1 4.3 1.4 2.6.3 3.1.1 2.6-1.1-.5-1.4-.4-1.4 1.3-.1 1.1.9 1.6 1 1.1.2-.4-.7-.1-1.2.8-1.2 1.6 0 1.9-.7 1.9-4.3 0-.9.4-1.7.9-1.7s.6-.5.3-1c-.3-.6-.1-1 .4-1 .6 0 1.1-1.1 1.1-2.5 0-1.3.6-2.8 1.3-3.2.6-.4 1.2-1.4 1.3-2.1.3-3.7.5-4.2 1.7-3.9.7.1 1.2-.8 1.1-2.6-.1-1.8.4-2.7 1.5-2.7 1.4 0 1.4-.2.1-1-1-.6-1.1-1-.2-1 .6 0 1.2-1.2 1.2-2.6 0-1.4.4-2.3.8-2 .5.3.9 0 1-.7.2-2.2.7-4.2 1.5-5.5.5-.6.5-1.2.2-1.2-.4 0 .1-.7 1-1.6 1-1 1.2-1.9.7-2.3-.6-.3-21.6-.6-46.7-.5-40.2 0-45.7-.2-46.6-1.5-.9-1.4-1-1.4-.5.1.4 1.4-.4 1.6-5.7 1.4-4.4-.1-6.1-.6-5.9-1.5.1-.7-.2-1-.8-.6-.6.3-.8 1-.6 1.4.3.4-4.7.7-11.2.7-9-.1-11.6-.4-11.4-1.4.1-.8-.2-1.1-.8-.7-.6.3-.8 1-.6 1.4.3.4-4.7.7-11.2.7-9-.1-11.6-.4-11.4-1.4.1-.8-.2-1.1-.8-.7-.6.3-.8 1-.6 1.4.3.4-2.2.8-5.4.8-3.3 0-5.7-.3-5.5-.8.3-.4.1-1.1-.5-1.4-.6-.4-.9-.1-.8.7z"/><path d="M267 378c0 .5.5 1 1 1 .6 0 1-.5 1-1 0-.6-.4-1-1-1-.5 0-1 .4-1 1zM273 378.1c0 .5.5.7 1 .4.6-.3 1-.8 1-1.1 0-.2-.4-.4-1-.4-.5 0-1 .5-1 1.1zM281 378.1c0 .5.5.7 1 .4.6-.3 1-.8 1-1.1 0-.2-.4-.4-1-.4-.5 0-1 .5-1 1.1zM289 378.1c0 .5.5.7 1 .4.6-.3 1-.8 1-1.1 0-.2-.4-.4-1-.4-.5 0-1 .5-1 1.1zM297 378.1c0 .5.5.7 1 .4.6-.3 1-.8 1-1.1 0-.2-.4-.4-1-.4-.5 0-1 .5-1 1.1zM305 378.1c0 .5.5.7 1 .4.6-.3 1-.8 1-1.1 0-.2-.4-.4-1-.4-.5 0-1 .5-1 1.1zM313 378.1c0 .5.5.7 1 .4.6-.3 1-.8 1-1.1 0-.2-.4-.4-1-.4-.5 0-1 .5-1 1.1zM321 378.1c0 .5.5.7 1 .4.6-.3 1-.8 1-1.1 0-.2-.4-.4-1-.4-.5 0-1 .5-1 1.1zM329 378.1c0 .5.5.7 1 .4.6-.3 1-.8 1-1.1 0-.2-.4-.4-1-.4-.5 0-1 .5-1 1.1zM337 378.1c0 .5.5.7 1 .4.6-.3 1-.8 1-1.1 0-.2-.4-.4-1-.4-.5 0-1 .5-1 1.1zM345 378.1c0 .5.5.7 1 .4.6-.3 1-.8 1-1.1 0-.2-.4-.4-1-.4-.5 0-1 .5-1 1.1zM353 378.1c0 .5.5.7 1 .4.6-.3 1-.8 1-1.1 0-.2-.4-.4-1-.4-.5 0-1 .5-1 1.1zM474.6 395.5c-.9 2.6-.7 3.2.5 1.2.6-1 .9-2.1.6-2.3-.2-.3-.7.2-1.1 1.1zM353.3 432.5c0 .8.4 1.2.9.9.5-.3.6-1 .3-1.5-.9-1.3-1.2-1.1-1.2.6zM474.5 432c.3.5.8 1 1.1 1 .2 0 .4-.5.4-1 0-.6-.5-1-1.1-1-.5 0-.7.4-.4 1zM474.1 435.6c0 1.1.3 1.4.6.6.3-.7.2-1.6-.1-1.9-.3-.4-.6.2-.5 1.3zM595.5 438c-.3.5-.1 1 .4 1 .6 0 1.1-.5 1.1-1 0-.6-.2-1-.4-1-.3 0-.8.4-1.1 1zM150.9 443.2c-.1.7-.1 1.9 0 2.5.1.7-.6 1.3-1.5 1.3-1.2 0-1.5.6-1.2 2.3.3 1.5 0 2.4-.8 2.4-.7 0-1-.5-.7-1 .3-.6.1-.7-.6-.3-.6.4-.9 1.1-.6 1.6.3.4-.2 1.3-1 2s-1.5 2-1.5 3c0 2.2-2.5 4.4-4 3.5-.6-.4-1-.3-.9.2.3 1.7-.1 3.2-1.4 4.5-.7.7-1.8 2.4-2.5 3.8s-1 1.7-.7.7c.3-1 .1-1.5-.5-1.2-.6.3-1 1.2-1 2 0 .7-.5 1.5-1.1 1.7-.5.2-1.1 1.1-1.2 1.9-.2.9-1.1 2.4-2 3.3-.9 1-1.4 2.3-1 2.9.4.7-.1.6-1-.2-1.5-1.2-1.7-1.1-1.7.8 0 1.4-.4 2-1.2 1.5-.7-.4-.8-.3-.4.4s-.4 2.3-1.9 3.8c-1.4 1.4-2.2 3-1.9 3.6.5.7.1.9-.9.5-1.6-.6-2.3.8-1.8 3.6.1.5-.3.6-.8.3-1.1-.7-2.4 2.2-1.5 3.5.3.5-.2.9-1 .9-.9 0-1.6.4-1.6.9 0 .6 35.9 1 95 1.1h95l.6-3c.4-1.6 1.3-3 2-3 .8 0 1.3-.3 1.3-.8-.4-2.2.2-4.2 1.1-3.7.6.3 1-.4 1-1.7 0-1.4 1.3-3.5 3.1-5.1 2.5-2.2 2.8-2.7 1.3-2.7-1.8-.1-1.8-.1-.1-1.1.9-.6 1.5-1.4 1.2-2-.4-.5.4-.9 1.7-.9 1.8 0 2-.2.8-1-1-.6-1.1-1-.2-1 .6 0 1.2-1 1.2-2.3 0-1.8.2-1.9 1-.7s1 .8 1.1-1.5c.1-1.7.1-3.3 0-3.8 0-.4.4-.6 1-.5 1.4.4 6.9-9.8 6.9-12.9 0-1.3.7-2.6 1.5-2.9 1-.4 1.5-2 1.5-4.5 0-3.5-.3-3.9-2.6-3.9-1.7 0-2.3.4-1.8 1.2.6 1 .4 1-.7.2-2.1-1.6-16.2-1.7-15.3-.1.6.9.4.9-.7.1-2-1.7-24.2-1.8-23.3-.1.6.9.4.9-.7.1-2-1.7-24.2-1.8-23.3-.1.6.9.4.9-.7.1-2.1-1.7-12.2-1.8-11.3-.2.6 1 .4 1.1-.7 0-.7-.6-2.8-1.2-4.7-1.2-2.4 0-3.1.4-2.6 1.2.6 1 .4 1-.7 0-.7-.6-2.8-1.2-4.7-1.2-2.4 0-3.1.4-2.6 1.2.6 1 .4 1-.7 0-.7-.6-2.8-1.2-4.7-1.2-2.4 0-3.1.4-2.6 1.2.6 1 .4 1-.7 0-.7-.6-2.8-1.2-4.7-1.2-2.4 0-3.1.4-2.6 1.2.6 1 .4 1-.7 0-.7-.6-2.8-1.2-4.7-1.2-2.4 0-3.1.4-2.6 1.2.6 1 .4 1-.7 0-.7-.6-2.8-1.2-4.7-1.2-2.4 0-3.1.3-2.6 1.2.6 1 .5 1-.7.1-2-1.7-28.2-1.7-27.2 0 .5.9.3.9-.8 0-.8-.7-4.8-1.1-9.8-1.1-5.2 0-7.8.4-7 .9.9.6 1 .9.2.9-.6 0-1.5-.5-1.8-1-.9-1.4-2.5-1.2-2.6.2zM330.5 443.1c-.4.6-.5 1.2-.2 1.5.2.3.7-.2 1-1.1.7-1.7.1-2-.8-.4zM583 450.5c0 .8.4 1.5 1 1.5.5 0 .7-.7.4-1.5-.4-.8-.8-1.5-1-1.5-.2 0-.4.7-.4 1.5z"/><path d="M327 452.1c0 .5.5.7 1 .4.6-.3 1-.8 1-1.1 0-.2-.4-.4-1-.4-.5 0-1 .5-1 1.1zM341.8 452.7c-1 .2-1.8 1.1-1.8 1.9 0 .8-.6 1.4-1.2 1.4-1 0-1 .2 0 .9 1.1.7 1.1.9-.1 1.4-.9.3-1.7 1.6-1.9 2.9-.2 1.3-.9 2.2-1.6 2-.7-.1-1.2.9-1.2 2.4 0 1.4-.4 2.3-1 1.9-1-.6-1.2-.2-1.3 3.2-.1 1-.7 2.2-1.4 2.6-.7.4-1.3 1.5-1.3 2.2 0 .8-.6 1.5-1.2 1.5-.9 0-.8.4.2 1 1.3.8 1.2 1-.2 1-1.1 0-1.8.8-1.8 2.1 0 1.1-.4 1.8-.9 1.4-.5-.3-1.2-.1-1.6.5-.3.5 0 1 .7 1 .9 0 .9.3-.2 1-.8.5-1 1-.5 1 .6 0-.1.8-1.5 1.6-1.8 1.1-2 1.4-.5 1 1.8-.5 1.8-.5.4.6-.9.7-1.4 1.9-1.2 2.5.3.7-.2 1.3-1.1 1.3-1.5 0-2 1.6-1.7 5 .2 1.2 0 1.2-.7.1-1.1-1.6-2.1-.3-1.6 2.2.2 1.3-.2 1.7-1.2 1.3-.9-.3-1.4.2-1.5 1.4-.2 3.3-.4 3.8-1.3 4.7-.5.5-.6.2-.1-.6.5-.9.4-1.2-.3-.7-.7.4-1.2 1.8-1.2 3.2 0 1.5-.6 2.4-1.5 2.4-.8 0-1.5.8-1.5 1.9 0 1-.7 2.4-1.5 3.1-.8.7-1.2 1.6-.9 2.1.3.5-.1.9-.8.9-.8 0-1.4 1-1.5 2.1-.1 1.2-1.1 3-2.2 4-1.2 1.2-1.8 2.6-1.4 3.6.4 1.1.3 1.4-.5.9-.7-.4-1.5-.1-1.8.8-.3.9-1 1.3-1.5 1-.5-.3-.9-.2-.8.3.3 1.9-.3 5.7-.8 4.5-.5-1.3-2.4-1.7-2.2-.5.1.5.1 1.9-.1 3.3-.1 2.3-.2 2.3-1 .5-.8-1.9-.9-1.9-.9.2-.1 1.2-.9 2.8-2 3.5-1 .7-1.7 2.1-1.5 3 .1 1-.5 2.2-1.4 2.8-1 .5-1.2 1-.6 1 .7 0 1.4.7 1.7 1.4.4 1.1.1 1.3-1.1 1-1.6-.5-1.6-.4 0 .9 1 .8 1.5 1.7 1.1 2-.3.4-.1.7.6.7.9 0 .9.5 0 2.2-1.1 2.1-1.1 2.2.4.9 1-.7 1.8-1.1 1.8-.7.1.3.3 1 .4 1.6.1.5.3 1.8.4 2.7.2 1.6.3 1.5 1.1-.2.7-1.6.9-1.2.9 1.9.1 3.1.4 3.6 1.4 2.7 1-.8 1.4-.7 1.5.4.1.8.3 2.2.4 3 .1.8.7 1.6 1.5 1.9.7.3 1.3 1.2 1.3 2.1 0 .8.5 1.5 1 1.5.6 0 1 1.2 1 2.6 0 1.4.4 2.3 1 1.9.6-.3 1.3.2 1.7 1.2.4 1 1.1 2.1 1.5 2.4.5.3 1.1 1.5 1.2 2.5.2 1 .9 1.8 1.5 1.7.6-.2 1.1.6 1.1 1.7s.7 2 1.6 2c.8 0 1.2.4.9 1-.8 1.3-3.3 1.2 34.3 1.4 25.8.1 33.6-.2 34.4-1.1.7-.9.7-1.3 0-1.3-.6 0-.9-.9-.7-2 .2-1.1-.2-2-.8-2-.7 0-.6-.4.3-1 1.3-.8 1.2-1-.2-1-1.7 0-2.2-1.9-2.1-6.8.1-.6-.3-1.2-.9-1.2-.5 0-.7-.4-.4-.9.4-.5.2-1.1-.3-1.3-.6-.1-1.1-2.2-1.2-4.4-.2-3-.7-4-1.6-3.7-.9.4-1.3-.4-1.3-2.6 0-1.8-.5-3.1-1.2-3.1-1 0-.9-.3.1-.9.9-.6 1-1 .2-1.2-.7-.3-1.3-2.6-1.4-5.2-.1-2.9-.6-4.6-1.3-4.3-.6.2-1.1-.2-1.1-1 0-.7.3-1.1.7-.9.4.2.7-.2.7-1s-.4-1.2-.9-.9c-.7.5-1.3-4-.9-7.2.1-.6-.6-1.7-1.4-2.4-.9-.7-1.5-2.9-1.5-5.2 0-2.6-.4-3.7-1.1-3.2-.7.4-.7-.1.1-1.6 1-2 1-2.2-.3-1.7-1.1.4-1.4-.2-1.2-2.6.1-1.8-.3-3.8-.9-4.6-.7-1-.7-1.3-.1-.9s1.1-.2 1.1-1.2-.3-1.7-.7-1.4c-.4.2-1.3-.4-2-1.3-1.2-1.4-1.2-1.6.1-.8 1.2.7 1.3.6.4-.6-.6-.8-1.1-3.1-1-5.3 0-2.3-.4-4.1-1.1-4.3-.7-.3-1.3-2.2-1.3-4.2s-.6-4.3-1.2-5c-1-1.1-1-1.3 0-.7.6.4 1.2.3 1.2-.3 0-.5-.4-1.1-.9-1.3-.5-.2-1-2.1-1.2-4.3-.1-2.2-.7-4.6-1.2-5.3-.6-.8-.5-1.2.3-1.2 1 0 1-.3.1-1.4-.9-1.1-.9-1.5.1-1.9.9-.4.7-.6-.4-.6-.9-.1-2-.6-2.4-1.3-.5-.8-.2-.9 1.1-.4 1.6.6 1.6.4.4-1-.8-1-1.5-3.3-1.5-5.3-.1-2-.2-6.1-.3-9.1-.1-4-.4-5.1-1.1-4-.8 1.2-1 .9-1-1.3 0-1.5-.3-2.6-.7-2.6-.5.1-1.6.3-2.5.6zm21.2 86.7c0 .3-.4.8-1 1.1-.5.3-1 .1-1-.4 0-.6.5-1.1 1-1.1.6 0 1 .2 1 .4zM359.5 453.7c.2.7 0 1.3-.5 1.3-1.1 0-.4 3.8 1.1 5.6 1 1.2.8 1.3-.7.8-1.8-.7-1.8-.6.1 1.6 1.1 1.3 1.5 2.1.9 1.7-.6-.3-1.1 0-1.1.8s.4 1.2.9.9c.4-.3.8 2.4.8 5.9 0 4.4.4 6.6 1.3 7 .8.3 1.4 2.5 1.6 5.8.1 2.9.7 6.1 1.3 7.2.5 1.1.6 1.7.1 1.4-.5-.4-1 0-1 .8s.5 1.1 1 .8c.6-.4.8 0 .4 1-.3 1-.3 1.7.1 1.7s.8 1.9.9 4.2c.1 2.2.7 4.4 1.4 4.8.8.6.8.9-.2 1.3s-1 .6-.1.6c.8.1 1.2 1.8 1.2 5.1 0 2.9.5 5 1.1 5 .5 0 .7-.6.3-1.3-.4-.6-.3-.8.1-.4.5.4 1.1 2.9 1.2 5.4.2 2.6.9 5.4 1.6 6.2 1 1.2.9 1.3-.3.6-1.2-.7-1.3-.6-.3.7.7.8 1 1.8.6 2.1-.3.4 0 1.3.7 2.2.7.8.9 2.2.6 3.1-.5 1.2-.2 1.5 1.1 1 1.5-.5 1.5-.4-.1.9-1.7 1.3-1.8 1.5-.3 1.5 1.2 0 1.7.9 1.9 3.2 0 1.8.2 3.7.3 4.3.2.5.3 1.6.4 2.3 0 .7.6 1 1.1.7.6-.3 1-.1 1 .4 0 .6-.6 1.1-1.2 1.1-1 0-1 .2 0 .9.7.4 1.4 2.3 1.4 4.2.1 1.9.7 4.4 1.5 5.6.8 1.2 1.4 2.4 1.4 2.7-.5 3.1.1 5.5 1.2 5.1.8-.4 1.2.5 1.1 2.7 0 1.8.6 4.2 1.3 5.3.7 1.1 1.3 3.2 1.3 4.8 0 1.6.4 2.6 1 2.2.6-.3 1-.3 1.1.2.1.4.2 2 .3 3.4.6 5.6-.5 5.4 24.7 5.3h23.4l.3-2.4c.2-1.3 1.1-3 2-3.7 1.6-1.2 1.6-1.3 0-.7-1 .3-1.8.1-1.8-.5s.7-1.1 1.5-1.1c1.1 0 1.5-1.2 1.5-4.9 0-3.3.5-5.1 1.5-5.4.8-.4 1.2-1.5 1-2.9-.3-1.2.1-2.6.8-3 .9-.6.9-.8-.1-.8s-1-.4.2-1.6c1.4-1.4 2.1-4.7 1.7-8.1-.1-.6.3-1.4.9-1.8.8-.5.7-1.2-.2-2.3-1.1-1.3-1.1-1.5.3-1 .9.4 1.6.1 1.6-.8 0-.7-.5-1-1.1-.7-.6.3-.5 0 .2-.8.6-.7 1.2-3 1.2-5.1 0-2.4.5-3.8 1.3-3.8s.7-.4-.3-1c-1.2-.8-1.3-1.1-.1-1.9.8-.5 1.4-3.1 1.6-6.7.1-3.4.7-6 1.4-6.2.8-.3.6-.9-.6-1.8-1-.8-1.3-1.4-.8-1.3.6.1 1.7.1 2.5-.1 1.1-.1.9-.4-.5-1-1.5-.6-1.6-.9-.4-.9 1-.1 1.5-.9 1.4-2.4-.1-1.2.2-3 .7-4 .5-1 .5-1.7-.1-1.7-.5 0-.7-.9-.4-2.1.4-1.6.8-1.7 1.4-.7.5.7.9.8.9.2 0-.5-.5-1.5-1.2-2.2-.8-.8-.8-1.2-.1-1.2.7 0 1.1-2 1.1-4.8.1-5.9.4-7.5 1.7-8.4.6-.5.5-.8-.4-.8-1.1 0-1.1-.3 0-1.7.8-.9.9-1.4.3-1-.6.3-1.1 0-1.1-.7 0-.8.7-1.2 1.6-.9 1.2.3 1.1 0-.3-1.1-1.6-1.3-1.7-1.6-.4-2.1 1.1-.4 1.4-1.9 1.3-5.3-.1-2.6.2-5.3.8-6 .5-.6.5-1.2.1-1.2-.5 0-.8-3.7-.7-8.2.1-4.5-.2-8.9-.7-9.7-.6-1.2-2.7-1.6-8.2-1.7-4.8-.1-7.2-.5-7.1-1.3.2-.6-.2-1.1-.7-1.1-.6 0-1 .6-1 1.3 0 1-1 1.2-3.7.7-2.3-.4-3.7-1.1-3.5-1.9.1-.7-.2-1-.8-.6-.6.3-.8 1.1-.5 1.6.4.5-.3.9-1.4.9-1.2 0-2.1-.5-2.1-1.1 0-.5.6-.7 1.3-.3.6.4.9.4.5-.1-1.2-1.3-11.8-1.1-11.8.2 0 .7-.4 1.3-1 1.3s-.9-.5-.8-1.1c.2-.6-1.1-1.2-3-1.3-3-.1-3.7.5-3.2 2.9.1.5-.2.6-.7.2-.4-.5-.8-1.4-.8-1.9 0-.8-8.2-1.1-26.3-1.2-20.6-.1-26.1.2-25.7 1.1zm86.2 111.8c0 .8-.4 1.2-.9.9-.5-.3-.6-1-.3-1.5.9-1.3 1.2-1.1 1.2.6z"/><path d="M437.6 452.8c-.3.4.4.9 1.5.9 2.3.2 2.5-.3.4-1-.8-.4-1.6-.3-1.9.1zM474 465.5c0 6-.3 7.6-1.7 8.5-1.7 1.1-1.7 1.1 0 .6 2-.6 2.3 1.4.5 3.2-.9.9-.9 1.2 0 1.2 1.5 0 1 3.3-.8 5.6-1.3 1.6-1.3 1.7.3 1.1 1.5-.6 1.6-.4.4 1.6-.8 1.2-1.3 4.3-1.3 6.9.1 2.7-.3 4.8-.7 4.8-.5 0-.5.6 0 1.2 1.3 2.1 1.2 3.7-.2 3.2-1.7-.7-1.4 1.8.5 4.2 1.4 1.8 1.4 1.8-.3.5-1.6-1.3-1.9-1.3-1.7 0 .6 4.3-.1 14.9-1.1 14.9-.5 0-.7-.5-.3-1.2.4-.6.3-.8-.2-.5-.5.3-1.1 3.8-1.3 7.8-.1 3.9-.8 8.1-1.5 9.3-.7 1.2-1.3 4.3-1.2 6.9.1 2.7-.3 5.1-.8 5.4-.5.4-.6.1-.2-.5.4-.7.2-1.2-.3-1.2-1 0-1.4 2.6-1.4 8.2 0 1-.4 1.8-.8 1.8-.5 0-.9.5-.9 1.1 0 .5.4.7 1 .4.6-.3.7.1.4.9-.3.9-1 1.3-1.5 1-.5-.3-.9 2-.9 5.1 0 3.1-.4 5.4-.8 5.1-.5-.3-.9.1-.9.9s.3 1.2.7 1c.3-.2.7.6.7 1.8.2 1.5 0 1.8-.6.8-1.2-1.9-1.8-.2-1.6 4.1.2 2.9-.1 3.8-1.4 3.8-1 0-1.2.3-.5.8 1.3.9 2.6 4.2 1.6 4.1-2.6-.4-3 .4-2.3 5.1.1.3 16.3.5 36.1.5 28.4 0 35.9-.3 35.5-1.3-.2-.7.3-1.2 1.4-1.2 1.1 0 2.1-.9 2.4-2.1.3-1.2 1-1.8 1.6-1.4.7.3 1.1-.2 1.1-1.5 0-1.1.6-2.3 1.4-2.6.8-.3 1.2-1.2.9-2-.3-.8.1-1.4 1.1-1.4.9 0 1.5-.3 1.5-.8-.5-3 .2-5.1 1.6-4.6 1 .4 1.5 0 1.5-1.4 0-2.9 1.1-5.3 2.1-4.6.5.3.9-.2.9-1.1 0-.9.5-1.3 1-1 .6.3 1 .2 1-.4 0-.5-.6-1.2-1.2-1.4-1-.4-1-.6 0-.6.6-.1 1.2-1 1.2-2 0-1.1.5-2.3 1.2-2.7.7-.4.8-.3.4.4s-.2 1.2.3 1.2c.6 0 1.1-1.1 1.1-2.5s.5-2.5 1-2.5c.6 0 1-.5 1-1.1 0-.7.8-1.8 1.8-2.5 1.6-1.3 1.6-1.4-.3-.8-1.7.5-1.7.3.4-1.4 1.3-1 2.1-2.4 1.7-3-.3-.5.1-1.3 1-1.6.9-.3 1.4-1.3 1.1-2-.3-.8.1-2 .9-2.7.8-.7 1.3-1.8 1-2.6-.3-.7-.1-1.3.5-1.3.5 0 .9-.8.7-1.8-.2-.9.3-1.6 1-1.5 1.3.3 1.4.1 1.6-4.1.1-1.6.7-3.1 1.4-3.4.7-.2 1.2-1.6 1.2-3 0-2 .3-2.3.9-1.3.7 1.1 1.1.4 1.7-2.4.4-2.2 1.3-4.5 2-5.3.7-.7 1.1-1.9.8-2.7-.4-.8-.1-1.5.6-1.5 1 0 1-.3 0-1.5s-1-1.5.3-1.5c1.1 0 1.7-1.2 1.9-4.3.2-2.8.7-4.1 1.6-3.9.7.1 1.2-.3 1.1-1-.1-.7-.1-3.1.1-5.3.1-3 .3-3.5.9-2.1.6 1.6.8 1.7 1.3.4.4-.9.1-2.1-.5-2.7-.6-.6-.7-1.1-.1-1.1.5 0 1-1.5.9-3.3 0-1.7.7-3.7 1.5-4.3 1.2-1 1.2-1.4 0-3-.9-1.1-1-1.5-.2-1s1.2 0 1.2-1.3c0-1.2-.5-2.1-1.1-2.1-.5 0-.8-.4-.5-.9.4-.5-.4-.7-1.6-.3-1.2.3-1.9.1-1.5-.5.3-.5-.8-1-2.6-1-6.8-.1-7.3-.2-5.7-1.3 1.3-.9 1.3-1 0-1-.9 0-2.2.6-2.9 1.2-1 1.1-1.1 1-.6-.2.4-1.2-.2-1.6-2.7-1.5-1.8.1-3.9-.3-4.7-.9-1.2-.9-1.3-.8-.6.4.8 1.3.6 1.3-.8.2-.9-.8-2.2-1-2.8-.6-.8.4-.9.3-.5-.4.6-1.1-3.9-1.7-10.1-1.5-.7.1-1.3-.6-1.3-1.4 0-.8-.5-1.1-1-.8-.6.4-.7 1.2-.3 1.8.5.8.2.8-.9 0-.8-.7-1.8-1-2.1-.6-.4.3-.7 0-.7-.8 0-1.1-.2-1.1-1 .1-.5.8-1 1-1 .4s-1.8-1-4.6-.9c-2.5.1-5.2-.4-5.8-1-1.5-1.5-8.6-2.4-8.6-1.2 0 .5-.5.5-1.2 0-.7-.6-2.1-.9-3-.8-1 .2-1.8-.1-1.8-.7 0-.7-.5-.7-1.2-.1-1.7 1.2-3.7 1.1-4.6-.4-.8-1.2-2.9-1.3-4.9 0-.6.4-1.4.3-1.8-.2-.3-.5-5-1-10.5-1h-10v7.4zM578 480c0 .5-.2 1-.4 1-.3 0-.8-.5-1.1-1-.3-.6-.1-1 .4-1 .6 0 1.1.4 1.1 1zm-109 47.4c0 .3-.4.8-1 1.1-.5.3-1 .1-1-.4 0-.6.5-1.1 1-1.1.6 0 1 .2 1 .4zM590.7 477.7c-.3.7-.6 3.4-1.1 11.5 0 1.5-.5 3-1 3.5-.5.4-.6.3-.2-.5.4-.6.3-1.2-.1-1.2-.5 0-1 1.7-1 3.7-.2 5-.7 7.3-1.9 8.1-.5.4-.9 1.4-.9 2.2 0 .8-.5 2.1-1.2 2.8-1.1 1.1-1.9 5.7-1.4 8.4 0 .5-.5.8-1.3.8-.7 0-1.4 1-1.4 2.2-.2 3.3-.6 5-2.2 7.8-.7 1.4-1.4 2.7-1.4 3-.1.3-.4.4-.8.2-.5-.1-.8 1.1-.8 2.8 0 1.7-.5 3-1.2 3-.9 0-.8.4.2 1 1.3.9.7 1.4-1.2 1.1-.5 0-.8 1.3-.8 3 0 1.6-.4 2.8-.9 2.4-.5-.3-1.2-.1-1.6.5-.3.5.2 1 1.2 1.1 1.5 0 1.6.1.2.7-.9.4-1.5 1.5-1.3 2.4.1 1-.4 1.8-1.2 1.8-.8 0-1.3.3-1.3.7.4 2.5-.3 4.3-1.6 4.3-1 0-1.5 1-1.5 3.2 0 2.5-.3 2.9-1 1.8-.7-1-1-1.1-1.1-.3-.1.7-.3 1.7-.4 2.3-.1.5-.3 1.4-.4 2 0 .5-.7 1-1.5 1s-1.4.6-1.3 1.2c.1 3.3-.4 4.9-1.3 4.3-.5-.3-1 .1-1 1s-.7 2.3-1.5 3.2c-.8.8-1.2 1.9-.9 2.4.3.6-.3 1.3-1.4 1.6-1.3.3-1.8 1.1-1.5 1.9.3.8-.1 1.4-.9 1.4-1.2 0-1.6 1.2-2 5.7-.1 1-.4 1-1.7 0-1.2-1-1.4-.9-.8.5.3 1 0 2.3-.7 3-.7.7-1.3 2-1.3 2.8 0 1.3 2 1.5 12.4 1.5 7.8 0 12.3.3 12.3 1 0 .5.4.4.9-.3.4-.8 1.2-1.4 1.6-1.4.4 0 1.2.6 1.6 1.4.5.7.9.8.9.2 0-.6.7-1.1 1.5-1.1s1.5.5 1.5 1.1c0 .6.4.5.9-.2 1.1-1.7 2.1-1.7 3.2 0 .5.7.9.8.9.2 0-.6.7-1.1 1.5-1.1s1.5.5 1.5 1.1c0 .7.3.7.8.1 1.1-1.5 3.2-1.7 3.2-.2 0 .9.2.9.9-.1.4-.8 1.2-1.4 1.6-1.4.4 0 1.2.6 1.6 1.4.5.7.9.8.9.2 0-1.3 3.8-1.2 5.9 0 1.1.7 1.2.6.6-.5-.8-1.2-.6-1.2.8 0 .9.7 1.7.9 1.7.4 0-.6 1-.9 2.3-.8 1.2.1 2.2.3 2.2.5 0 .5 5.7.5 6 0 .2-.3 2.8-.5 5.7-.5 2.9.1 5.9-.3 6.7-.9.8-.6 1.2-.7.9-.1-.3.6.4 1 1.7 1 1.8 0 2.1-.3 1.3-1.3-.8-.9-.5-1.2 1.1-1.2 1.1 0 2.1-.5 2.1-1 0-.6 1.2-1.5 2.6-2 1.4-.6 2.2-1.4 1.9-2-.3-.5.3-1.7 1.4-2.7 1.1-.9 1.8-2 1.5-2.5-.3-.4.2-.8 1-.8.9 0 1.6-.5 1.6-1s.9-1.9 2-3 1.7-2.6 1.4-3.5c-.4-1-.2-1.5.7-1.3.8.2 1.3-.3 1.2-1-.2-.6.5-1.2 1.4-1.2.9 0 1.4-.3 1-.6-.9-.9 1.6-3.3 2.8-2.6.6.3.3-.3-.5-1.3-.9-1.1-1-1.6-.2-1.1.7.4 1.2.2 1.2-.7 0-.8.7-1.8 1.6-2.1.8-.3 1.2-1 .9-1.6-.3-.5.2-1 1.2-1.1 1.6 0 1.6-.1-.2-.9-1.4-.6-1.6-.9-.5-1 .8-.2 1.9-.2 2.4-.1s.6-.5.3-1.4c-.4-.9-.1-1.5.8-1.5 1.8 0 2-1.6.3-2.3-1-.4-1-.6 0-.6.6-.1 1.2-.9 1.2-1.9 0-1.4.2-1.5 1-.2.9 1.3 1 1.3 1.1 0 .1-.8.1-1.8 0-2.3 0-.4.7-.7 1.7-.8 1 0 1.2-.3.5-.6-1.7-.6-1.7-2.4-.1-2 .7.1 1.3-.5 1.3-1.3s.6-1.4 1.3-1.3c.7.2 1.2-.9 1.2-2.8 0-2.4.4-3 1.5-2.5 1.1.4 1.5-.2 1.5-2.3 0-1.7.7-3.1 1.5-3.5.8-.3 1.5-.9 1.4-1.3-.1-.4-.1-1.7 0-2.8.1-1.7.3-1.8 1.1-.5.8 1.2 1 .8 1.1-1.5.1-1.7.1-3.3 0-3.8 0-.4.6-.7 1.4-.7.9 0 1.5-.9 1.5-2.5 0-1.4.5-2.5 1-2.5.6 0 1-.5 1-1.1 0-.5-.5-.7-1-.4-.6.4-.2-.8.9-2.6 2.1-3.5 2-5.2-.4-4.2-.9.3-1.5-.1-1.5-1s-.5-1.9-1.2-2.3c-.8-.5-.9-.1-.5 1.2.6 1.7.6 1.7-.5.3-1.4-1.7-1.8-1.9-4.9-1.9-1.1 0-1.7-.5-1.4-1 .6-.9-3.1-1.5-6.4-1-1.1.1-1.2-.1-.4-1.2.9-1 .4-1.3-2.5-1.3-2.6-.1-3.6-.5-3.4-1.5.3-1.1 0-1.1-1.3 0s-1.5 1-1-.1c.4-1-.3-1.5-2.2-1.7-1.5-.1-3.2-.7-3.7-1.2-.6-.6-2.1-1-3.4-1-1.3 0-2-.4-1.7-1 .5-.9-4.1-1.6-6.9-1.1-.5.1-.6-.5-.3-1.3.4-1.1.1-1.3-1-.9-1 .4-1.4.2-1-.4.4-.6-.1-1-1.1-1-5.2 0-7.3-.4-6.7-1.3.4-.6-.8-1-2.9-1-3.5 0-4.9-1.4-2.4-2.2.7-.3-1-.6-3.7-.7-6.5-.2-8.3-.5-9.2-1.6-.4-.4-.2-.5.6 0 .9.5 1.2.4.8-.2-.3-.5-2.5-.9-4.8-.9-2.5.1-4.3-.3-4.6-1.1-.6-1.4-9.9-1.9-10.6-.6zm9.3.9c0 .8-1.9 1.3-2.4.6-.3-.5.1-.9.9-.9s1.5.2 1.5.3zm-15.7 30.9c-.3.9-.8 1.4-1 1.1-.3-.3-.2-.9.2-1.5.9-1.6 1.5-1.3.8.4zm50.2 78.5c.3.5.1 1-.4 1-.6 0-1.1-.5-1.1-1 0-.6.2-1 .4-1 .3 0 .8.4 1.1 1z"/><path d="M471.5 480.9c-.3.5-.2 1.2.3 1.5.5.3.9-.1.9-.9 0-1.7-.3-1.9-1.2-.6zM92.7 523.4c.4 1.3.3 1.7-.5 1.2-.7-.4-1.2-.2-1.2.4 0 .6-.4.9-.9.5-.5-.3-1.6.2-2.4 1-.9.8-2.4 1.5-3.4 1.6-1.6 0-1.6.1.2.9 1.7.7 1.7.9.3.9-1 .1-1.8.9-1.8 1.8 0 1.5-.2 1.6-1 .3s-1-1.2-1 .2c0 1.9-3.4 5.8-5 5.8-.5 0-1 .5-1 1.1 0 .5-.6.7-1.2.3-.8-.5-.7 0 .2 1.1.9 1.1 1 1.6.3 1.1-.8-.4-1.3-.1-1.3.8s-.7 1.6-1.6 1.6c-.8 0-1.2.5-.9 1 .3.6-.4 1.4-1.7 1.9-1.3.6-2 1-1.5 1 1 .1-3.1 4.1-4.3 4.1-.5 0-1 .7-1 1.5s-.7 1.5-1.6 1.5c-.8 0-1.3.4-1 .9.3.5-.1 1.1-.9 1.5-.8.3-1.5 1.3-1.5 2.2 0 1-.5 1.4-1.5 1-1-.4-1.5.1-1.5 1.4 0 1.1-.6 1.9-1.2 1.8-.7-.2-1.2.3-1 1 .1.7-.4 1.2-1.2 1-.8-.2-1.5 0-1.5.4-.1 1.2-4 4.8-5.2 4.8-.5 0-.7.4-.4 1 .6.9-.8 1.5-2.9 1.1-.5-.1-.6.5-.3 1.4.4.8.2 1.5-.2 1.5-.5 0-1.2-.6-1.4-1.3-.3-.7-.6-.4-.6.6-.1 1.2-.5 1.6-1.4 1.1-.7-.5-.7-.2.2 1 .8.9 1 1.6.5 1.5-2.1-.4-3.4.2-3.4 1.6 0 1.4-1.2 1.9-3.2 1.6-.5 0-.8.6-.8 1.5 0 .8-.5 1.2-1 .9-.6-.3-1.3.1-1.6.9-.3.9-1.2 1.6-2 1.6s-1.1.6-.8 1.5c.4 1 0 1.5-1.5 1.5-1.4 0-1.9.5-1.5 1.5.5 1.1.2 1.3-1 .9-.9-.4-1.6-.1-1.6.6s-.7 1-1.7.5c-1.4-.5-1.5-.4-.6.6 1 1 .9 1.5-.5 2.5-.9.8-2.5 1.4-3.4 1.4-1 0-1.8.7-1.8 1.5 0 .9-.7 1.8-1.5 2.1-.8.4-1.2 1.1-.8 1.7.3.6.1.7-.5.3-.6-.3-2.2.5-3.5 1.8-1.4 1.4-2.8 2.2-3.1 1.9-.3-.4-.6-.3-.6 0s1 1.1 2.2 1.8c1.8 1 2 .9 1.4-.6-.5-1.4-.3-1.5.6-.7.7.6 3.3 1 5.8.9 2.8-.1 4.5.3 4.5 1 0 .6.4 1.5.8 2 .5.4.8.3.7-.2-.1-.6-.2-1.5-.1-2 .1-1.4 10.6-1.1 10.6.3 0 .6.4 1.4.8 1.9.5.4.8.3.7-.2-.1-.6-.2-1.5-.1-2 .1-1.3 6.6-1.1 6.6.3 0 .6.4 1.4.8 1.9.5.4.8.3.7-.2-.1-.6-.2-1.5-.1-2 .1-1.4 10.6-1.1 10.6.3 0 .6.4 1.4.8 1.9.5.4.8.3.7-.2-.1-.6-.2-1.5-.1-2 .1-1.4 10.6-1.1 10.6.3 0 .6.4 1.4.8 1.9.5.4.8.3.7-.2-.1-.6-.2-1.5-.1-2 .1-1.3 6.4-1.3 7.3 0 .5.7.8.7.8 0 0-.9 4.4-1 15.8-.6 1.6.1 2.1.5 1.6 1.3-.6 1-.4 1 .7 0 1.5-1.4 3.3-1.7 2.5-.4-.9 1.6 2.9.9 4.2-.7 1.2-1.5 1.3-1.4.8.1-.4 1.3 0 1.6 1.6 1.3 1.2-.3 2.5-1 3-1.7.5-.9.8-.7.8.6 0 2 0 2 1.6 0 1-1.3 1.4-1.4 1.1-.4-.3 1 .2 1.6 1.4 1.6 1.1 0 1.5-.4.9-1.1-.6-.7.4-.9 3.1-.7 2.1.2 3.9.9 3.9 1.5s.7.2 1.6-.9c1-1.3 1.4-1.4 1.1-.4-.3 1 .2 1.6 1.4 1.6 1.1 0 1.5-.4.9-1.1-.5-.7.6-.9 3.6-.7 2.9.3 4.2.8 3.8 1.6-.3.6.2.2 1-.8 1.6-2 1.6-2 1.7 0 0 1 .3 1.3.6.6.2-.6 1.2-1.2 2-1.2 1.3 0 1.4.2.2 1.7-1.2 1.6-1.2 1.7.2.6.9-.7 2-.9 2.4-.5.5.4.5-.2.1-1.2-.5-1.5-.4-1.7.8-.7 1.1.9 1.5.9 1.9-.1.3-.8.6-.5.6.6.1 2 .1 2 1.7 0 1-1.3 1.4-1.4 1.1-.4-.3 1 .2 1.6 1.4 1.6 1.1 0 1.5-.4.9-1.1-.5-.7.6-.9 3.6-.7 2.9.3 4.2.8 3.8 1.6-.3.6.2.2 1-.8 1.2-1.5 1.6-1.6 1.6-.5 0 .9.9 1.5 2.4 1.5s2.2-.5 1.9-1.3c-.3-.8.3-1.1 1.9-.8 1.2.3 2.5 1 2.6 1.5.2.6 1.1.3 1.9-.7 1.1-1.3 1.3-1.4 1-.3-.3 1 .2 1.6 1.4 1.6 1.1 0 1.5-.4.9-1.1-.5-.7.6-.9 3.6-.7 2.9.3 4.2.8 3.8 1.6-.3.6.2.2 1-.8 1.2-1.5 1.6-1.6 1.6-.5 0 .9.9 1.5 2.4 1.5s2.2-.5 1.9-1.3c-.3-.8.3-1.1 1.9-.8 1.2.3 2.5 1 2.6 1.5.2.6 1.1.3 1.9-.7 1.1-1.3 1.3-1.4 1-.3-.3 1 .2 1.6 1.4 1.6s1.5-.4.9-1.1c-1.2-1.5 4.9-.7 6.9.9 1.1.8 1.3.8.7-.2-.5-.9.2-1.2 2.6-1.2 1.9 0 4 .6 4.7 1.2.9.8 1.1.9.7.2-.4-.8.9-1.3 3.9-1.6 2.5-.2 4.5 0 4.5.4 0 .8-1.6 1.2-3.3.9-.5-.1-.5.3-.2.9.5.8 1.4.6 3-.4 2.2-1.5 4.8-1.6 6.1-.3.4.3-.3.5-1.5.2-2.4-.4-2.7.5-.8 2.4.6.7.8 1.2.2 1.1-2-.4-3.5 0-3.5 1 0 .6-.9 1.9-2 3-1.2 1.2-1.8 2.5-1.5 3.1.4.5.3.9-.2.8-.4-.1-1.7-.1-2.8 0-1.6.1-1.7.3-.5 1.1 1.1.7.9 1.1-1.1 1.9-1.5.5-2.9 1.9-3.2 3-.3 1.2-1.2 2.1-2.1 2.1-1 0-1.3.6-.9 1.7.3 1 .2 1.5-.2 1.1-.5-.5-1.5.1-2.3 1.3-.8 1.2-2 1.8-2.9 1.4-1.3-.4-1.4-.3-.3 1 1.1 1.3 1 1.4-.4.9-1.2-.5-1.5-.2-1 1s.2 1.5-1.2.9c-1.2-.4-1.5-.3-1 .5s-.1 1.2-1.6 1.3c-2.1 0-2.1.1-.4.8 1.9.7 1.9.8-.3 1.4-1.5.4-2 1-1.5 1.8.4.7.3 1-.4.5-.6-.3-1.6.3-2.2 1.4-.6 1.1-1.7 2-2.5 2-.7 0-1.7.5-2.1 1.2-.5.7-.3.8.7.3 1.2-.8 1.2-.6 0 .8-.7.9-1.8 1.4-2.4 1-.6-.4-.7-.1-.3.6.5.8 0 1.4-1.3 1.8-1.1.3-1.8.9-1.5 1.4.3.5-.2.9-1.1.9-.9 0-1.9.9-2.2 2-.3 1.1-.9 1.7-1.4 1.4-.5-.3-1.2.2-1.5 1-.3.9-1 1.3-1.5 1-.5-.3-1 0-1 .5-.1.6-.3 1.5-.4 2.1-.1.5-.3 1.3-.4 1.7-.1.5-.6.1-1.1-.7-.8-1.3-1-1.2-1 .2 0 1-.5 1.8-1 1.8-1.4 0-5 3.7-4.3 4.4.6.6-1.3 1-3.1.7-.5-.1-.6.5-.3 1.4.4.9.1 1.5-.8 1.5-.8 0-1.5.7-1.5 1.5 0 .9-.6 1.2-1.5.8-.9-.3-1.5-.2-1.4.3.1.5.1 1.6 0 2.4-.1 1.3-.2 1.3-1.1 0-.9-1.3-1-1.3-1.1 0-.1.8-.1 1.8 0 2.2 0 .5-.6.8-1.4.8-.8 0-1.5.7-1.5 1.5s-.7 1.5-1.5 1.5-1.5.7-1.5 1.6c0 .8-.4 1.3-.8 1-.5-.3-1.6.4-2.5 1.5-1.1 1.3-1.3 1.9-.4 1.9s.9.2-.1.8c-.7.5.6.9 3.3.9 2.5.1 4.3-.2 4-.6-.2-.4.2-.8 1-.8s1.2.4.9.9c-.3.4 58.9.8 131.5.8 104.3 0 132-.3 132.4-1.3.4-.9.6-.9.6 0 .1 1.9 4.2 1.6 5.6-.3 1-1.4 1.3-1.4 2.6-.2 1.5 1.5 7.3 1.8 8.6.4.4-.5-.2-.5-1.4-.2-1.4.5-2.3.3-2.3-.3 0-1 8.2-1.7 13.3-1.1 1 .1 2.5-.7 3.4-1.7 1.2-1.5 1.4-1.5.9-.1-.4 1.4-.2 1.5 2.1.3 1.3-.7 3.6-1.2 4.9-1 1.5.1 2.4-.3 2.4-1.2 0-1.2.3-1.2 1.6.1 2 2 3 2.1 1.4.1-1.1-1.3-.6-1.5 3.1-1.6 7.7-.2 8.7-.4 9.6-1.3.4-.5.3-.6-.4-.2-.7.4-2 .3-2.9-.2-1.1-.6 0-.9 3.6-1.1 3.2-.1 5.8-.8 6.8-1.8 1.1-1 1.7-1.2 2-.4.2.6.9.8 1.5.4.7-.4 2.1-.9 3.2-1 1-.2 2.2-.8 2.6-1.4.3-.6 2.6-1.3 5-1.5 2.4-.3 4.8-1 5.4-1.5.5-.5 1.7-.9 2.7-.9.9 0 2.2-.8 2.8-1.7 1-1.6 1.1-1.6.6-.1-.3 1.2-.1 1.5 1 1.1.7-.3 1.4-1 1.4-1.5 0-.6.7-.8 1.5-.4.8.3 2.1-.1 2.9-.9.8-.8 2.5-1.6 3.7-1.8 1.3-.2 2.5-.9 2.7-1.5.6-1.9 2.2-1.4 1.6.5-.5 1.7-.5 1.7.6 0 .6-.9 2.2-1.7 3.5-1.7 1.3 0 2.5-.4 2.7-1 .2-.5 1.4-1.1 2.8-1.2 1.4-.2 3-.9 3.5-1.6.6-.7 2.4-1.5 4-1.8 1.7-.3 3.4-.9 4-1.5.5-.5 1.7-.9 2.7-.9 1 0 1.8-.6 1.8-1.3 0-.7 1-1.4 2.2-1.4 1.3-.1 2.7-.8 3.3-1.6.5-.8 2-1.3 3.2-1.2 1.2.1 2.1-.3 2-.9-.1-.6 1-1.2 2.6-1.4 1.5-.2 2.7-.9 2.7-1.8s1.1-1.4 3.3-1.5c2.7 0 2.9-.2 1.2-.9-2-.9-.7-1.5 2.3-1.1.6.1 1.2-.6 1.2-1.5 0-1.4.3-1.4 1.5-.4 1.3 1.1 1.4 1 .9-.3-.4-1.2-.1-1.5 1.5-1.2 1.3.2 1.9 0 1.5-.6-.3-.6.3-1.3 1.5-1.6 1.2-.3 2.1-1 2.1-1.7 0-.6.5-.4 1 .4.8 1.3 1 1.2 1-.3 0-.9.7-1.7 1.6-1.7.8 0 1.2-.4.9-1-.3-.5.1-1 .9-1 .9 0 1.6-.4 1.6-1 0-.5.7-.6 1.7-.3 1.1.4 1.4.3.9-.5-.4-.7-.2-1.2.4-1.2.7 0 2.5-.9 4-2 2.1-1.5 3-1.7 3.4-.8.3.7.3.2 0-1.1-.5-1.9-.3-2.3.9-1.8.9.3 1.8-.1 2.1-.9.3-.9 1.1-1.2 1.7-.9.6.4 1.3-.2 1.5-1.2.3-1 1.4-2.5 2.6-3.2 1.5-.9 1.8-1 1.3 0-.5.8-.4 1 .3.5.7-.4 1.2-1.5 1.2-2.4 0-1.5.2-1.5 1-.2s1 1.2 1-.3c0-.9.7-1.7 1.6-1.7.8 0 1.2-.5.9-1.1-.4-.6.2-1.3 1.4-1.6 1.2-.3 2.1-1.2 2.1-2s.4-1.2.9-.9c.5.3 1.1 0 1.4-.7.6-1.6.8-1.5-10.1-1.9-4.5-.2-8.2.1-8.2.6s-.7.3-1.5-.4c-1.2-1-1.5-1-1.5.1 0 .9-.3 1-.8.4-.9-1.3-8.2-1.3-8.3 0-.1.5 0 1.4.1 2 .1.5-.2.6-.7.2-.4-.5-.8-1.3-.8-1.9 0-.6-2.1-1.1-4.7-1.2-2.7-.1-4.8.3-4.8.9 0 .7-.3.7-.8 0-.9-1.2-8.2-1.4-8.2-.1 0 .4-.7.3-1.5-.4-1.2-1-1.5-1-1.5.1 0 .9-.3 1-.8.4-.9-1.3-8.2-1.3-8.3 0-.1.5 0 1.4.1 2 .1.5-.2.6-.7.2-.4-.5-.8-1.3-.8-1.9 0-.6-2.1-1.1-4.7-1.2-2.7-.1-4.8.3-4.8.9 0 .7-.3.7-.8 0-.9-1.2-8.2-1.4-8.2-.1 0 .4-.7.3-1.5-.4-1.2-1-1.5-1-1.5.1 0 .9-.3 1-.8.4-.9-1.3-8.2-1.3-8.3 0-.1.5 0 1.4.1 2 .1.5-.2.6-.7.2-.4-.5-.8-1.3-.8-1.9 0-.6-2.1-1.1-4.7-1.2-2.7-.1-4.8.3-4.8.9 0 .7-.3.7-.8 0-.9-1.2-8.2-1.4-8.2-.1 0 .4-.7.3-1.5-.4-1.2-1-1.5-1-1.5.1 0 .9-.3 1-.8.4-.9-1.3-8.2-1.3-8.3 0-.1.5 0 1.4.1 2 .1.5-.2.6-.7.2-.4-.5-.8-1.3-.8-1.9 0-.6-2.1-1.1-4.7-1.2-2.7-.1-4.8.3-4.8.9 0 .7-.3.7-.8 0-.9-1.2-8.2-1.4-8.2-.1 0 .4-.7.3-1.5-.4-1.2-1-1.5-1-1.5.1 0 .9-.3 1-.8.4-.9-1.3-8.2-1.3-8.3 0-.1.5 0 1.4.1 2 .1.5-.2.6-.7.2-.4-.5-.8-1.3-.8-1.9 0-.6-2.1-1.1-4.8-1.2-2.6-.1-4.7.3-4.7.9 0 .7-.3.7-.8 0-.9-1.2-8.2-1.4-8.2-.1 0 .4-.7.3-1.5-.4-1.2-1-1.5-1-1.5.1 0 .9-.3 1-.8.4-.9-1.3-8.2-1.3-8.3 0-.1.5 0 1.4.1 2 .1.5-.2.6-.7.2-.4-.5-.8-1.3-.8-1.9 0-.6-2.1-1.1-4.8-1.2-2.6-.1-4.7.3-4.7.9 0 .7-.3.7-.8 0-.9-1.2-8.2-1.4-8.2-.1 0 .4-.7.3-1.5-.4-1.2-1-1.5-1-1.5.1 0 .9-.3 1-.8.4-.9-1.3-8.2-1.3-8.3 0-.1.5 0 1.4.1 2 .1.5-.2.6-.7.2-.4-.5-.8-1.3-.8-1.9 0-1.4-10.5-1.7-10.6-.3-.1.5 0 1.4.1 2 .1.5-.2.6-.7.2-.4-.5-.8-1.3-.8-1.9 0-.7-2.7-1.1-6.8-1.2-3.8-.1-6.7.3-6.7.9 0 .7-.3.7-.8 0-.9-1.3-8.2-1.3-8.3 0-.1.5 0 1.4.1 2 .1.5-.2.6-.7.2-.4-.5-.8-1.3-.8-1.9 0-.7-2.7-1.1-6.8-1.2-3.8-.1-6.7.3-6.7.9 0 .7-.3.7-.8 0-.9-1.3-8.2-1.3-8.3 0-.1.5 0 1.4.1 2 .1.5-.2.6-.7.2-.4-.5-.8-1.4-.8-2 0-1.4-5.7-1.6-6.8-.2-.6.6-1 .6-1.4-.2-.3-.9-1-1-2.4-.3-1 .6-1.9.7-1.9.3 0-1.5-8.5-.9-9.2.7-.5 1.1-.7 1-.7-.5-.1-1.7-.3-1.7-1.1-.5-.7 1.1-1 1.1-1 .2 0-1-.5-1-2-.2-1.1.6-2 .7-2 .3 0-1.5-8.5-.9-9.2.7-.6 1.3-.7 1.3-.7 0-.1-1.1-1.2-1.5-4.1-1.5-2.2 0-4 .4-4 .9s-.7.3-1.5-.4c-1.2-1-1.5-1-1.5.1 0 .9-.3 1-.8.4-.8-1.1-8.2-1.4-8.2-.3 0 .4-1 .4-2.2 0-2.7-.9-7-.8-8.6.2-.6.3-1.3.3-1.5-.1-.3-.5-6.7-.7-14.4-.5-14.9.3-15.1.3-18.8 0-2.6-.2-3.6-2.8-1-2.8.8 0 1.5-.5 1.5-1.1 0-.7.8-1.8 1.8-2.6.9-.8 1.1-1.1.3-.7-1 .5-1.2.3-.7-.5.5-.7 1.5-1 2.3-.6 1.4.5 1.4.3.2-1.2-.7-1-1-1.5-.5-1.1.8.7 4.6-2.6 4.6-4.1 0-.5.7-1.2 1.6-1.5.8-.3 1.2-1 .9-1.6-.3-.5.1-1 .9-1 1.4 0 2.1-1.8 1.7-4.3-.2-1.2 1.7-.8 2.2.5.3.8.6.6.6-.5.1-.9.7-1.7 1.4-1.7.8 0 .7-.4-.3-1-1.2-.8-1.1-1 .8-1 1.7 0 2.6-.8 3.3-3 .6-1.6 1.5-2.7 2-2.4.5.3.9-.4.9-1.6 0-1.2.5-1.8 1-1.5.6.3 1-.1 1-.9 0-.9.8-1.6 1.8-1.7 1.1 0 1.3-.2.4-.6-1-.4-.7-.9 1-1.7 1.2-.6 2.4-2.2 2.6-3.4.2-1.4 1-2.2 2.2-2.2 1.4 0 1.8-.5 1.3-1.7-.4-1-.2-1.4.4-1 .7.5 1.4-.5 1.8-2.4.5-2.3.9-2.8 1.6-1.8.7 1.2.9 1.1 1-.1.1-.8.1-2.1 0-2.7-.1-.8.5-1 1.4-.7 1.1.4 1.5 0 1.5-1.6 0-1.1.5-1.8 1-1.5.9.6 1.2 0 1.4-3.5.1-.8.8-1.5 1.6-1.5.9 0 1.4-.8 1.2-1.8-.2-1.1.2-1.5 1.3-1.1 1.1.4 1.5 0 1.5-1.6 0-1.4.4-1.9 1.2-1.4.8.5.9.2.5-.9-.5-1.3-.1-1.7 1.5-1.7 2.1 0 2.1 0 .2-1.5-1.9-1.4-1.9-1.4.2-1 1.7.2 2.1-.2 2-1.8-.1-1.3.4-2.1 1.2-1.9 1.3.2 1.6-2.6.6-5.2-.3-.9-1.6-1.6-2.8-1.5-2 0-2 .1-.1.9s1.9.9-.2.9c-1.3.1-2.3-.4-2.3-.9 0-.6-.5-1-1.1-1-.5 0-.8.4-.4.9.3.5.1 1.3-.5 1.6-.6.4-.9.1-.8-.6.2-.7-.6-1.4-1.7-1.6-1.6-.3-1.7-.2-.5.6 1.3.9 1.2 1.1-.3 1.1-1 0-2-.7-2.3-1.5-.4-.8-1.1-1.2-1.6-.9-.7.4-.6.9.2 1.4.6.4-.3.7-2 .8-3 .1-3.1 0-1.4-1.3 1.8-1.3 1.8-1.4-.3-.8-1.3.3-2.3.9-2.3 1.4 0 .5-1.3.8-2.9.7-1.6-.1-2.7-.6-2.5-1 .3-.4.1-.8-.5-.8-.5 0-1.2.8-1.4 1.7-.4 1.7-.5 1.7-.6 0-.1-1.8-4.1-2.5-4.1-.7 0 1.6-4 1.2-4.6-.5-.4-.8-1.1-1.2-1.6-.9-.6.4-.6.9.2 1.4.7.5.2.7-1.4.7-2.3 0-2.5-.2-1.4-1.6 1.1-1.4 1.1-1.4-.2-.5-.8.6-2.8.9-4.5.8-2.2-.2-2.6-.1-1.5.6 1.3.8 1.2 1-.2 1-1 0-1.8-.5-1.8-1 0-.6-.8-1-1.7-1-1.5 0-1.6.2-.3 1s1.2 1-.2 1c-1 0-1.8-.5-1.8-1 0-.6-.5-1-1.1-1-.5 0-.8.4-.4.9.3.5.1 1.3-.5 1.6-.6.4-.9.1-.8-.6.2-.7-.6-1.4-1.7-1.6-1.6-.3-1.7-.2-.5.6 1.3.9 1.2 1.1-.3 1.1-1 0-2-.7-2.3-1.5-.4-.8-1.1-1.2-1.6-.9-.7.4-.6.9.2 1.4.6.4-.3.7-2 .8-3 .1-3.1 0-1.4-1.3 1.8-1.3 1.8-1.4-.3-.8-1.3.3-2.3.9-2.3 1.4 0 .5-1.3.8-2.9.7-1.6-.1-2.7-.6-2.5-1 .3-.4.1-.8-.5-.8-.5 0-1.2.8-1.4 1.7-.4 1.7-.5 1.7-.6 0-.1-1.8-4.1-2.5-4.1-.7 0 1.6-4 1.2-4.6-.5-.4-.8-1.1-1.2-1.6-.9-.6.4-.6.9.2 1.4.7.5.2.7-1.4.7-2.3 0-2.5-.2-1.4-1.6 1.1-1.4 1.1-1.4-.2-.5-.8.6-2.8.9-4.5.8-2.2-.2-2.6-.1-1.5.6 1.3.8 1.2 1-.2 1-1 0-1.8-.5-1.8-1 0-.6-.8-1-1.7-1-1.5 0-1.6.2-.3 1s1.2 1-.2 1c-1 0-1.8-.5-1.8-1 0-.6-.5-1-1.1-1-.5 0-.8.4-.4.9.3.5.1 1.3-.5 1.6-.6.4-.9.1-.8-.6.2-.7-.6-1.4-1.7-1.6-1.6-.3-1.7-.2-.5.6 1.3.9 1.2 1.1-.3 1.1-1 0-2-.7-2.3-1.5-.4-.8-1.1-1.2-1.6-.9-.7.4-.6.9.2 1.4.6.4-.3.7-2 .8-3 .1-3.1 0-1.4-1.3 1.8-1.3 1.8-1.4-.3-.8-1.3.3-2.3.9-2.3 1.4 0 .5-1.3.8-2.9.7-1.6-.1-2.7-.6-2.5-1 .3-.4.1-.8-.5-.8-.5 0-1.2.8-1.4 1.7-.4 1.7-.5 1.7-.6 0-.1-1.8-4.1-2.5-4.1-.7 0 1.6-4 1.2-4.6-.5-.4-.8-1.1-1.2-1.6-.9-.6.4-.6.9.2 1.4.7.5.2.7-1.4.7-2.3 0-2.5-.2-1.4-1.6 1.1-1.4 1.1-1.4-.2-.5-.8.6-2.8.9-4.5.8-2.2-.2-2.6-.1-1.5.6 1.3.8 1.2 1-.2 1-1 0-1.8-.5-1.8-1 0-.6-.8-1-1.7-1-1.5 0-1.6.2-.3 1s1.2 1-.2 1c-1 0-1.8-.5-1.8-1 0-.6-.5-1-1.1-1-.5 0-.8.4-.4.9.3.5.1 1.3-.5 1.6-.6.4-.9.1-.8-.6.2-.7-.6-1.4-1.7-1.6-1.6-.3-1.7-.2-.5.6 1.3.9 1.2 1.1-.3 1.1-1 0-2-.7-2.3-1.5-.4-.8-1.1-1.2-1.6-.9-.7.4-.6.9.2 1.4.6.4-.3.7-2 .8-3 .1-3.1 0-1.4-1.3 1.8-1.3 1.8-1.4-.3-.8-1.3.3-2.3.9-2.3 1.4 0 .5-1.3.8-2.9.7-1.6-.1-2.7-.6-2.5-1 .3-.4.1-.8-.5-.8-.5 0-1.2.8-1.4 1.7-.4 1.7-.5 1.7-.6 0-.1-1.8-4.1-2.5-4.1-.7 0 1.6-4 1.2-4.6-.5-.4-.8-1.1-1.2-1.6-.9-.6.4-.5 1 .3 1.6 1.1.8 1.1.9-.2.5-.9-.3-2.2-.1-3 .4-1 .6-1.9.2-3.2-1.4-1.4-1.8-1.6-1.9-1-.3zM244 580c0 .5-.5 1-1.1 1-.5 0-.7-.5-.4-1 .3-.6.8-1 1.1-1 .2 0 .4.4.4 1zm247.7 96.6c-.3.3-1.2.4-1.9.1-.8-.3-.5-.6.6-.6 1.1-.1 1.7.2 1.3.5z"/><path d="M95.3 523.7c0 .9.4 1 1.4.2.7-.6 1.3-1.2 1.3-1.4 0-.1-.6-.2-1.3-.2-.8 0-1.4.6-1.4 1.4zM114.8 523.7c.7.3 1.6.2 1.9-.1.4-.3-.2-.6-1.3-.5-1.1 0-1.4.3-.6.6zM162.8 523.7c.7.3 1.6.2 1.9-.1.4-.3-.2-.6-1.3-.5-1.1 0-1.4.3-.6.6zM210.8 523.7c.7.3 1.6.2 1.9-.1.4-.3-.2-.6-1.3-.5-1.1 0-1.4.3-.6.6zM258.8 523.7c.7.3 1.6.2 1.9-.1.4-.3-.2-.6-1.3-.5-1.1 0-1.4.3-.6.6zM274.1 564.5c-.1 1.7-.3 1.8-1.1.5-.7-1.2-1-.8-1 1.4 0 1.6-.3 2.6-.6 2.3-.8-.7-4.4 3.6-4.4 5.1 0 .6-.4 1.4-1 1.7-.6.4-.7-.1-.4-1.2.5-1.5.4-1.6-.5-.3-.6.8-1.1 2.3-1.1 3.2 0 1-.7 1.8-1.6 1.8-1 0-1.4.6-1.1 1.4.3.8-.1 1.7-.9 2-.8.3-1.4 1.5-1.4 2.6 0 1.3-.4 1.8-1.1 1.5-.6-.4-1.3.2-1.6 1.4-.3 1.2-.9 2.1-1.4 2.1-.5 0-.9.7-.9 1.6 0 .8-.4 1.2-1 .9-1.4-.9-1.2.1.4 1.7 1 1.1 5.3 1.3 19.7 1.2 22.4-.3 20.6-.1 20.6-1.9 0-1.8-1.3-2-2-.3-.3.7-.6.1-.6-1.5-.1-3.7-.2-3.9-3.1-6.6-1.4-1.4-1.7-1.8-.5-1 1.7 1.2 1.7 1-.3-1.2-1.2-1.4-1.9-2.9-1.5-3.2.3-.4-.1-.7-1-.7-1.5 0-2.2-1.8-1.8-4.3.1-.5-.3-.6-.9-.2-.5.3-1-.3-1-1.4 0-1.2-.7-2.1-1.6-2.1-.8 0-1.2-.5-.9-1 .3-.6.1-1-.4-1-.6 0-1.1-.7-1.1-1.5s-.4-1.5-.9-1.5-1.2-.8-1.4-1.8c-.4-1.4-.5-1.4-.6.3zM157 610c0 .5.5 1 1.1 1 .5 0 .7-.5.4-1-.3-.6-.8-1-1.1-1-.2 0-.4.4-.4 1zM181 610c0 .5.5 1 1.1 1 .5 0 .7-.5.4-1-.3-.6-.8-1-1.1-1-.2 0-.4.4-.4 1zM416 694c0 .5.5 1 1.1 1 .5 0 .7-.5.4-1-.3-.6-.8-1-1.1-1-.2 0-.4.4-.4 1z"/></svg>