<svg width="26" height="26" viewBox="0 0 26 26" xmlns="http://www.w3.org/2000/svg">
<path d="M24.6999 0H1.3C0.58202 0 0 0.581877 0 1.29968C0 2.01748 0.58202 2.59936 1.3 2.59936H6.93332V6.19513C1.97643 9.54484 0.674157 16.2777 4.02468 21.2334C7.37521 26.1892 14.1097 27.4911 19.0667 24.1414C24.0236 20.7917 25.3258 14.0588 21.9754 9.10311C21.2005 7.95695 20.2131 6.96985 19.0667 6.19513V2.59936H24.7C25.418 2.59936 26 2.01748 26 1.29968C26 0.581877 25.4179 0 24.6999 0ZM22.9666 15.1629C22.9666 20.666 18.5044 25.1271 13 25.1271C7.49557 25.1271 3.03333 20.666 3.03333 15.1629C3.03333 9.65986 7.49557 5.19871 13 5.19871C18.5019 5.20467 22.9607 9.6623 22.9666 15.1629ZM7.79998 5.66486V2.59936H18.2V5.66486C14.9611 3.88804 11.0389 3.88804 7.79998 5.66486ZM24.6999 1.7329H1.3C1.06069 1.7329 0.866665 1.53893 0.866665 1.29968C0.866665 1.06043 1.06069 0.866452 1.3 0.866452H24.6999C24.9393 0.866452 25.1333 1.06043 25.1333 1.29968C25.1333 1.53893 24.9393 1.7329 24.6999 1.7329Z"/>
<path d="M7.8 12.1302V15.5961C7.80168 17.1501 8.56196 18.6056 9.83666 19.4951H7.8C7.08202 19.4951 6.5 20.077 6.5 20.7948C6.5 21.5126 7.08202 22.0944 7.8 22.0944H18.2C18.918 22.0944 19.5 21.5126 19.5 20.7948C19.5 20.077 18.918 19.4951 18.2 19.4951H16.1655C17.3135 18.692 18.0496 17.4242 18.1779 16.0293H18.6333C19.8299 16.0293 20.8 15.0594 20.8 13.8631C20.8 12.6668 19.8299 11.697 18.6333 11.697H18.1202C17.9373 11.1796 17.4489 10.8328 16.9 10.8306H9.09999C8.38202 10.8306 7.8 11.4124 7.8 12.1302ZM18.2 12.5635H18.6333C19.3513 12.5635 19.9333 13.1453 19.9333 13.8631C19.9333 14.581 19.3513 15.1628 18.6333 15.1628H18.2V12.5635ZM18.2 20.3615C18.4393 20.3615 18.6333 20.5555 18.6333 20.7948C18.6333 21.034 18.4393 21.228 18.2 21.228H7.8C7.56069 21.228 7.36667 21.034 7.36667 20.7948C7.36667 20.5555 7.56069 20.3615 7.8 20.3615H18.2ZM17.3333 12.1302V15.5961C17.3309 17.7484 15.5862 19.4927 13.4333 19.4951H12.5667C10.4138 19.4927 8.66905 17.7484 8.66666 15.5961V12.1302C8.66666 11.891 8.86069 11.697 9.09999 11.697H16.9C17.1393 11.697 17.3333 11.891 17.3333 12.1302Z"/>
<path d="M13.6412 6.49841H12.7745C12.7773 6.6188 12.7319 6.73528 12.6484 6.82203C12.2622 7.30871 12.2622 7.99721 12.6484 8.48389C12.8176 8.66747 12.8176 8.95015 12.6484 9.13373C12.4575 9.3681 12.3549 9.66199 12.3585 9.96422H13.2252C13.2222 9.84346 13.2677 9.7266 13.3517 9.63974C13.7377 9.15268 13.7377 8.46407 13.3517 7.97701C13.1821 7.7936 13.1821 7.51059 13.3517 7.32717C13.5426 7.0935 13.645 6.8001 13.6412 6.49841Z"/>
<path d="M9.75864 9.96422H10.6253C10.6223 9.84346 10.6679 9.7266 10.7518 9.63974C11.1379 9.15268 11.1379 8.46407 10.7518 7.97701C10.5822 7.7936 10.5822 7.51059 10.7518 7.32717C10.9427 7.0935 11.0451 6.8001 11.0413 6.49841H10.1746C10.1774 6.6188 10.132 6.73528 10.0485 6.82203C9.66233 7.30871 9.66233 7.99721 10.0485 8.48389C10.2177 8.66747 10.2177 8.95015 10.0485 9.13373C9.85765 9.3681 9.75501 9.66199 9.75864 9.96422Z"/>
<path d="M14.9586 9.96422H15.8253C15.8223 9.84346 15.8678 9.7266 15.9518 9.63974C16.3378 9.15268 16.3378 8.46407 15.9518 7.97701C15.7822 7.7936 15.7822 7.51059 15.9518 7.32717C16.1426 7.0935 16.2451 6.8001 16.2413 6.49841H15.3746C15.3774 6.6188 15.332 6.73528 15.2485 6.82203C14.8623 7.30871 14.8623 7.99721 15.2485 8.48389C15.4177 8.66747 15.4177 8.95015 15.2485 9.13373C15.0576 9.3681 14.955 9.66199 14.9586 9.96422Z"/>
</svg>
