<svg width="26" height="26" viewBox="0 0 26 26" xmlns="http://www.w3.org/2000/svg">
<path d="M18.4115 8.76286L18.1333 7.84723C17.7799 6.80712 16.6502 6.25045 15.6101 6.60383C15.025 6.80262 14.5655 7.26212 14.3667 7.84723L14.0885 8.76286C13.8544 9.53506 13.8053 10.3515 13.9451 11.1462C14.0726 11.8153 14.4974 12.3901 15.0995 12.7084L14.7879 19.6733C14.7462 20.0621 14.8723 20.4502 15.1346 20.7402C15.6986 21.3572 16.6561 21.4001 17.273 20.836C17.3064 20.8055 17.3384 20.7736 17.3689 20.7402C17.6253 20.4584 17.7512 20.0817 17.7155 19.7024L17.4022 12.7075C18.0035 12.389 18.4276 11.8146 18.5549 11.1462C18.6947 10.3515 18.6456 9.53506 18.4115 8.76286ZM17.7012 10.9954C17.6074 11.4761 17.2649 11.8705 16.8021 12.0306C16.6264 12.0967 16.5132 12.2683 16.5217 12.4557L16.851 19.7708C16.8662 19.9143 16.8189 20.0574 16.721 20.1634C16.4601 20.4218 16.0399 20.4218 15.779 20.1634C15.6763 20.0488 15.6296 19.8945 15.6516 19.7422L15.9783 12.4557C15.9867 12.2683 15.8736 12.0967 15.6979 12.0306C15.2351 11.8705 14.8926 11.4761 14.7988 10.9954C14.6828 10.3356 14.7237 9.65786 14.9179 9.0168L15.1961 8.10073C15.4114 7.51871 16.0577 7.22139 16.6398 7.43665C16.9475 7.55045 17.1901 7.79306 17.3039 8.10073L17.5821 9.0168C17.7761 9.65791 17.8169 10.3356 17.7012 10.9954Z"/>
<path d="M11.7 6.5C11.4607 6.5 11.2666 6.69403 11.2666 6.93333V10.6539L10.0936 11.827C10.0068 11.9134 9.96068 12.0326 9.96664 12.155L10.3458 19.7383C10.3549 19.9019 10.2955 20.0618 10.182 20.1799C9.94481 20.4192 9.55849 20.4209 9.31913 20.1837C9.31783 20.1824 9.31658 20.1811 9.31534 20.1799C9.2018 20.0618 9.14249 19.9019 9.15154 19.7383L9.5333 12.155C9.53937 12.0327 9.49338 11.9135 9.40677 11.827L8.2333 10.6539V6.93333C8.2333 6.69403 8.03928 6.5 7.79997 6.5C7.56066 6.5 7.36664 6.69403 7.36664 6.93333V10.8333C7.36664 10.9483 7.41235 11.0584 7.4936 11.1397L8.65754 12.3041L8.2879 19.6963C8.24858 20.5038 8.87128 21.1903 9.67874 21.2296C10.4862 21.2689 11.1727 20.6462 11.212 19.8388C11.2144 19.7913 11.2144 19.7438 11.212 19.6964L10.8424 12.3041L12.0063 11.1398C12.0876 11.0585 12.1333 10.9483 12.1333 10.8334V6.93339C12.1333 6.69403 11.9393 6.5 11.7 6.5Z"/>
<path d="M9.10002 6.5C8.86071 6.5 8.66669 6.69403 8.66669 6.93333V10.4C8.66669 10.6393 8.86071 10.8333 9.10002 10.8333C9.33933 10.8333 9.53335 10.6393 9.53335 10.4V6.93333C9.53335 6.69403 9.33933 6.5 9.10002 6.5Z"/>
<path d="M10.4 6.5C10.1607 6.5 9.96667 6.69403 9.96667 6.93333V10.4C9.96667 10.6393 10.1607 10.8333 10.4 10.8333C10.6393 10.8333 10.8333 10.6393 10.8333 10.4V6.93333C10.8333 6.69403 10.6393 6.5 10.4 6.5Z"/>
<path d="M13 0C5.82032 0 0 5.82032 0 13C0 20.1797 5.82032 26 13 26C20.1797 26 26 20.1797 26 13C25.9919 5.82368 20.1763 0.008125 13 0ZM13 25.1333C6.29893 25.1333 0.866667 19.7011 0.866667 13C0.866667 6.29893 6.29893 0.866667 13 0.866667C19.7011 0.866667 25.1333 6.29893 25.1333 13C25.1257 19.6979 19.6979 25.1257 13 25.1333Z"/>
<path d="M14.4067 21.1343C14.3834 20.8961 14.1715 20.7219 13.9332 20.7451C13.9277 20.7457 13.9221 20.7463 13.9165 20.7471L13.9182 20.7466C13.3082 20.8175 12.6919 20.8175 12.0818 20.7466C11.844 20.7187 11.6287 20.8889 11.6008 21.1267C11.5729 21.3645 11.743 21.5798 11.9808 21.6077C12.6574 21.6867 13.3409 21.6867 14.0175 21.6077C14.2556 21.5845 14.4299 21.3725 14.4067 21.1343Z"/>
<path d="M19.63 7.41598C19.4762 7.23263 19.2029 7.20863 19.0196 7.36246C19.019 7.36295 19.0184 7.36349 19.0177 7.36398C18.8348 7.51825 18.8115 7.79157 18.9657 7.97455C21.5784 11.0761 21.3786 15.6624 18.506 18.5249C18.3364 18.6939 18.3359 18.9683 18.5049 19.1379C18.6738 19.3074 18.9483 19.3079 19.1178 19.1389C22.3102 15.9587 22.5329 10.8626 19.63 7.41598Z"/>
<path d="M10.0964 5.72784C10.0967 5.72784 10.0961 5.72784 10.0964 5.72784Z"/>
<path d="M15.044 4.5755C13.3505 4.16963 11.5744 4.27872 9.94327 4.8888C9.71924 4.97303 9.60597 5.22295 9.6902 5.44693C9.75369 5.61577 9.91607 5.72768 10.0964 5.72784C10.1482 5.72757 10.1986 5.71793 10.247 5.69956C11.7159 5.15026 13.3154 5.05216 14.8404 5.4179C15.073 5.47412 15.3072 5.33118 15.3634 5.09853C15.4196 4.86588 15.2767 4.63172 15.044 4.5755Z"/>
<path d="M7.47455 18.5032C6.01373 17.0449 5.195 15.0641 5.19998 12.9999C5.1957 11.3507 5.71808 9.7433 6.69108 8.41177C6.83489 8.22046 6.79638 7.94881 6.60506 7.805C6.41375 7.66118 6.1421 7.6997 5.99829 7.89101C5.99574 7.89443 5.99325 7.89784 5.99081 7.90131C3.48544 11.3457 3.8541 16.0999 6.86051 19.1168C7.02995 19.2864 7.30479 19.2865 7.47433 19.1171C7.64387 18.9476 7.64398 18.6728 7.47455 18.5032Z"/>
</svg>
