<svg width="23" height="26" viewBox="0 0 23 26" xmlns="http://www.w3.org/2000/svg">
<path d="M13.0645 22.9171C12.7766 22.9171 12.543 23.1446 12.543 23.4249C12.543 23.7052 12.7766 23.9327 13.0645 23.9327C13.3524 23.9327 13.5861 23.7052 13.5861 23.4249C13.5861 23.1446 13.3524 22.9171 13.0645 22.9171Z"/>
<path d="M5.73687 10.171C5.44883 10.171 5.21533 10.3984 5.21533 10.6788V20.3781C5.21533 20.6585 5.44883 20.8859 5.73687 20.8859C6.02492 20.8859 6.25842 20.6585 6.25842 20.3781V10.6788C6.25842 10.3984 6.02492 10.171 5.73687 10.171Z"/>
<path d="M9.90924 10.171C9.62119 10.171 9.3877 10.3984 9.3877 10.6788V20.3781C9.3877 20.6585 9.62119 20.8859 9.90924 20.8859C10.1973 20.8859 10.4308 20.6585 10.4308 20.3781V10.6788C10.4308 10.3984 10.1973 10.171 9.90924 10.171Z"/>
<path d="M20.3923 8.17578H17.7846V6.63919C18.6021 6.04246 18.9906 5.03384 18.7602 4.03797C18.5447 3.10411 17.753 2.34198 16.7905 2.14155C16.2788 2.03465 15.7634 2.07248 15.2939 2.24631C14.8231 1.52354 13.9962 1.06641 13.0907 1.06641C12.7494 1.06641 12.4159 1.13085 12.1075 1.25486C11.2345 0.45307 10.0836 0 8.89229 0C7.3164 0 5.84669 0.781676 4.97916 2.06065C2.25306 1.91379 0 4.01964 0 6.61629V12.71C0 13.5501 0.713574 14.2335 1.5907 14.2335C1.7831 14.2335 1.96746 14.1994 2.13832 14.1373V23.4609C2.13832 24.861 3.30814 26 4.74603 26H15.1769C16.6148 26 17.7846 24.861 17.7846 23.4609V21.9375H20.3923C21.8302 21.9375 23 20.7985 23 19.3984V10.7148C23 9.31481 21.8302 8.17578 20.3923 8.17578ZM16.7415 22.9531H15.1503C14.8622 22.9531 14.6287 23.1805 14.6287 23.4609C14.6287 23.7414 14.8622 23.9637 15.1503 23.9637H16.6518C16.4365 24.5547 15.8568 24.9844 15.1769 24.9844H4.74603C4.06615 24.9844 3.4864 24.5598 3.27111 23.9688H10.979C11.267 23.9688 11.5005 23.7414 11.5005 23.4609C11.5005 23.1805 11.267 22.9531 10.979 22.9531H3.18141V9.11554C4.35295 8.94334 5.3674 8.22494 5.90073 7.16021C6.00952 7.16021 6.10538 7.19687 6.17761 7.26588C6.76622 7.82945 7.54509 8.13978 8.37075 8.13978C9.22649 8.13978 10.0253 7.80995 10.6204 7.21073C10.6522 7.17864 10.6972 7.16021 10.7438 7.16021C11.5556 7.16021 12.0869 7.32905 12.3228 7.66198C12.5173 7.93645 12.5172 8.31782 12.517 8.62428V10.6788C12.517 11.3408 12.9531 11.9053 13.5601 12.1149V20.3781C13.5601 20.6585 13.7936 20.8859 14.0816 20.8859C14.3697 20.8859 14.6032 20.6585 14.6032 20.3781V12.1149C15.2102 11.9053 15.6463 11.3408 15.6463 10.6788V7.10054C16.0116 7.17153 16.3844 7.17199 16.7415 7.10089V22.9531ZM15.3611 5.93871C15.1995 5.85863 15.0067 5.8661 14.852 5.95847C14.6974 6.05079 14.6031 6.21471 14.6031 6.39133V10.6788C14.6031 10.9588 14.3692 11.1866 14.0816 11.1866C13.794 11.1866 13.56 10.9588 13.56 10.6788V8.62459C13.5602 8.22463 13.5605 7.62018 13.1813 7.08515C12.7391 6.461 11.919 6.14453 10.7438 6.14453C10.4157 6.14453 10.0973 6.276 9.87023 6.50503C9.47376 6.90427 8.94121 7.1241 8.37075 7.1241C7.82036 7.1241 7.30122 6.91727 6.90861 6.54129C6.6409 6.2854 6.28296 6.14453 5.90073 6.14453C5.50545 6.14453 5.13807 6.36782 4.96477 6.71338C4.52761 7.58499 3.64266 8.13155 2.65538 8.13978C2.3691 8.14216 2.13827 8.3688 2.13827 8.64759V12.686C2.11991 12.985 1.8811 13.2179 1.5907 13.2179C1.29389 13.2179 1.04308 12.9853 1.04308 12.71V6.61629C1.04308 4.65634 2.69022 3.06912 4.7151 3.06912C4.87245 3.06912 5.03064 3.07887 5.18872 3.09862C5.39968 3.12498 5.60585 3.02392 5.70989 2.84339C6.35953 1.716 7.57894 1.01562 8.89229 1.01562C9.92129 1.01562 10.9134 1.45311 11.6141 2.21594C11.7839 2.40089 12.0661 2.43928 12.2816 2.30659C12.5201 2.15968 12.7999 2.08203 13.0907 2.08203C13.7546 2.08203 14.348 2.49138 14.5673 3.10055C14.6207 3.24883 14.7416 3.36477 14.8947 3.41443C15.0478 3.46409 15.2159 3.44195 15.35 3.35441C15.7055 3.12234 16.1393 3.04429 16.5719 3.13468C17.1352 3.25198 17.6165 3.715 17.7425 4.26095C18.0394 5.54389 16.6888 6.59628 15.3611 5.93871ZM17.7846 11.2227H19.8707V18.8906H17.7846V11.2227ZM21.9569 19.3984C21.9569 20.2385 21.255 20.9219 20.3923 20.9219H17.7846V19.9062H20.3923C20.6803 19.9062 20.9138 19.6789 20.9138 19.3984V10.7148C20.9138 10.4344 20.6803 10.207 20.3923 10.207H17.7846V9.19141H20.3923C21.255 9.19141 21.9569 9.87482 21.9569 10.7148V19.3984Z"/>
</svg>
