<svg width="25" height="27" viewBox="0 0 25 27" xmlns="http://www.w3.org/2000/svg">
<path d="M12.346 1.45394L6.84124 0.0141855C6.82439 0.00980859 6.80753 0.00675 6.79068 0.00432422C6.78641 0.00374414 6.78214 0.003375 6.77787 0.00290039C6.76394 0.00137109 6.75005 0.000527344 6.73628 0.000369141C6.73422 0.000316406 6.73228 0 6.73028 0C6.72915 0 6.72806 0.000263672 6.72693 0.000263672C6.70505 0.000421875 6.68339 0.00216211 6.66216 0.00553711C6.65967 0.00595898 6.65724 0.00653906 6.6547 0.00696094C6.61213 0.014502 6.57129 0.0282656 6.53331 0.0476191C6.53066 0.0489902 6.52796 0.0502031 6.52532 0.0516269C6.50727 0.0612773 6.49004 0.0721406 6.47356 0.0842695C6.47124 0.085957 6.46902 0.08775 6.46675 0.0894902C6.43337 0.115066 6.40376 0.145494 6.37924 0.180246C6.37772 0.182303 6.37616 0.184359 6.3747 0.186574C6.36325 0.203344 6.35309 0.221115 6.34412 0.23973C6.34256 0.243053 6.34115 0.246375 6.33964 0.249697C6.33116 0.268682 6.32354 0.288193 6.31787 0.308865C6.31781 0.309023 6.31771 0.309182 6.31765 0.30934L5.87542 1.92154C5.81443 2.14407 5.94954 2.37326 6.17746 2.43274C6.21333 2.44218 6.25093 2.44666 6.28799 2.44666C6.48118 2.44666 6.65097 2.31989 6.70057 2.13738L7.0327 0.928178L11.7119 2.15198L10.4705 6.67433H5.45555L6.25839 3.74952C6.28805 3.64215 6.27265 3.52983 6.21566 3.43301C6.15866 3.33677 6.06634 3.26721 5.95575 3.23884C5.91988 3.2294 5.88222 3.22439 5.84522 3.22439C5.65203 3.22439 5.48272 3.3518 5.43259 3.53368L4.49724 6.94137C4.48659 6.96832 4.47881 6.99659 4.47406 7.02585L3.95771 8.90705C3.95765 8.90726 3.9576 8.90747 3.95754 8.90763C3.7313 9.73271 3.84755 10.5944 4.28509 11.3341C4.65061 11.9521 5.20429 12.4224 5.86937 12.6897L3.80596 20.207L2.01849 21.2142L0.538154 20.8271C0.310393 20.7673 0.0757707 20.8995 0.0146706 21.1221C-0.0464295 21.3447 0.0888983 21.5735 0.31693 21.6331L6.92282 23.3609C6.95988 23.3706 6.99705 23.3752 7.03373 23.3752C7.22243 23.3752 7.39514 23.2523 7.4463 23.0659C7.5074 22.8433 7.37207 22.6145 7.14404 22.5549L5.66376 22.1677L4.6317 20.4229L6.695 12.9064C6.83946 12.9253 6.98419 12.9348 7.12848 12.9348C7.69627 12.9348 8.25665 12.7895 8.76155 12.5049C9.5196 12.0776 10.0618 11.3879 10.2883 10.5626C10.2884 10.5625 10.2884 10.5624 10.2885 10.5623L12.6483 1.96494C12.7094 1.74234 12.5741 1.51353 12.346 1.45394ZM3.18626 21.5197L4.01654 21.0518L4.49594 21.8623L3.18626 21.5197ZM9.4625 10.347C9.46244 10.3471 9.46244 10.3471 9.46244 10.3471C9.29492 10.9569 8.89423 11.4666 8.33412 11.7822C7.77374 12.098 7.12108 12.1819 6.4962 12.0184C5.87126 11.8549 5.34891 11.4637 5.02547 10.9168C4.70204 10.37 4.61609 9.73303 4.78345 9.1231C4.7835 9.12305 4.7835 9.12294 4.78356 9.12289L5.2266 7.50879H10.2416L9.4625 10.347Z"/>
<path d="M24.9853 24.7467C24.9242 24.5241 24.6899 24.3919 24.4618 24.4517L22.9814 24.839L21.1941 23.8316L19.1304 16.3141C20.6269 15.7102 21.4723 14.0986 21.0422 12.5315C21.0421 12.5312 21.0419 12.5309 21.0419 12.5306L19.4197 6.62109C19.3696 6.43863 19.1998 6.3118 19.0071 6.3118C18.9695 6.3118 18.9325 6.31623 18.896 6.32572C18.786 6.35462 18.6937 6.4236 18.6367 6.52042C18.5797 6.6166 18.5643 6.72903 18.5939 6.83693L19.0104 8.3541H13.9956L13.2881 5.7767L17.9672 4.55284L18.1517 5.22473C18.2013 5.40661 18.3711 5.53402 18.5637 5.53402C18.6013 5.53402 18.6385 5.52901 18.6749 5.51957C18.9028 5.46003 19.0379 5.23085 18.9769 5.00889L18.6823 3.93411C18.6821 3.93327 18.6816 3.93248 18.6813 3.93163C18.6758 3.91191 18.6685 3.89319 18.6604 3.87489C18.6588 3.87136 18.6574 3.86777 18.6556 3.86429C18.6467 3.84573 18.6365 3.82796 18.6251 3.81114C18.6237 3.80918 18.6223 3.80734 18.621 3.80539C18.596 3.77006 18.5659 3.7391 18.5319 3.71326C18.5304 3.71205 18.5288 3.71089 18.5273 3.70973C18.5102 3.69707 18.4922 3.68568 18.4734 3.67566C18.4718 3.67482 18.4702 3.67408 18.4686 3.67329C18.4294 3.65309 18.3872 3.63885 18.3431 3.63126C18.3417 3.63105 18.3405 3.63073 18.3391 3.63052C18.317 3.62693 18.2944 3.62514 18.2716 3.62504C18.271 3.62504 18.2703 3.62488 18.2696 3.62488C18.2684 3.62488 18.2673 3.62509 18.266 3.62509C18.2511 3.62519 18.2361 3.62614 18.2211 3.62783C18.2171 3.62825 18.2132 3.62857 18.2094 3.62915C18.1954 3.6311 18.1815 3.63379 18.1676 3.63706C18.1646 3.63775 18.1615 3.63806 18.1585 3.6388C18.1574 3.63912 18.1564 3.63954 18.1552 3.63985L12.6539 5.07876C12.426 5.13835 12.2906 5.36717 12.3517 5.58976L14.7118 14.1878C14.7118 14.1879 14.7118 14.1879 14.7119 14.188C15.1039 15.6151 16.4311 16.5587 17.8777 16.5587C18.0192 16.5587 18.1619 16.5495 18.305 16.5311L20.3683 24.0476L19.3363 25.7925L17.8559 26.1797C17.6278 26.2393 17.4926 26.4681 17.5537 26.6907C17.6048 26.8771 17.7775 27 17.9662 27C18.0029 27 18.0401 26.9954 18.0772 26.9857L23.0293 25.6904C23.0296 25.6903 23.0298 25.6902 23.03 25.6902L24.6831 25.2578C24.9111 25.1981 25.0464 24.9693 24.9853 24.7467ZM15.5374 13.9713L15.5373 13.9711L14.2246 9.18867H19.2395L20.2164 12.7478C20.2165 12.7481 20.2166 12.7483 20.2167 12.7486C20.5616 14.0075 19.7934 15.3059 18.5038 15.6433C17.2138 15.9808 15.8831 15.2307 15.5374 13.9713ZM20.5041 25.4869L20.9835 24.6765L21.8137 25.1444L20.5041 25.4869Z"/>
</svg>
