<svg width="190" height="67" viewBox="0 0 190 67" xmlns="http://www.w3.org/2000/svg">
<path fill-rule="evenodd" clip-rule="evenodd" d="M102.226 43.1473C102.215 43.2323 102.205 43.5192 102.194 43.5936L102.162 43.7848C102.065 44.1142 102.065 44.0079 102.012 44.0823L99.9424 55.6102H108.819C109.205 55.4296 109.924 54.3671 110.192 54.0165C110.653 53.4109 111.017 52.954 111.425 52.4228C112.261 51.3497 113.054 50.3191 113.901 49.2459C115.252 47.546 117.3 44.7304 118.597 43.2004L119.005 42.8498L116.582 55.5783C117.536 55.674 125.287 55.7058 125.93 55.5358L131.28 25.287H122.35C121.931 25.3826 113.987 35.6462 112.936 36.8787C112.829 37.1231 112.915 37.0381 112.668 37.1443C112.679 36.9424 112.636 37.0062 112.69 36.7831C112.829 36.2199 112.69 36.6662 112.861 36.4643C112.776 35.1043 114.47 27.7095 114.641 25.287L105.635 25.2764C105.346 25.457 105.517 25.1595 105.367 25.7014C105.324 25.8395 105.292 26.1264 105.271 26.2858L104.638 29.7282C104.295 31.6088 102.28 42.2123 102.226 43.1473Z"/>
<path fill-rule="evenodd" clip-rule="evenodd" d="M143.781 25.2764L134.765 25.3083L129.436 55.6102H138.378C138.699 55.4083 138.624 55.334 138.699 54.8665L139.128 52.3696C139.632 49.4903 140.275 45.1235 140.844 42.6267L148.059 42.6373L145.807 55.6102H155.21C155.564 55.504 155.982 52.2209 156.035 51.8915L160.013 29.3988C160.206 28.3151 160.399 26.6045 160.71 25.6589L151.104 25.6695L149.56 34.6581C149.528 34.6793 149.496 34.69 149.474 34.69L142.216 34.7537L143.781 25.2764Z"/>
<path fill-rule="evenodd" clip-rule="evenodd" d="M190 25.9458V25.6801C189.764 25.6695 181.219 25.5633 180.598 25.712L178.872 34.7643L171.528 34.7537L173.093 25.2764L164.076 25.3083L158.748 55.6102L167.872 55.5783L170.145 42.6267L177.371 42.6586L175.119 55.6102L184.65 55.5677C184.854 55.1108 185.83 49.161 186.012 48.1516L188.628 33.2981C188.853 32.0656 189.657 26.6151 190 25.9458Z"/>
<path fill-rule="evenodd" clip-rule="evenodd" d="M84.1073 40.9586L85.3509 32.9688C86.6804 32.8413 90.0254 32.7775 90.9688 33.3088C93.2524 34.5731 93.3382 39.333 89.7788 40.6717C88.5351 41.1392 85.6618 40.9692 84.1073 40.9586ZM82.7671 48.141C85.4045 48.0347 88.1599 48.3641 90.6901 47.8647C104.928 45.0917 104.124 27.7732 94.2924 25.5208C92.2768 25.0639 88.5673 25.287 86.3158 25.287C83.7428 25.287 80.7516 25.1489 78.2428 25.2976C78.0498 25.6164 72.9144 53.2515 72.6571 55.6102L81.3091 55.5783L82.7671 48.141Z"/>
<path fill-rule="evenodd" clip-rule="evenodd" d="M88.6531 15.576L65.0666 15.5972L57.9049 55.6102L68.5832 55.5996L74.3404 23.6614L87.2058 23.6402L88.6531 15.576Z"/>
<path fill-rule="evenodd" clip-rule="evenodd" d="M20.5203 45.3679C21.0778 44.6773 22.6966 42.5948 23.0183 41.798H7.40831C7.05451 41.8511 5.81086 43.3704 5.57499 43.6361C4.99605 44.2629 4.47071 44.8154 3.83817 45.3998L0 48.736L17.6148 48.7572C17.4433 49.0972 16.2961 50.2341 15.9852 50.5634C14.4735 52.189 11.8576 54.4415 10.8605 55.5677C13.0583 55.7483 29.526 55.6102 33.1069 55.6102C35.6907 55.6102 40.3222 54.1334 42.445 53.2303C43.8816 52.6246 45.0073 52.0297 46.251 51.254C46.9157 50.8503 49.1993 49.2672 49.4673 48.736L17.7649 48.7147L20.5203 45.3679Z"/>
<path fill-rule="evenodd" clip-rule="evenodd" d="M6.02527 28.6551L27.8749 28.6657C28.3145 28.5807 28.9042 26.2645 29.0435 25.7864C29.3545 24.7345 29.6332 23.5871 29.8798 22.4608C30.9197 17.6903 31.4451 12.3354 31.295 7.40549C31.2843 6.79987 30.909 0.669362 30.373 0L28.2073 4.35617C25.2804 9.65794 21.3136 15.5653 17.068 19.6665C14.0125 22.6202 13.3692 23.3958 10.0135 25.967L6.02527 28.6551Z"/>
<path fill-rule="evenodd" clip-rule="evenodd" d="M55.7392 38.9824L55.9643 38.313C56.1573 36.8574 56.5111 35.6887 56.6291 34.0737C56.7363 32.4906 56.6612 30.865 56.4361 29.3457C55.7821 24.9151 54.2704 22.8964 54.0989 21.8977C53.4342 22.0358 50.2607 23.6508 47.1945 24.182C47.2909 24.9895 47.6984 26.1795 47.8913 27.1039C48.1058 28.1132 48.2559 29.1863 48.3416 30.2594C48.6633 34.0312 48.095 34.945 48.1272 36.8999C48.5775 37.1018 49.5317 37.293 50.057 37.4418L55.6534 39.4074L55.7392 38.9824Z"/>
<path fill-rule="evenodd" clip-rule="evenodd" d="M38.178 25.5952C38.0708 26.2433 38.4353 29.3563 38.4782 30.3338C38.5532 32.0444 38.521 33.6806 38.4782 35.3806C42.0912 35.6037 45.1574 36.4962 47.0551 36.6449C47.9342 31.9275 47.1408 28.7613 46.1652 24.5008C45.3611 24.4795 43.2276 24.9895 42.2734 25.1277C40.9119 25.3189 39.5717 25.4889 38.178 25.5952Z"/>
<path fill-rule="evenodd" clip-rule="evenodd" d="M36.6019 47.5779C38.3173 47.5779 40.0327 47.5779 41.7588 47.5779C42.7987 47.5885 42.7666 47.2166 43.1954 46.5473C43.5278 46.016 43.8173 45.5273 44.1174 44.9854C45.0502 43.2854 46.6048 39.928 46.8299 37.7074C44.6213 37.0912 40.8153 36.5387 38.4031 36.4112C38.3066 38.3662 38.06 40.3742 37.7384 42.2761L36.6019 47.5779Z"/>
<path fill-rule="evenodd" clip-rule="evenodd" d="M37.2989 36.3368C36.1839 36.05 30.3516 35.9756 29.0007 36.0712C29.2044 38.6105 30.834 45.5273 31.7668 47.5779L35.4549 47.546C36.1303 45.676 37.5884 38.1643 37.2989 36.3368Z"/>
<path fill-rule="evenodd" clip-rule="evenodd" d="M24.2727 39.9386C24.8409 38.8124 26.4383 36.4218 26.7385 35.2H12.2757C11.8254 36.2199 9.0701 39.4605 8.96289 39.9174L24.2727 39.9386Z"/>
<path fill-rule="evenodd" clip-rule="evenodd" d="M31.2843 25.8608C31.027 26.4133 30.7911 27.6032 30.6088 28.2407L29.0757 32.6819C28.7648 33.4363 28.4324 34.1375 28.9042 34.9556L37.4275 35.2637C37.524 31.9807 37.4811 29.9513 37.1809 26.7851C37.1702 26.6151 37.1595 26.3495 37.1273 26.1901L37.0094 25.797C36.9879 25.6164 31.8203 25.8501 31.2843 25.8608Z"/>
<path fill-rule="evenodd" clip-rule="evenodd" d="M36.1517 14.3647L35.8944 14.4816L35.9909 14.811C35.9909 15.5016 36.8915 18.5297 37.1059 19.5496C37.2774 20.3571 37.4383 21.1646 37.5776 22.004C37.6956 22.6521 37.8135 23.9483 37.9958 24.5114C39.0571 24.6495 44.9859 23.8208 45.7364 23.3958C45.4791 22.089 43.8602 19.1459 43.2062 18.1153C42.3164 16.7022 39.8505 13.6954 39.8398 13.6848C38.7998 13.7166 37.4597 14.3222 36.1517 14.3647Z"/>
<path fill-rule="evenodd" clip-rule="evenodd" d="M40.8583 13.2598C41.0513 13.6423 41.4051 13.9291 41.716 14.301C43.753 16.8297 45.8114 19.9853 46.7763 23.1515C47.5161 23.1727 49.521 22.5033 50.2714 22.259L53.4449 20.9096C52.8231 19.454 50.2929 16.5322 49.2636 15.6185C48.2023 14.6835 45.2861 12.3248 43.5707 11.751C43.099 12.0167 42.7345 12.2929 42.2735 12.5373C41.8768 12.7498 41.2335 13.0154 40.8583 13.2598Z"/>
<path fill-rule="evenodd" clip-rule="evenodd" d="M43.8065 47.5672C44.4927 47.5885 50.3571 47.6947 50.7753 47.5141C51.4829 47.2166 54.6885 42.4992 55.246 40.3636C53.8737 40.0555 50.7645 38.398 47.8484 37.9624C47.6018 39.6305 46.8513 41.7448 46.2081 43.2217C45.479 44.8791 43.903 47.3335 43.8065 47.5672Z"/>
<path fill-rule="evenodd" clip-rule="evenodd" d="M27.3067 33.755C27.7141 33.5638 27.4139 33.8294 27.6498 33.3938L28.2502 31.97C28.4646 31.4494 28.8291 30.6207 28.9792 30.0363L15.2562 30.0682C14.7201 30.4507 14.5271 31.4175 14.2484 31.9488C14.0018 32.4163 13.4014 33.3194 13.2942 33.755H27.3067Z"/>
<path fill-rule="evenodd" clip-rule="evenodd" d="M28.0572 36.3899C27.9179 36.2518 27.9822 36.6131 27.8964 36.0818L27.5426 36.1668C26.4062 38.1749 25.4842 40.0661 24.2941 41.9042C22.9325 43.9973 22.7396 43.7423 23.3078 44.7942C23.8331 45.761 24.4657 46.696 25.0553 47.5779H30.5874C30.4909 46.9085 29.9978 45.6973 29.7941 44.911C29.3331 43.1579 27.9822 37.633 28.0572 36.3899Z"/>
<path fill-rule="evenodd" clip-rule="evenodd" d="M31.5737 24.7771C32.6459 24.8514 35.9158 24.8621 36.8593 24.6283C36.9986 23.3321 35.2725 15.5016 34.6936 14.556L32.9782 14.6941C32.7423 15.1722 32.4958 18.9972 32.3671 19.964C32.2492 20.8246 31.5309 24.3414 31.5737 24.7771Z"/>
<path fill-rule="evenodd" clip-rule="evenodd" d="M151.393 24.1183C153.612 24.1183 155.832 24.1183 158.051 24.1183C158.619 24.1183 159.187 24.1077 159.756 24.1183C161.235 24.1289 160.924 24.1608 161.031 23.757C161.235 23.0771 161.332 21.749 161.514 20.9308L151.897 20.9415L151.393 24.1183Z"/>
<path fill-rule="evenodd" clip-rule="evenodd" d="M32.9782 11.8148L32.9675 13.5998C36.0552 13.5785 40.4509 12.7923 42.3914 11.2304C41.5766 10.3911 35.6371 9.04171 33.9003 8.95671L33.2248 8.91422C32.9568 9.6792 33.3213 11.071 32.9782 11.8148Z"/>
<path fill-rule="evenodd" clip-rule="evenodd" d="M167.368 57.597L158.244 57.6289L157.729 60.7739L166.907 60.7207L167.368 57.597Z"/>
<path fill-rule="evenodd" clip-rule="evenodd" d="M152.165 19.3903H161.857C161.814 18.7528 161.996 17.8815 162.189 17.3078L152.498 17.2866L152.165 19.3903Z"/>
<path fill-rule="evenodd" clip-rule="evenodd" d="M166.671 62.3251H157.472L157.193 64.4182L166.349 64.4288L166.671 62.3251Z"/>
<path fill-rule="evenodd" clip-rule="evenodd" d="M15.2991 65.0875C15.2562 65.6081 15.2991 65.215 15.3741 65.385L16.1889 65.3638L17.1324 59.6795L15.5993 59.6901C14.9882 60.4232 14.42 62.6013 13.7981 63.4407L13.2621 59.6795L11.7933 59.7008C11.611 60.3276 10.7962 64.9707 10.8498 65.4381C11.8254 65.4488 11.5038 65.5869 11.9541 63.1113C12.0291 62.6651 12.458 60.5189 12.458 60.3807L13.1549 65.4275C13.9161 65.47 13.8196 65.0982 14.109 64.4607L16.0388 60.4445L15.2991 65.0875Z"/>
<path fill-rule="evenodd" clip-rule="evenodd" d="M124.065 64.8963L124.001 65.3531L124.708 65.2575L125.609 60.3701L126.295 65.4063C127.11 65.5232 127.142 64.6838 127.86 63.1751C128.268 62.3357 128.654 61.1882 129.158 60.5082C129.05 61.7088 128.311 64.5138 128.407 65.4381C129.597 65.4381 129.254 65.8313 129.769 62.9094C129.908 62.1232 130.294 60.3701 130.273 59.6795L128.739 59.6689C128.45 60.1576 127.303 62.6438 127.196 63.1751L127.046 63.4832C126.885 63.3132 126.938 63.7382 126.874 63.1644L126.402 59.6795C125.202 59.637 125.009 59.5201 124.858 59.977L124.065 64.8963Z"/>
<path fill-rule="evenodd" clip-rule="evenodd" d="M40.2686 64.1419L40.7832 61.0501C41.6302 61.0182 41.9304 61.8682 41.7481 62.7713C41.5766 63.6319 41.1585 63.9826 40.2686 64.1419ZM39.3787 63.7807L39.2823 64.1632L38.9713 64.0144C38.3174 63.6744 38.0815 63.122 38.3602 62.1445C38.5639 61.4326 39.025 61.0926 39.8076 60.9864L39.3787 63.7807ZM41.0084 60.2426C40.9333 59.807 41.1263 59.5839 40.8368 59.4989C39.9148 59.2439 39.9577 60.0833 39.9255 60.1683C38.5211 60.5295 37.717 60.8164 37.3739 62.1657C36.9772 63.7701 37.6955 64.5776 39.1 64.875L39.0464 65.6082C40.3758 65.6082 39.8612 65.5869 40.1507 64.9388C41.5337 64.5882 42.3699 64.2694 42.6916 62.9413C43.0775 61.3689 42.3807 60.5083 41.0084 60.2426Z"/>
<path fill-rule="evenodd" clip-rule="evenodd" d="M107.63 15.9053C107.63 15.5972 107.715 15.7353 107.458 15.6185L106.836 15.6291C106.675 16.3941 106.665 16.2772 106.257 16.7978L103.899 19.9428C104.006 18.9547 104.703 16.2772 104.595 15.5547L103.748 15.576L102.537 22.3015C103.748 22.3121 103.32 22.2908 103.652 21.6427C103.909 21.1434 106.075 18.4872 106.429 17.8284L105.635 22.2908C106.525 22.3121 106.536 22.429 106.675 21.5896L107.104 19.199C107.254 18.349 107.662 16.6703 107.63 15.9053Z"/>
<path fill-rule="evenodd" clip-rule="evenodd" d="M146.654 16.0541L146.73 15.6185L145.84 15.6397L144.735 21.7277L144.693 22.259H145.572C145.7 21.5152 146.451 20.6546 146.88 20.1021C147.255 19.6134 148.145 18.4872 148.37 17.9984C148.402 17.9134 148.413 17.7859 148.466 17.7222C148.488 17.7541 148.874 17.5947 148.466 18.0728L147.727 22.3015H148.659C148.884 20.7184 149.892 16.6703 149.817 15.5547L149.002 15.5653C148.649 16.5534 146.708 19.2415 146 20.0278L146.654 16.0541Z"/>
<path fill-rule="evenodd" clip-rule="evenodd" d="M140.994 19.8365L140.886 20.1553C140.801 19.9853 140.768 19.9853 140.919 19.7834L141.615 15.5653C140.479 15.5653 140.715 15.3953 140.404 17.1697L139.493 22.3015C140.704 22.3015 140.265 22.2908 140.597 21.6427L143.374 17.8709L142.591 22.3015L143.492 22.2908L144.671 15.5653L143.856 15.5547C143.545 16.1816 143.749 16.0966 143.256 16.7341L141.723 18.8165C141.465 19.1672 141.272 19.5071 140.994 19.8365Z"/>
<path fill-rule="evenodd" clip-rule="evenodd" d="M116.035 21.8552L115.981 22.259L116.925 22.1633C116.925 21.5259 117.965 20.3678 118.329 19.8578C118.822 19.1884 119.38 18.5297 119.83 17.8178L119.026 22.3015C119.959 22.3121 119.927 22.4183 120.066 21.579C120.27 20.4103 121.149 16.0647 121.074 15.5653L120.259 15.5866C119.766 17.2334 118.083 18.4128 117.525 19.794L117.289 20.0915C117.279 20.0703 117.246 20.134 117.214 20.1553C117.257 19.7303 117.171 19.9428 117.375 19.6878C117.354 18.5509 118.104 16.5747 117.997 15.5547L117.139 15.5653L116.035 21.8552Z"/>
<path fill-rule="evenodd" clip-rule="evenodd" d="M59.5666 60.1576L59.6524 59.7114L58.6982 59.8283L57.744 65.4381H61.6894L61.6036 66.6388C62.3648 66.66 62.3005 66.7769 62.4184 66.0013C62.472 65.6719 62.5149 65.3744 62.5685 65.0238L62.6007 64.5882C62.1504 64.5882 62.2791 64.6413 61.9467 64.4713C61.9896 64.0888 61.9253 64.1844 62.1397 63.9401L62.7508 59.6689L61.8181 59.7008L60.9282 64.5457L58.8697 64.535L59.5666 60.1576Z"/>
<path fill-rule="evenodd" clip-rule="evenodd" d="M63.244 64.9175L63.1582 65.385C63.6407 65.385 63.6728 65.4488 64.1124 65.2575C64.3697 64.4288 66.4603 62.5588 67.0714 61.592L66.4603 65.4381C67.3609 65.4381 67.3609 65.64 67.5003 64.7475C67.6718 63.6957 68.2507 60.9545 68.1971 60.2851L68.2936 59.7539L67.4038 59.7645C67.2108 60.402 67.1572 60.3595 66.7927 60.7951L64.4662 63.4726C64.5627 62.4632 65.1094 60.5082 65.0344 59.6689C64.1124 59.6689 64.1231 59.4776 63.9837 60.3807C63.8122 61.4645 63.244 64.2269 63.244 64.9175Z"/>
<path fill-rule="evenodd" clip-rule="evenodd" d="M109.988 61.7301L110.203 61.4751C110.138 62.017 110.213 61.6557 110.042 61.7832L109.463 65.4275H110.363C110.578 64.8325 111.296 60.7101 111.264 60.147L111.21 59.722L110.417 59.7858C110.278 60.5508 109.474 61.1564 109.002 61.7301C108.498 62.3463 107.994 62.8882 107.49 63.5363C107.554 62.5588 108.026 61.1564 107.973 60.2533L108.069 59.7114L107.126 59.8176C106.954 60.7208 106.15 64.8007 106.225 65.4382H107.083C107.469 64.4819 107.726 64.4182 108.498 63.4726L109.988 61.7301Z"/>
<path fill-rule="evenodd" clip-rule="evenodd" d="M25.066 60.5295C27.3067 59.4139 26.7385 64.0144 25.6128 64.5882C23.4471 65.6932 23.6722 61.2095 25.066 60.5295ZM27.5533 63.2388C28.6576 59.042 24.1225 58.0752 23.0826 61.8682C21.9569 65.9588 26.5348 67.0744 27.5533 63.2388Z"/>
<path fill-rule="evenodd" clip-rule="evenodd" d="M70.9417 60.487C73.1288 59.4883 72.6249 64.1844 71.3598 64.6413C69.0977 65.4594 69.6766 61.0607 70.9417 60.487ZM73.4719 62.8988C74.2009 58.7126 69.623 58.277 68.8618 62.1551C68.047 66.32 72.7857 66.8512 73.4719 62.8988Z"/>
<path fill-rule="evenodd" clip-rule="evenodd" d="M33.9645 60.572C35.0795 59.8176 35.6156 61.0289 35.562 62.102C35.3904 65.4913 32.8066 65.4806 32.9139 63.0051C32.9567 62.0276 33.2033 61.082 33.9645 60.572ZM36.559 62.8988C37.3202 58.7445 32.7102 58.2452 31.949 62.1763C31.1449 66.2456 35.8193 66.915 36.559 62.8988Z"/>
<path fill-rule="evenodd" clip-rule="evenodd" d="M120.892 60.5189C123.004 59.4352 122.736 63.8551 121.438 64.5776C119.337 65.7463 119.401 61.2839 120.892 60.5189ZM123.368 63.2388C124.494 58.9996 119.841 58.0858 118.887 61.9426C117.879 65.9694 122.35 67.0638 123.368 63.2388Z"/>
<path fill-rule="evenodd" clip-rule="evenodd" d="M136.63 16.1497L136.737 15.6185L135.847 15.6397L134.754 21.7809L134.7 22.259H135.579C135.847 20.9309 135.805 20.304 137.134 19.0397C137.434 19.5072 137.67 21.6109 137.767 22.3015H138.731C138.603 21.0371 138.099 19.4753 138.024 18.3172C137.96 17.3822 139.482 16.3516 139.707 15.5653C138.903 15.5441 138.849 15.4591 138.442 16.0222L136.394 18.7315C136.212 18.9334 136.351 18.7847 136.201 18.9122L136.63 16.1497Z"/>
<path fill-rule="evenodd" clip-rule="evenodd" d="M99.5564 18.5934L99.8674 16.5641C100.95 16.4685 101.84 16.4153 101.626 17.7328C101.454 18.7422 100.564 18.6359 99.5564 18.5934ZM97.8411 22.3015L98.8274 22.2909L99.3099 19.624C100.403 19.539 102.558 20.0384 102.633 17.4247C102.698 15.2891 100.972 15.4591 99.1062 15.576L97.8411 22.3015Z"/>
<path fill-rule="evenodd" clip-rule="evenodd" d="M93.8742 64.9494L93.7992 65.385L94.7212 65.3638C94.7748 65.0663 95.0428 63.3026 95.1179 63.1645C95.3002 62.7713 96.8118 62.9201 97.2943 62.9732L96.9298 65.4382L97.8411 65.4169C98.034 64.7157 98.8488 60.2108 98.7952 59.6795C97.8947 59.6689 97.8089 59.1695 97.4765 62.0276H95.3109L95.6754 59.6901L94.7641 59.6689C94.5604 60.2851 93.8421 64.3863 93.8742 64.9494Z"/>
<path fill-rule="evenodd" clip-rule="evenodd" d="M130.144 16.5853C130.262 16.086 130.337 16.0222 130.273 15.5547L127.045 15.576L125.845 22.3121L129.2 22.2696L129.372 21.2496L126.96 21.239L127.292 19.369C129.265 19.369 129.426 19.6665 129.361 18.3703L127.485 18.3597L127.785 16.6172L130.144 16.5853Z"/>
<path fill-rule="evenodd" clip-rule="evenodd" d="M52.1583 60.2745L52.2548 59.7114L51.3114 59.8176C50.786 62.5907 51.5043 62.0382 48.7705 62.017L49.1028 59.6689C48.0414 59.6689 48.1808 59.5095 48.02 60.5507C47.8592 61.6345 47.1945 64.79 47.2373 65.4381L48.1594 65.4063L48.6311 62.9519H50.7431L50.4108 65.4381C51.3006 65.4381 51.3114 65.64 51.4507 64.7475C51.6223 63.6744 52.1798 60.9332 52.1583 60.2745Z"/>
<path fill-rule="evenodd" clip-rule="evenodd" d="M74.0616 65.0557L74.0294 65.385L74.9514 65.3531C74.9943 65.0557 75.2623 63.3238 75.3374 63.1644C75.5197 62.7713 77.0313 62.9307 77.5138 62.9626L77.1493 65.4381L78.0606 65.4169C78.2536 64.7794 79.0684 60.1682 79.0147 59.6689C78.0391 59.6689 78.1142 59.4989 77.9534 60.4764C77.8676 61.0289 77.7604 61.507 77.7068 62.0276H75.5411L75.9056 59.6795L74.9514 59.6689L74.0616 65.0557Z"/>
<path fill-rule="evenodd" clip-rule="evenodd" d="M133.671 64.96L133.607 65.385L134.529 65.3532L135.472 59.7008L132.46 59.6689C132.32 59.6689 132.042 59.6583 131.913 59.6795L131.731 59.722C131.248 59.8389 130.573 65.2682 130.594 65.4382L131.527 65.4275L132.385 60.5295L134.336 60.5189C134.272 61.847 133.607 63.8126 133.671 64.96Z"/>
<path fill-rule="evenodd" clip-rule="evenodd" d="M22.3751 60.1683L22.4501 59.7114L21.5174 59.807C21.0135 62.5588 21.6782 62.0382 18.9765 62.0276L19.1909 60.3064L19.2874 59.7326L18.3654 59.8601C18.1831 60.5083 17.4005 64.9175 17.4433 65.4382C19.0515 65.4382 18.0866 65.4382 18.8371 62.9413L20.9492 62.952L20.5632 65.4275L21.5174 65.4382L22.3751 60.1683Z"/>
<path fill-rule="evenodd" clip-rule="evenodd" d="M148.917 65.4275C148.917 64.5775 148.177 62.9413 148.016 62.017C147.93 61.4645 148.445 61.1776 148.777 60.8164C149.142 60.4233 149.27 60.1789 149.785 59.6901C148.938 59.6476 148.842 59.5414 148.423 60.0089C147.909 60.6039 146.515 62.2613 146.108 62.5695L146.537 59.6689C145.497 59.6689 145.625 59.5095 145.454 60.5507C145.368 61.1245 145.282 61.6132 145.175 62.187C145.046 62.952 144.628 64.79 144.671 65.4382L145.582 65.4063C145.765 64.7369 145.69 64.2269 146.065 63.7488L147.18 62.6438L147.984 65.4382L148.917 65.4275Z"/>
<path fill-rule="evenodd" clip-rule="evenodd" d="M111.864 20.4421L111.221 20.0915C110.696 20.6759 110.706 21.4833 109.624 21.3877C108.498 20.7077 108.991 18.7846 109.377 17.6372C109.924 15.9691 111.403 15.8203 111.521 17.924L112.357 17.7647C112.411 16.3303 111.564 14.8747 109.956 15.5122C108.991 15.8947 108.316 17.244 108.069 18.5934C107.222 23.3002 111.06 23.5127 111.864 20.4421Z"/>
<path fill-rule="evenodd" clip-rule="evenodd" d="M116.099 62.7288L116.249 62.5588L116.346 62.782L117.053 65.4382H117.997C118.018 64.6307 117.246 62.9413 117.118 62.0807C116.989 61.1989 118.469 60.5083 118.779 59.6901C117.932 59.637 117.911 59.5627 117.504 60.0089C116.882 60.6783 115.745 62.1551 115.188 62.5801L115.617 59.6795C114.545 59.6583 114.705 59.5308 114.534 60.5508C114.448 61.1245 114.352 61.6345 114.255 62.1976C114.126 62.9201 113.708 64.8326 113.751 65.4488L114.663 65.4063C114.941 64.4501 114.652 63.9507 116.099 62.7288Z"/>
<path fill-rule="evenodd" clip-rule="evenodd" d="M56.8435 65.4382C56.8649 64.6625 56.093 62.9413 55.9643 62.0807C55.8678 61.4751 56.3717 61.1457 56.747 60.7526C56.8435 60.657 57.5403 59.8814 57.6154 59.6901C56.7577 59.637 56.7684 59.5626 56.3503 60.0195C55.7606 60.6464 54.5277 62.2295 54.0345 62.5801C54.131 61.8045 54.517 60.3489 54.4634 59.6689L53.5414 59.6583L52.5979 65.4382L53.4985 65.4169C53.7022 64.7369 53.6057 64.2588 53.9916 63.7594C54.1954 63.4832 54.8386 62.8032 55.1066 62.6438L55.9 65.4275L56.8435 65.4382Z"/>
<path fill-rule="evenodd" clip-rule="evenodd" d="M133.446 20.0809C132.878 22.1208 130.712 22.0464 131.441 18.6571C131.602 17.8709 131.913 16.7765 132.46 16.5109C133.735 15.8734 133.682 17.3609 133.95 17.9134L134.7 17.7328C134.732 16.3091 133.875 14.8322 132.256 15.5334C131.345 15.9372 130.648 17.2865 130.412 18.6359C129.533 23.4383 133.542 23.3852 134.196 20.4315L133.446 20.0809Z"/>
<path fill-rule="evenodd" clip-rule="evenodd" d="M80.698 63.2388C80.8588 62.6226 81.5021 61.337 81.8345 60.7845L82.199 63.2388H80.698ZM79.4865 65.4382C79.8725 65.2363 79.9797 64.705 80.312 64.0569L82.2955 64.0676L82.5313 65.4169L83.5498 65.5232C83.5927 64.9175 82.853 60.1045 82.6385 59.807C82.4134 59.6158 82.7886 59.7964 82.4134 59.7008C82.2847 59.6689 82.2419 59.6689 82.1132 59.6583C81.9524 59.6583 81.6736 59.6689 81.4592 59.6583L78.7789 65.4275L79.4865 65.4382Z"/>
<path fill-rule="evenodd" clip-rule="evenodd" d="M90.1218 64.535C90.1218 64.3332 90.2934 63.0794 90.3577 62.9413C90.4971 62.6332 90.5078 62.7182 90.9688 62.7076C93.0165 62.6863 92.5663 64.535 90.9688 64.5457L90.1218 64.535ZM90.8938 59.7114C89.693 59.5201 89.961 59.4776 89.5 62.1126C89.3821 62.8244 88.9318 64.8644 88.9747 65.4275C90.7329 65.4806 92.5663 65.7144 93.1559 64.2694C93.4561 63.5576 93.3703 62.6438 92.8879 62.2401C92.3733 61.7832 91.3655 61.8788 90.5507 61.8788L90.8938 59.7114Z"/>
<path fill-rule="evenodd" clip-rule="evenodd" d="M144.596 59.6689L141.176 59.7008C140.983 60.4232 140.179 64.8963 140.233 65.4381C143.942 65.4594 143.749 65.7888 143.899 64.535L141.326 64.5244L141.616 62.9413L143.674 62.8563L143.792 62.0701H141.798C141.701 59.9133 142.484 60.6464 144.521 60.5614L144.596 59.6689Z"/>
<path fill-rule="evenodd" clip-rule="evenodd" d="M101.711 64.4819C101.401 64.62 101.401 64.5988 100.982 64.5988C100.747 64.5988 100.521 64.5882 100.286 64.5669C100.275 64.1738 100.221 64.2057 100.457 63.9507C100.436 63.3663 100.393 62.7607 100.982 62.7076C101.647 62.6438 102.044 62.7713 102.408 63.0476C102.623 63.7913 102.408 64.3544 101.711 64.4819ZM101.068 59.6689C99.9961 59.6689 100.146 59.5095 99.9853 60.5507C99.8138 61.6132 99.1598 64.8007 99.2027 65.4275C100.811 65.47 102.73 65.7144 103.352 64.3438C103.695 63.5894 103.555 62.6013 103.041 62.1976C102.473 61.762 101.529 61.9001 100.757 61.8682L101.068 59.6689Z"/>
<path fill-rule="evenodd" clip-rule="evenodd" d="M152.755 15.8841H162.254C162.597 15.7991 162.479 15.8203 162.629 14.7153C160.978 14.6835 154.063 14.5028 152.926 14.7791L152.755 15.8841Z"/>
<path fill-rule="evenodd" clip-rule="evenodd" d="M124.076 19.6346L124.172 19.8578L123.84 21.919L123.808 22.259C124.397 22.259 124.387 22.3546 124.794 22.0783C124.665 20.5484 125.963 17.0209 125.845 15.5547L125.019 15.576C124.794 16.2772 124.676 17.2122 124.537 18.0197C124.312 19.2628 123.122 19.284 122.8 19.0184C122.189 18.519 123.143 16.6384 123.004 15.5547L122.189 15.576C122.007 16.171 121.556 18.4872 121.653 19.114C121.942 21.0477 124.076 19.6346 124.076 19.6346Z"/>
<path fill-rule="evenodd" clip-rule="evenodd" d="M153.162 63.5576C152.733 63.9825 152.444 64.9813 151.425 64.62C150.686 64.3544 150.664 63.2707 150.836 62.3888C150.996 61.5813 151.286 60.6889 151.865 60.4764C152.894 60.0939 153.302 60.8482 153.387 61.6982L154.277 61.5388C154.17 58.6383 150.342 58.8189 149.774 62.2401C149.11 66.1819 152.926 66.5538 153.88 63.8657L153.162 63.5576Z"/>
<path fill-rule="evenodd" clip-rule="evenodd" d="M93.9279 21.7596L93.8743 22.259L94.4961 22.2483C95.654 22.1102 96.308 20.219 96.8226 19.1672C97.1764 18.4553 98.4736 16.1072 98.5487 15.5547L97.7339 15.576L96.1793 18.6678C96.0399 18.9228 96.3294 18.8378 95.9971 18.8909L95.9542 18.5297L95.3538 15.5547L94.4318 15.5653C94.3674 17.1484 95.7505 19.9215 95.1072 20.8459C94.5068 21.7277 94.0458 20.7077 93.9279 21.7596Z"/>
<path fill-rule="evenodd" clip-rule="evenodd" d="M156.689 67L165.931 66.9575L166.06 65.8206L156.872 65.8419L156.689 67Z"/>
<path fill-rule="evenodd" clip-rule="evenodd" d="M86.6054 60.8482C86.7447 60.657 86.6161 60.7207 86.852 60.6782L86.8734 61.0182L87.3451 65.2788L88.4065 65.4063L88.3636 64.8538L87.7096 59.6795H86.4446C86.1551 60.1257 83.9358 65.0769 83.8822 65.4594L84.7721 65.4169L86.6054 60.8482Z"/>
<path fill-rule="evenodd" clip-rule="evenodd" d="M138.592 65.3319L139.632 65.3957L139.589 64.9388L138.882 59.6795L137.649 59.6583L135.14 65.4382H135.965C136.587 64.4607 137.466 61.3051 138.045 60.6676L138.592 65.3319Z"/>
<path fill-rule="evenodd" clip-rule="evenodd" d="M43.0239 64.9282L42.9596 65.4063L43.8066 65.3531C44.8572 65.1725 45.4576 63.6107 45.9937 62.7076C46.3153 62.1445 47.5268 60.1151 47.6233 59.6795L46.7763 59.6689C46.3475 60.3701 45.6613 61.9745 45.1574 62.442C44.7071 61.6876 44.6535 60.4445 44.2354 59.6689L43.2598 59.6795C43.3027 60.827 44.6535 63.3451 44.3319 63.9826C44.0746 64.5032 43.7208 64.5032 43.0775 64.5669L43.0239 64.9282Z"/>
<path fill-rule="evenodd" clip-rule="evenodd" d="M90.7544 21.7915L90.6901 22.259C91.2154 22.259 91.3012 22.3227 91.6657 22.1315L92.6735 16.6278L93.9493 16.6172L94.0994 15.5547L90.5507 15.5653L90.4006 16.6172L91.6657 16.6384L90.7544 21.7915Z"/>
<path fill-rule="evenodd" clip-rule="evenodd" d="M116.335 16.6172C116.496 16.1922 116.474 15.9903 116.582 15.5547L112.958 15.576L112.808 16.6172H114.084L113.076 22.3015C114.062 22.3015 113.998 22.4077 114.137 21.664L115.049 16.6172H116.335Z"/>
<path fill-rule="evenodd" clip-rule="evenodd" d="M28.2395 64.9282L28.1537 65.385L29.1079 65.2894L29.9656 60.572L31.9811 60.5507L32.0562 59.6689H29.1079L28.2395 64.9282Z"/>
<path fill-rule="evenodd" clip-rule="evenodd" d="M103.952 65.4381C105.003 65.4488 104.874 65.5869 105.035 64.535C105.207 63.3982 105.839 60.3914 105.818 59.6689L104.906 59.7008C104.703 60.4232 103.899 64.8857 103.952 65.4381Z"/>
<path fill-rule="evenodd" clip-rule="evenodd" d="M22.1927 45.0492C21.8175 45.4742 20.5524 47.1635 20.3594 47.5779L23.758 47.5672C23.6508 47.291 22.3642 45.1767 22.1927 45.0492Z"/>
<path fill-rule="evenodd" clip-rule="evenodd" d="M149.378 13.6104C148.413 13.4935 149.099 14.0885 148.263 14.2054C147.877 14.2585 147.855 14.2054 147.673 13.9716C147.405 13.621 147.812 13.5679 147.137 13.6104C146.569 15.0766 148.927 15.6185 149.378 13.6104Z"/>
<path fill-rule="evenodd" clip-rule="evenodd" d="M108.401 57.9796C108.101 59.6901 110.728 59.3714 110.749 57.9796C109.72 58.0008 110.578 58.6277 109.12 58.4895C108.702 57.9583 109.141 57.9902 108.401 57.9796Z"/>
<path fill-rule="evenodd" clip-rule="evenodd" d="M32.9782 11.8148C33.3213 11.071 32.9568 9.6792 33.2248 8.91422L33.9003 8.95671C33.8574 8.93547 33.9217 8.88233 33.5787 8.81858C33.1927 8.75483 33.3857 8.79733 33.1069 8.83983L32.9782 11.8148Z"/>
<path fill-rule="evenodd" clip-rule="evenodd" d="M19.1909 60.3064C19.3088 60.1576 19.2445 60.487 19.3624 59.977C19.416 59.7114 19.3624 59.8283 19.3517 59.6476C18.9121 59.6264 18.4833 59.4883 18.3654 59.8601L19.2874 59.7326L19.1909 60.3064Z"/>
<path fill-rule="evenodd" clip-rule="evenodd" d="M87.3451 65.2788C87.5167 65.5231 87.2486 65.555 88.4815 65.47C88.5137 65.0557 88.503 65.1194 88.3636 64.8538L88.4065 65.4063L87.3451 65.2788Z"/>
<path fill-rule="evenodd" clip-rule="evenodd" d="M52.1583 60.2745C52.2334 60.1895 52.3514 60.3914 52.3192 59.637C52.1905 59.6264 51.8582 59.5839 51.7402 59.5945C51.2685 59.637 51.4293 59.5626 51.3114 59.8176L52.2548 59.7114L52.1583 60.2745Z"/>
<path fill-rule="evenodd" clip-rule="evenodd" d="M107.973 60.2533C108.219 60.0089 108.155 60.0301 108.144 59.6476C108.005 59.6264 107.683 59.5839 107.565 59.5945C107.051 59.6476 107.244 59.5626 107.126 59.8176L108.069 59.7114L107.973 60.2533Z"/>
<path fill-rule="evenodd" clip-rule="evenodd" d="M101.711 64.4819L100.35 64.4819L100.457 63.9507C100.221 64.2057 100.275 64.1738 100.286 64.5669C100.521 64.5882 100.747 64.5988 100.982 64.5988C101.401 64.5988 101.401 64.62 101.711 64.4819Z"/>
<path fill-rule="evenodd" clip-rule="evenodd" d="M29.1079 65.2894L28.1537 65.385L28.2395 64.9282C28.025 65.2257 28.0894 65.0875 28.1108 65.4807C28.2288 65.4913 28.5826 65.5125 28.6791 65.5019C29.1508 65.4594 28.9899 65.555 29.1079 65.2894Z"/>
<path fill-rule="evenodd" clip-rule="evenodd" d="M116.925 22.1633L115.981 22.259L116.035 21.8552C115.853 22.0677 115.885 21.9402 115.917 22.3546L116.689 22.4077L116.925 22.1633Z"/>
<path fill-rule="evenodd" clip-rule="evenodd" d="M59.5666 60.1576C59.7918 59.8814 59.7167 60.0089 59.706 59.637C59.5774 59.6264 59.245 59.5839 59.1378 59.5945C58.6125 59.6476 58.8161 59.5626 58.6982 59.8283L59.6524 59.7114L59.5666 60.1576Z"/>
<path fill-rule="evenodd" clip-rule="evenodd" d="M22.3751 60.1683C22.5895 59.9133 22.5358 60.0408 22.5251 59.6476C22.3857 59.6264 22.0963 59.5839 21.9569 59.5945C21.453 59.637 21.6353 59.5626 21.5174 59.807L22.4501 59.7114L22.3751 60.1683Z"/>
<path fill-rule="evenodd" clip-rule="evenodd" d="M111.264 60.147C111.457 59.9451 111.403 60.0727 111.403 59.6477L110.76 59.6158C110.149 59.6477 110.589 59.5945 110.417 59.7858L111.21 59.722L111.264 60.147Z"/>
<path fill-rule="evenodd" clip-rule="evenodd" d="M68.1971 60.2851C68.3151 60.147 68.2401 60.4764 68.358 59.977C68.4223 59.7114 68.3687 59.8283 68.358 59.6477C67.6933 59.6158 67.6075 59.552 67.4038 59.7645L68.2936 59.7539L68.1971 60.2851Z"/>
<path fill-rule="evenodd" clip-rule="evenodd" d="M138.592 65.3319C138.871 65.5869 139.321 65.5125 139.718 65.4488C139.729 65.0344 139.729 65.1194 139.589 64.9388L139.632 65.3957L138.592 65.3319Z"/>
<path fill-rule="evenodd" clip-rule="evenodd" d="M91.6657 22.1315C91.3012 22.3227 91.2154 22.259 90.6901 22.259L90.7544 21.7915C90.54 22.089 90.615 21.8658 90.5829 22.2696C90.8724 22.3971 91.5371 22.5565 91.6657 22.1315Z"/>
<path fill-rule="evenodd" clip-rule="evenodd" d="M64.1124 65.2575C63.6728 65.4488 63.6407 65.385 63.1582 65.385L63.244 64.9175C63.0403 65.215 63.0831 65.0769 63.1153 65.4807C63.2225 65.4807 63.6192 65.5125 63.6942 65.5125C64.1874 65.4488 64.0159 65.555 64.1124 65.2575Z"/>
<path fill-rule="evenodd" clip-rule="evenodd" d="M124.708 65.2575L124.001 65.3531L124.065 64.8963C124.011 64.9813 124.022 64.8325 123.947 65.1513C123.872 65.4169 123.926 65.2788 123.947 65.4594C124.387 65.4806 124.58 65.6081 124.708 65.2575Z"/>
<path fill-rule="evenodd" clip-rule="evenodd" d="M136.63 16.1497C136.877 15.8841 136.834 15.916 136.791 15.5228C136.405 15.5016 136.137 15.4272 135.847 15.6397L136.737 15.6185L136.63 16.1497Z"/>
<path fill-rule="evenodd" clip-rule="evenodd" d="M43.8066 65.3531L42.9596 65.4063L43.0239 64.9282C42.8738 65.1194 43.024 64.7369 42.8953 65.1513C42.7988 65.4382 42.8739 65.2894 42.8739 65.4807C43.4314 65.5657 43.4849 65.5869 43.8066 65.3531Z"/>
<path fill-rule="evenodd" clip-rule="evenodd" d="M134.529 65.3532L133.607 65.385L133.671 64.96C133.478 65.1619 133.521 65.0131 133.521 65.4488C133.703 65.4806 133.875 65.5125 134.068 65.5019C134.475 65.4913 134.368 65.555 134.529 65.3532Z"/>
<path fill-rule="evenodd" clip-rule="evenodd" d="M94.7212 65.3638L93.7992 65.385L93.8742 64.9494C93.7563 65.0769 93.8207 64.9282 93.7349 65.1619C93.6706 65.385 93.7242 65.3 93.7242 65.4594C93.8957 65.4806 94.0994 65.5125 94.2817 65.5019C94.6676 65.4913 94.5711 65.555 94.7212 65.3638Z"/>
<path fill-rule="evenodd" clip-rule="evenodd" d="M145.572 22.259H144.693L144.735 21.7277C144.424 22.2483 144.575 22.259 144.575 22.2696C145.036 22.4715 145.454 22.3758 145.486 22.3015C145.507 22.2696 145.55 22.2802 145.572 22.259Z"/>
<path fill-rule="evenodd" clip-rule="evenodd" d="M124.794 22.0783C124.387 22.3546 124.397 22.259 123.808 22.259L123.84 21.919C123.668 22.1952 123.711 21.9827 123.743 22.3652L124.547 22.4077L124.794 22.0783Z"/>
<path fill-rule="evenodd" clip-rule="evenodd" d="M135.579 22.259H134.7L134.754 21.7809C134.454 22.2059 134.593 22.259 134.593 22.2696C134.893 22.4077 135.172 22.4927 135.579 22.259Z"/>
<path fill-rule="evenodd" clip-rule="evenodd" d="M74.9514 65.3531L74.0294 65.385L74.0616 65.0557C73.9008 65.2894 73.9544 65.0557 73.9544 65.4594C74.1152 65.4807 74.3189 65.5125 74.4904 65.5019C74.8978 65.4807 74.7906 65.555 74.9514 65.3531Z"/>
<path fill-rule="evenodd" clip-rule="evenodd" d="M16.1889 65.3638L15.3741 65.385C15.2991 65.215 15.2562 65.6081 15.2991 65.0875C15.149 65.2575 15.1919 65.0344 15.1812 65.4488C15.3634 65.4806 15.5242 65.5125 15.7172 65.5019C16.1032 65.4913 16.0174 65.555 16.1889 65.3638Z"/>
<path fill-rule="evenodd" clip-rule="evenodd" d="M62.5685 65.0238C62.59 64.9919 62.6222 64.9494 62.6329 64.9282C62.8688 64.3863 62.6973 64.9175 62.708 64.535L62.0325 64.4819L62.1397 63.9401C61.9253 64.1844 61.9896 64.0888 61.9467 64.4713C62.2791 64.6413 62.1504 64.5882 62.6007 64.5882L62.5685 65.0238Z"/>
<path fill-rule="evenodd" clip-rule="evenodd" d="M146.654 16.0541C146.869 15.7885 146.805 15.916 146.783 15.5335C146.654 15.5122 146.472 15.491 146.333 15.491L145.84 15.6397L146.73 15.6185L146.654 16.0541Z"/>
<path fill-rule="evenodd" clip-rule="evenodd" d="M107.63 15.9053C107.726 15.8097 107.758 16.0434 107.758 15.5547L107.115 15.5122C106.89 15.5547 106.943 15.5653 106.836 15.6291L107.458 15.6185C107.715 15.7353 107.63 15.5972 107.63 15.9053Z"/>
<path fill-rule="evenodd" clip-rule="evenodd" d="M94.4961 22.2483L93.8743 22.259L93.9279 21.7596C93.8635 21.8552 93.8743 21.7915 93.7778 22.0358C93.6062 22.5139 93.7885 21.834 93.7563 22.2696C94.1316 22.4289 94.1852 22.4502 94.4961 22.2483Z"/>
<path fill-rule="evenodd" clip-rule="evenodd" d="M112.936 36.8787C112.818 36.6874 112.818 37.1231 112.861 36.4643C112.69 36.6662 112.829 36.2199 112.69 36.7831C112.636 37.0062 112.679 36.9424 112.668 37.1443C112.915 37.0381 112.829 37.1231 112.936 36.8787Z"/>
<path fill-rule="evenodd" clip-rule="evenodd" d="M102.012 44.0823C102.065 44.0079 102.065 44.1142 102.162 43.7848L102.194 43.5936C102.205 43.5192 102.215 43.2323 102.226 43.1473C102.183 43.2217 102.172 43.1579 102.097 43.4236L102.054 43.6148C102.044 43.7104 102.022 43.976 102.012 44.0823Z"/>
<path fill-rule="evenodd" clip-rule="evenodd" d="M127.196 63.1751L126.874 63.1644C126.938 63.7382 126.885 63.3132 127.046 63.4832L127.196 63.1751Z"/>
<path fill-rule="evenodd" clip-rule="evenodd" d="M148.37 17.9984L148.466 18.0728C148.874 17.5947 148.488 17.7541 148.466 17.7222C148.413 17.7859 148.402 17.9134 148.37 17.9984Z"/>
<path fill-rule="evenodd" clip-rule="evenodd" d="M117.525 19.794C117.364 19.8471 117.429 19.8684 117.375 19.6878C117.171 19.9428 117.257 19.7303 117.214 20.1553C117.246 20.134 117.279 20.0703 117.289 20.0915L117.525 19.794Z"/>
<path fill-rule="evenodd" clip-rule="evenodd" d="M28.0572 36.3899L27.875 36.0074C27.3496 36.0287 27.682 36.0074 27.5426 36.1668L27.8964 36.0818C27.9822 36.6131 27.9179 36.2518 28.0572 36.3899Z"/>
<path fill-rule="evenodd" clip-rule="evenodd" d="M86.6054 60.8482C86.7126 60.912 86.7233 60.8695 86.8734 61.0182L86.852 60.6782C86.6161 60.7207 86.7447 60.657 86.6054 60.8482Z"/>
<path fill-rule="evenodd" clip-rule="evenodd" d="M96.1793 18.6678L95.9542 18.5297L95.9971 18.8909C96.3294 18.8378 96.0399 18.9228 96.1793 18.6678Z"/>
<path fill-rule="evenodd" clip-rule="evenodd" d="M38.9713 64.0144L39.2823 64.1632L39.3787 63.7807C39.1965 64.0038 39.293 63.9401 38.9713 64.0144Z"/>
<path fill-rule="evenodd" clip-rule="evenodd" d="M35.9909 14.811L35.8944 14.4816L36.1517 14.3647L35.7979 14.4603C35.9158 15.0022 35.8622 14.6835 35.9909 14.811Z"/>
<path fill-rule="evenodd" clip-rule="evenodd" d="M140.994 19.8365L140.919 19.7834C140.768 19.9853 140.801 19.9853 140.886 20.1553L140.994 19.8365Z"/>
<path fill-rule="evenodd" clip-rule="evenodd" d="M55.7392 38.9824C55.9 38.7486 55.7285 39.2374 55.9215 38.6318C55.9644 38.4937 55.9429 38.4511 55.9643 38.313L55.7392 38.9824Z"/>
<path fill-rule="evenodd" clip-rule="evenodd" d="M110.042 61.7832C110.213 61.6557 110.138 62.017 110.203 61.4751L109.988 61.7301L110.042 61.7832Z"/>
<path fill-rule="evenodd" clip-rule="evenodd" d="M116.346 62.782L116.249 62.5588L116.099 62.7288L116.346 62.782Z"/>
</svg>
